{"glyphs":{"0":{"ha":833,"x_min":57,"x_max":776,"o":"m 257 0 l 57 215 l 57 701 l 257 917 l 576 917 l 776 701 l 776 215 l 576 0 l 257 0 m 221 643 l 221 311 l 229 303 l 521 743 l 511 754 l 324 754 l 221 643 m 603 628 l 317 176 l 328 163 l 510 163 l 613 274 l 613 617 l 603 628 z "},"1":{"ha":833,"x_min":85,"x_max":772,"o":"m 772 0 l 85 0 l 85 160 l 401 160 l 401 546 l 392 546 l 278 426 l 85 426 l 85 597 l 222 597 l 399 782 l 399 917 l 558 917 l 558 160 l 772 160 l 772 0 z "},"2":{"ha":833,"x_min":60,"x_max":774,"o":"m 60 586 l 60 743 l 243 917 l 594 917 l 774 743 l 774 460 l 597 324 l 304 324 l 224 257 l 224 158 l 769 158 l 769 0 l 67 0 l 67 338 l 247 479 l 543 479 l 614 535 l 614 678 l 533 757 l 303 757 l 219 678 l 219 586 l 60 586 z "},"3":{"ha":833,"x_min":60,"x_max":774,"o":"m 607 0 l 226 0 l 60 171 l 60 331 l 219 331 l 219 239 l 294 160 l 539 160 l 614 238 l 614 349 l 539 425 l 283 425 l 283 558 l 504 746 l 504 758 l 83 758 l 83 917 l 754 917 l 754 765 l 517 564 l 517 556 l 607 556 l 774 415 l 774 172 l 607 0 z "},"4":{"ha":833,"x_min":63,"x_max":801,"o":"m 685 0 l 525 0 l 525 181 l 63 181 l 63 314 l 325 917 l 451 917 l 451 810 l 256 363 l 256 340 l 525 340 l 525 675 l 685 675 l 685 340 l 801 340 l 801 181 l 685 181 l 685 0 z "},"5":{"ha":833,"x_min":60,"x_max":774,"o":"m 243 0 l 60 174 l 60 331 l 219 331 l 219 239 l 303 160 l 533 160 l 614 239 l 614 382 l 543 438 l 219 438 l 67 579 l 67 917 l 769 917 l 769 758 l 224 758 l 224 650 l 279 593 l 597 593 l 774 457 l 774 174 l 594 0 l 243 0 z "},"6":{"ha":833,"x_min":60,"x_max":774,"o":"m 596 0 l 242 0 l 60 174 l 60 742 l 243 915 l 594 915 l 774 742 l 774 626 l 614 626 l 614 679 l 533 758 l 303 758 l 200 661 l 200 514 l 208 514 l 263 567 l 596 567 l 774 399 l 774 174 l 596 0 m 217 239 l 300 160 l 536 160 l 617 239 l 617 336 l 536 415 l 303 415 l 217 336 l 217 239 z "},"7":{"ha":833,"x_min":60,"x_max":774,"o":"m 469 0 l 308 0 l 308 418 l 568 739 l 568 758 l 60 758 l 60 917 l 774 917 l 774 756 l 469 371 l 469 0 z "},"8":{"ha":833,"x_min":60,"x_max":774,"o":"m 593 0 l 242 0 l 60 168 l 60 363 l 179 465 l 179 474 l 74 571 l 74 744 l 246 917 l 589 917 l 760 744 l 760 571 l 653 474 l 653 465 l 774 363 l 774 168 l 593 0 m 231 622 l 313 542 l 521 542 l 603 622 l 603 686 l 532 758 l 301 758 l 231 686 l 231 622 m 217 238 l 300 158 l 533 158 l 617 238 l 617 308 l 532 390 l 301 390 l 217 308 l 217 238 z "},"9":{"ha":833,"x_min":60,"x_max":774,"o":"m 238 917 l 592 917 l 774 743 l 774 175 l 590 1 l 239 1 l 60 175 l 60 290 l 219 290 l 219 238 l 300 158 l 531 158 l 633 256 l 633 403 l 625 403 l 571 350 l 238 350 l 60 518 l 60 743 l 238 917 m 617 678 l 533 757 l 297 757 l 217 678 l 217 581 l 297 501 l 531 501 l 617 581 l 617 678 z "},"\u0000":{"ha":0,"x_min":0,"x_max":0,"o":""},"\r":{"ha":0,"x_min":0,"x_max":0,"o":""}," ":{"ha":833,"x_min":0,"x_max":0,"o":""},"A":{"ha":833,"x_min":53,"x_max":781,"o":"m 322 917 l 511 917 l 781 118 l 781 0 l 646 0 l 585 185 l 249 185 l 188 0 l 53 0 l 53 118 l 322 917 m 410 672 l 299 335 l 535 335 l 422 672 l 410 672 z "},"B":{"ha":833,"x_min":76,"x_max":774,"o":"m 611 0 l 76 0 l 76 917 l 611 917 l 774 764 l 774 554 l 675 471 l 675 458 l 774 375 l 774 153 l 611 0 m 236 757 l 236 546 l 542 546 l 614 608 l 614 685 l 538 757 l 236 757 m 236 392 l 236 160 l 532 160 l 614 238 l 614 319 l 538 392 l 236 392 z "},"C":{"ha":833,"x_min":60,"x_max":788,"o":"m 608 0 l 260 0 l 60 215 l 60 701 l 260 917 l 608 917 l 788 725 l 653 636 l 539 757 l 328 757 l 219 640 l 219 275 l 328 160 l 539 160 l 649 276 l 785 192 l 608 0 z "},"D":{"ha":833,"x_min":76,"x_max":774,"o":"m 574 0 l 76 0 l 76 917 l 574 917 l 774 701 l 774 215 l 574 0 m 236 757 l 236 160 l 506 160 l 614 276 l 614 640 l 506 757 l 236 757 z "},"E":{"ha":833,"x_min":76,"x_max":772,"o":"m 772 917 l 772 758 l 236 758 l 236 554 l 689 554 l 689 396 l 236 396 l 236 158 l 772 158 l 772 0 l 76 0 l 76 917 l 772 917 z "},"F":{"ha":833,"x_min":76,"x_max":804,"o":"m 804 917 l 804 768 l 229 768 l 229 536 l 721 536 l 721 376 l 229 376 l 229 0 l 76 0 l 76 917 l 804 917 z "},"G":{"ha":833,"x_min":60,"x_max":788,"o":"m 588 0 l 260 0 l 60 215 l 60 701 l 260 917 l 588 917 l 781 710 l 646 622 l 519 757 l 328 757 l 219 640 l 219 276 l 328 160 l 519 160 l 628 276 l 628 369 l 414 369 l 414 525 l 788 525 l 788 215 l 588 0 z "},"H":{"ha":833,"x_min":76,"x_max":757,"o":"m 594 556 l 594 917 l 757 917 l 757 0 l 594 0 l 594 397 l 240 397 l 240 0 l 76 0 l 76 917 l 240 917 l 240 556 l 594 556 z "},"I":{"ha":833,"x_min":49,"x_max":785,"o":"m 785 0 l 49 0 l 49 158 l 344 158 l 344 758 l 50 758 l 50 917 l 783 917 l 783 758 l 504 758 l 504 158 l 785 158 l 785 0 z "},"J":{"ha":833,"x_min":46,"x_max":774,"o":"m 574 0 l 246 0 l 46 215 l 46 383 l 206 383 l 206 276 l 314 160 l 506 160 l 614 276 l 614 757 l 119 757 l 119 917 l 774 917 l 774 215 l 574 0 z "},"K":{"ha":833,"x_min":76,"x_max":790,"o":"m 743 810 l 446 497 l 790 111 l 790 0 l 668 0 l 339 385 l 236 278 l 236 0 l 76 0 l 76 917 l 236 917 l 236 501 l 621 917 l 743 917 l 743 810 z "},"L":{"ha":833,"x_min":76,"x_max":799,"o":"m 799 0 l 76 0 l 76 917 l 239 917 l 239 158 l 799 158 l 799 0 z "},"M":{"ha":833,"x_min":64,"x_max":769,"o":"m 228 0 l 64 0 l 64 917 l 250 917 l 413 483 l 421 483 l 583 917 l 769 917 l 769 0 l 606 0 l 611 572 l 604 572 l 482 246 l 349 246 l 229 572 l 222 572 l 228 0 z "},"N":{"ha":833,"x_min":76,"x_max":757,"o":"m 240 0 l 76 0 l 76 917 l 229 917 l 593 324 l 596 324 l 594 917 l 757 917 l 757 0 l 601 0 l 244 604 l 238 604 l 240 0 z "},"O":{"ha":833,"x_min":60,"x_max":774,"o":"m 260 0 l 60 215 l 60 701 l 260 917 l 574 917 l 774 701 l 774 215 l 574 0 l 260 0 m 219 640 l 219 276 l 328 160 l 506 160 l 614 276 l 614 640 l 506 757 l 328 757 l 219 640 z "},"P":{"ha":833,"x_min":76,"x_max":788,"o":"m 236 0 l 76 0 l 76 917 l 625 917 l 788 750 l 788 507 l 625 340 l 236 340 l 236 0 m 236 757 l 236 500 l 560 500 l 628 572 l 628 685 l 560 757 l 236 757 z "},"Q":{"ha":833,"x_min":60,"x_max":774,"o":"m 260 917 l 574 917 l 774 701 l 774 217 l 574 1 l 493 1 l 499 -192 l 333 -192 l 339 1 l 260 1 l 60 217 l 60 701 l 260 917 m 506 161 l 614 279 l 614 640 l 506 757 l 328 757 l 219 640 l 219 279 l 328 161 l 343 161 l 339 347 l 494 347 l 490 161 l 506 161 z "},"R":{"ha":833,"x_min":76,"x_max":792,"o":"m 792 750 l 792 507 l 633 351 l 543 351 l 785 113 l 785 0 l 672 0 l 338 351 l 236 351 l 236 0 l 76 0 l 76 917 l 629 917 l 792 750 m 564 500 l 632 572 l 632 685 l 564 757 l 236 757 l 236 500 l 564 500 z "},"S":{"ha":833,"x_min":60,"x_max":774,"o":"m 589 0 l 247 0 l 60 168 l 60 308 l 222 308 l 222 236 l 307 160 l 529 160 l 614 236 l 614 319 l 526 388 l 253 388 l 64 525 l 64 750 l 249 917 l 582 917 l 771 749 l 771 608 l 607 608 l 607 681 l 522 757 l 310 757 l 224 681 l 224 603 l 308 539 l 585 539 l 774 396 l 774 167 l 589 0 z "},"T":{"ha":833,"x_min":32,"x_max":801,"o":"m 338 757 l 32 757 l 32 917 l 801 917 l 801 757 l 497 757 l 500 0 l 335 0 l 338 757 z "},"U":{"ha":833,"x_min":60,"x_max":774,"o":"m 574 0 l 260 0 l 60 215 l 60 917 l 219 917 l 219 276 l 328 160 l 506 160 l 614 276 l 614 917 l 774 917 l 774 215 l 574 0 z "},"V":{"ha":833,"x_min":21,"x_max":813,"o":"m 517 0 l 317 0 l 21 917 l 194 917 l 413 200 l 421 200 l 639 917 l 813 917 l 517 0 z "},"W":{"ha":833,"x_min":33,"x_max":800,"o":"m 97 0 l 33 917 l 208 917 l 228 297 l 236 297 l 314 638 l 519 638 l 594 296 l 603 296 l 625 917 l 800 917 l 736 0 l 529 0 l 422 424 l 411 424 l 304 0 l 97 0 z "},"X":{"ha":833,"x_min":67,"x_max":767,"o":"m 183 0 l 67 0 l 67 118 l 315 465 l 93 799 l 93 917 l 210 917 l 414 588 l 419 588 l 624 917 l 740 917 l 740 799 l 518 465 l 767 119 l 767 0 l 650 0 l 419 339 l 414 339 l 183 0 z "},"Y":{"ha":833,"x_min":46,"x_max":788,"o":"m 503 0 l 328 0 l 333 369 l 46 800 l 46 917 l 163 917 l 408 531 l 422 531 l 671 917 l 788 917 l 788 800 l 497 369 l 503 0 z "},"Z":{"ha":833,"x_min":50,"x_max":783,"o":"m 783 0 l 50 0 l 50 136 l 556 751 l 556 757 l 99 757 l 99 917 l 783 917 l 783 781 l 279 165 l 279 160 l 783 160 l 783 0 z "},"a":{"ha":833,"x_min":76,"x_max":743,"o":"m 518 0 l 244 0 l 76 172 l 76 533 l 244 704 l 525 704 l 603 646 l 607 646 l 613 704 l 743 704 l 743 0 l 608 0 l 607 65 l 603 65 l 518 0 m 235 239 l 313 158 l 489 158 l 589 236 l 589 468 l 483 547 l 313 547 l 235 467 l 235 239 z "},"b":{"ha":833,"x_min":90,"x_max":757,"o":"m 229 0 l 90 0 l 90 968 l 250 968 l 250 746 l 240 653 l 244 653 l 310 704 l 589 704 l 757 533 l 757 172 l 589 0 l 321 0 l 236 71 l 231 71 l 229 0 m 244 236 l 353 160 l 521 160 l 599 239 l 599 467 l 521 544 l 346 544 l 244 468 l 244 236 z "},"c":{"ha":833,"x_min":76,"x_max":764,"o":"m 624 0 l 244 0 l 76 172 l 76 533 l 244 704 l 624 704 l 764 565 l 647 456 l 556 544 l 313 544 l 236 467 l 236 239 l 313 160 l 556 160 l 647 249 l 764 139 l 624 0 z "},"d":{"ha":833,"x_min":76,"x_max":743,"o":"m 514 0 l 244 0 l 76 172 l 76 533 l 244 704 l 519 704 l 583 651 l 588 651 l 582 743 l 582 968 l 743 968 l 743 0 l 604 0 l 603 71 l 597 71 l 514 0 m 235 239 l 313 160 l 489 160 l 589 236 l 589 468 l 483 544 l 313 544 l 235 467 l 235 239 z "},"e":{"ha":833,"x_min":76,"x_max":764,"o":"m 621 0 l 244 0 l 76 172 l 76 533 l 244 704 l 596 704 l 764 533 l 764 294 l 231 294 l 231 229 l 304 158 l 551 158 l 633 239 l 747 131 l 621 0 m 231 476 l 231 425 l 610 425 l 610 476 l 538 547 l 304 547 l 231 476 z "},"f":{"ha":833,"x_min":74,"x_max":760,"o":"m 760 808 l 501 808 l 435 740 l 435 667 l 760 667 l 760 507 l 435 507 l 435 160 l 760 160 l 760 0 l 74 0 l 74 160 l 275 160 l 275 507 l 79 507 l 79 667 l 275 667 l 275 804 l 436 968 l 760 968 l 760 808 z "},"g":{"ha":833,"x_min":76,"x_max":743,"o":"m 244 14 l 76 185 l 76 532 l 244 704 l 526 704 l 589 651 l 593 651 l 597 704 l 743 704 l 743 -292 l 119 -292 l 119 -132 l 589 -132 l 589 74 l 582 74 l 514 14 l 244 14 m 235 467 l 235 251 l 313 174 l 483 174 l 589 250 l 589 468 l 489 544 l 313 544 l 235 467 z "},"h":{"ha":833,"x_min":90,"x_max":743,"o":"m 250 0 l 90 0 l 90 968 l 239 968 l 239 632 l 247 632 l 344 704 l 628 704 l 743 514 l 743 0 l 583 0 l 583 468 l 538 544 l 382 544 l 250 453 l 250 0 z "},"i":{"ha":833,"x_min":68,"x_max":765,"o":"m 765 0 l 68 0 l 68 160 l 363 160 l 363 542 l 82 542 l 82 701 l 525 701 l 525 160 l 765 160 l 765 0 z "},"j":{"ha":833,"x_min":90,"x_max":753,"o":"m 582 -287 l 90 -287 l 90 -128 l 515 -128 l 593 -47 l 593 542 l 199 542 l 199 701 l 751 701 l 751 -114 l 582 -287 z "},"k":{"ha":833,"x_min":90,"x_max":774,"o":"m 713 588 l 493 407 l 774 117 l 774 0 l 657 0 l 371 308 l 251 210 l 251 3 l 90 3 l 90 968 l 251 968 l 251 414 l 596 704 l 713 704 l 713 588 z "},"l":{"ha":833,"x_min":53,"x_max":781,"o":"m 781 0 l 53 0 l 53 171 l 358 171 l 358 806 l 75 806 l 75 965 l 521 965 l 521 171 l 781 171 l 781 0 z "},"m":{"ha":833,"x_min":64,"x_max":769,"o":"m 214 0 l 64 0 l 64 704 l 178 704 l 192 649 l 196 649 l 253 704 l 404 704 l 426 617 l 435 617 l 518 704 l 704 704 l 769 533 l 769 0 l 619 0 l 619 553 l 568 553 l 490 472 l 490 0 l 343 0 l 343 553 l 292 553 l 214 472 l 214 0 z "},"n":{"ha":833,"x_min":90,"x_max":743,"o":"m 250 0 l 90 0 l 90 704 l 236 704 l 239 632 l 246 632 l 344 704 l 628 704 l 743 514 l 743 0 l 583 0 l 583 468 l 538 544 l 382 544 l 250 453 l 250 0 z "},"o":{"ha":833,"x_min":76,"x_max":757,"o":"m 589 0 l 244 0 l 76 172 l 76 533 l 244 704 l 589 704 l 757 533 l 757 172 l 589 0 m 236 239 l 313 160 l 521 160 l 597 239 l 597 467 l 521 544 l 313 544 l 236 467 l 236 239 z "},"p":{"ha":833,"x_min":90,"x_max":757,"o":"m 251 -292 l 90 -292 l 90 704 l 232 704 l 235 639 l 240 639 l 319 704 l 589 704 l 757 533 l 757 172 l 589 0 l 307 0 l 253 51 l 247 51 l 251 -292 m 244 236 l 344 160 l 521 160 l 599 239 l 599 467 l 521 544 l 350 544 l 244 468 l 244 236 z "},"q":{"ha":833,"x_min":76,"x_max":743,"o":"m 743 -292 l 588 -292 l 596 53 l 588 53 l 526 0 l 244 0 l 76 172 l 76 533 l 244 704 l 743 704 l 743 -292 m 235 239 l 313 160 l 489 160 l 589 236 l 589 544 l 313 544 l 235 467 l 235 239 z "},"r":{"ha":833,"x_min":60,"x_max":774,"o":"m 683 0 l 60 0 l 60 160 l 225 160 l 225 544 l 60 544 l 60 704 l 347 704 l 347 622 l 356 622 l 464 704 l 774 704 l 774 544 l 511 544 l 385 444 l 385 160 l 683 160 l 683 0 z "},"s":{"ha":833,"x_min":76,"x_max":757,"o":"m 594 0 l 243 0 l 76 129 l 76 246 l 238 246 l 238 200 l 301 154 l 535 154 l 596 200 l 596 247 l 535 290 l 239 290 l 81 408 l 81 575 l 243 704 l 594 704 l 757 575 l 757 469 l 596 469 l 596 503 l 533 550 l 303 550 l 242 503 l 242 467 l 303 421 l 597 421 l 757 321 l 757 129 l 594 0 z "},"t":{"ha":833,"x_min":56,"x_max":760,"o":"m 760 0 l 425 0 l 258 172 l 258 543 l 56 543 l 56 703 l 258 703 l 258 917 l 422 917 l 422 703 l 729 703 l 729 543 l 418 543 l 418 239 l 493 160 l 760 160 l 760 0 z "},"u":{"ha":833,"x_min":90,"x_max":743,"o":"m 489 0 l 219 0 l 90 189 l 90 704 l 250 704 l 250 239 l 303 160 l 451 160 l 583 258 l 583 704 l 743 704 l 743 0 l 604 0 l 599 78 l 592 78 l 489 0 z "},"v":{"ha":833,"x_min":46,"x_max":788,"o":"m 328 0 l 46 588 l 46 704 l 176 704 l 410 174 l 424 174 l 657 704 l 788 704 l 788 588 l 506 0 l 328 0 z "},"w":{"ha":833,"x_min":65,"x_max":768,"o":"m 279 0 l 122 0 l 65 704 l 229 704 l 246 263 l 253 263 l 347 489 l 488 489 l 582 263 l 589 263 l 604 704 l 768 704 l 711 0 l 554 0 l 421 290 l 414 290 l 279 0 z "},"x":{"ha":833,"x_min":61,"x_max":772,"o":"m 179 0 l 61 0 l 61 118 l 319 351 l 82 586 l 82 704 l 200 704 l 415 481 l 421 481 l 638 704 l 756 704 l 756 586 l 518 351 l 772 118 l 772 0 l 654 0 l 421 233 l 415 233 l 179 0 z "},"y":{"ha":833,"x_min":71,"x_max":771,"o":"m 385 -292 l 257 -292 l 257 -169 l 346 3 l 71 581 l 71 704 l 193 704 l 419 200 l 429 200 l 647 704 l 771 704 l 771 588 l 385 -292 z "},"z":{"ha":833,"x_min":69,"x_max":771,"o":"m 771 0 l 69 0 l 69 103 l 514 544 l 96 544 l 96 704 l 767 704 l 767 578 l 360 160 l 771 160 l 771 0 z "},".":{"ha":833,"x_min":208,"x_max":394,"o":"m 394 0 l 208 0 l 208 189 l 394 189 l 394 0 z "},",":{"ha":833,"x_min":208,"x_max":394,"o":"m 279 0 l 208 0 l 208 189 l 394 189 l 394 0 l 318 -204 l 217 -204 l 236 -44 l 279 0 z "},"-":{"ha":833,"x_min":189,"x_max":644,"o":"m 644 333 l 189 333 l 189 475 l 644 475 l 644 333 z "},"Á":{"ha":833,"x_min":53,"x_max":781,"o":"m 322 917 l 511 917 l 781 118 l 781 0 l 646 0 l 585 185 l 249 185 l 188 0 l 53 0 l 53 118 l 322 917 m 410 672 l 299 335 l 535 335 l 422 672 l 410 672 z "},"Ă":{"ha":833,"x_min":53,"x_max":781,"o":"m 322 917 l 511 917 l 781 118 l 781 0 l 646 0 l 585 185 l 249 185 l 188 0 l 53 0 l 53 118 l 322 917 m 410 672 l 299 335 l 535 335 l 422 672 l 410 672 z "},"Â":{"ha":833,"x_min":53,"x_max":781,"o":"m 322 917 l 511 917 l 781 118 l 781 0 l 646 0 l 585 185 l 249 185 l 188 0 l 53 0 l 53 118 l 322 917 m 410 672 l 299 335 l 535 335 l 422 672 l 410 672 z "},"Ä":{"ha":833,"x_min":53,"x_max":781,"o":"m 322 917 l 511 917 l 781 118 l 781 0 l 646 0 l 585 185 l 249 185 l 188 0 l 53 0 l 53 118 l 322 917 m 410 672 l 299 335 l 535 335 l 422 672 l 410 672 z "},"À":{"ha":833,"x_min":53,"x_max":781,"o":"m 322 917 l 511 917 l 781 118 l 781 0 l 646 0 l 585 185 l 249 185 l 188 0 l 53 0 l 53 118 l 322 917 m 410 672 l 299 335 l 535 335 l 422 672 l 410 672 z "},"Ā":{"ha":833,"x_min":53,"x_max":781,"o":"m 322 917 l 511 917 l 781 118 l 781 0 l 646 0 l 585 185 l 249 185 l 188 0 l 53 0 l 53 118 l 322 917 m 410 672 l 299 335 l 535 335 l 422 672 l 410 672 z "},"Ą":{"ha":833,"x_min":53,"x_max":839,"o":"m 707 -172 l 729 -147 l 839 -197 l 756 -290 l 613 -290 l 532 -206 l 532 -75 l 642 14 l 585 185 l 249 185 l 188 0 l 53 0 l 53 118 l 322 917 l 511 917 l 781 118 l 781 0 l 651 -114 l 651 -153 l 672 -172 l 707 -172 m 410 672 l 299 335 l 535 335 l 422 672 l 410 672 z "},"Å":{"ha":833,"x_min":53,"x_max":781,"o":"m 322 917 l 511 917 l 781 118 l 781 0 l 646 0 l 585 185 l 249 185 l 188 0 l 53 0 l 53 118 l 322 917 m 410 672 l 299 335 l 535 335 l 422 672 l 410 672 z "},"Ã":{"ha":833,"x_min":53,"x_max":781,"o":"m 322 917 l 511 917 l 781 118 l 781 0 l 646 0 l 585 185 l 249 185 l 188 0 l 53 0 l 53 118 l 322 917 m 410 672 l 299 335 l 535 335 l 422 672 l 410 672 z "},"Æ":{"ha":833,"x_min":15,"x_max":811,"o":"m 811 917 l 811 758 l 554 758 l 554 563 l 728 563 l 728 404 l 554 404 l 554 158 l 811 158 l 811 0 l 390 0 l 393 175 l 200 175 l 146 0 l 15 0 l 15 129 l 274 917 l 811 917 m 378 758 l 249 335 l 396 335 l 401 758 l 378 758 z "},"Ć":{"ha":833,"x_min":60,"x_max":788,"o":"m 608 0 l 260 0 l 60 215 l 60 701 l 260 917 l 608 917 l 788 725 l 653 636 l 539 757 l 328 757 l 219 640 l 219 275 l 328 160 l 539 160 l 649 276 l 785 192 l 608 0 z "},"Č":{"ha":833,"x_min":60,"x_max":788,"o":"m 608 0 l 260 0 l 60 215 l 60 701 l 260 917 l 608 917 l 788 725 l 653 636 l 539 757 l 328 757 l 219 640 l 219 275 l 328 160 l 539 160 l 649 276 l 785 192 l 608 0 z "},"Ç":{"ha":833,"x_min":60,"x_max":788,"o":"m 328 160 l 539 160 l 649 276 l 785 192 l 608 0 l 482 0 l 467 -25 l 471 -32 l 515 -32 l 585 -103 l 585 -226 l 503 -310 l 354 -310 l 285 -233 l 378 -167 l 404 -190 l 449 -190 l 467 -175 l 467 -149 l 449 -131 l 399 -131 l 336 -47 l 357 0 l 260 0 l 60 215 l 60 701 l 260 917 l 608 917 l 788 725 l 653 636 l 539 757 l 328 757 l 219 640 l 219 275 l 328 160 z "},"Ĉ":{"ha":833,"x_min":60,"x_max":788,"o":"m 608 0 l 260 0 l 60 215 l 60 701 l 260 917 l 608 917 l 788 725 l 653 636 l 539 757 l 328 757 l 219 640 l 219 275 l 328 160 l 539 160 l 649 276 l 785 192 l 608 0 z "},"Ċ":{"ha":833,"x_min":60,"x_max":788,"o":"m 608 0 l 260 0 l 60 215 l 60 701 l 260 917 l 608 917 l 788 725 l 653 636 l 539 757 l 328 757 l 219 640 l 219 275 l 328 160 l 539 160 l 649 276 l 785 192 l 608 0 z "},"Ð":{"ha":833,"x_min":-22,"x_max":774,"o":"m 76 917 l 574 917 l 774 701 l 774 215 l 574 0 l 76 0 l 76 393 l -22 393 l -22 526 l 76 526 l 76 917 m 506 160 l 614 276 l 614 640 l 506 757 l 236 757 l 236 526 l 383 526 l 383 393 l 236 393 l 236 160 l 506 160 z "},"Ď":{"ha":833,"x_min":76,"x_max":774,"o":"m 574 0 l 76 0 l 76 917 l 574 917 l 774 701 l 774 215 l 574 0 m 236 757 l 236 160 l 506 160 l 614 276 l 614 640 l 506 757 l 236 757 z "},"Đ":{"ha":833,"x_min":-22,"x_max":774,"o":"m 76 917 l 574 917 l 774 701 l 774 215 l 574 0 l 76 0 l 76 393 l -22 393 l -22 526 l 76 526 l 76 917 m 506 160 l 614 276 l 614 640 l 506 757 l 236 757 l 236 526 l 383 526 l 383 393 l 236 393 l 236 160 l 506 160 z "},"É":{"ha":833,"x_min":76,"x_max":772,"o":"m 772 917 l 772 758 l 236 758 l 236 554 l 689 554 l 689 396 l 236 396 l 236 158 l 772 158 l 772 0 l 76 0 l 76 917 l 772 917 z "},"Ĕ":{"ha":833,"x_min":76,"x_max":772,"o":"m 772 917 l 772 758 l 236 758 l 236 554 l 689 554 l 689 396 l 236 396 l 236 158 l 772 158 l 772 0 l 76 0 l 76 917 l 772 917 z "},"Ě":{"ha":833,"x_min":76,"x_max":772,"o":"m 772 917 l 772 758 l 236 758 l 236 554 l 689 554 l 689 396 l 236 396 l 236 158 l 772 158 l 772 0 l 76 0 l 76 917 l 772 917 z "},"Ê":{"ha":833,"x_min":76,"x_max":772,"o":"m 772 917 l 772 758 l 236 758 l 236 554 l 689 554 l 689 396 l 236 396 l 236 158 l 772 158 l 772 0 l 76 0 l 76 917 l 772 917 z "},"Ë":{"ha":833,"x_min":76,"x_max":772,"o":"m 772 917 l 772 758 l 236 758 l 236 554 l 689 554 l 689 396 l 236 396 l 236 158 l 772 158 l 772 0 l 76 0 l 76 917 l 772 917 z "},"Ė":{"ha":833,"x_min":76,"x_max":772,"o":"m 772 917 l 772 758 l 236 758 l 236 554 l 689 554 l 689 396 l 236 396 l 236 158 l 772 158 l 772 0 l 76 0 l 76 917 l 772 917 z "},"È":{"ha":833,"x_min":76,"x_max":772,"o":"m 772 917 l 772 758 l 236 758 l 236 554 l 689 554 l 689 396 l 236 396 l 236 158 l 772 158 l 772 0 l 76 0 l 76 917 l 772 917 z "},"Ē":{"ha":833,"x_min":76,"x_max":772,"o":"m 772 917 l 772 758 l 236 758 l 236 554 l 689 554 l 689 396 l 236 396 l 236 158 l 772 158 l 772 0 l 76 0 l 76 917 l 772 917 z "},"Ę":{"ha":833,"x_min":76,"x_max":831,"o":"m 699 -172 l 721 -147 l 831 -197 l 747 -290 l 604 -290 l 524 -206 l 524 -75 l 617 0 l 76 0 l 76 917 l 772 917 l 772 758 l 236 758 l 236 554 l 689 554 l 689 396 l 236 396 l 236 158 l 772 158 l 772 0 l 643 -114 l 643 -153 l 664 -172 l 699 -172 z "},"Ẽ":{"ha":833,"x_min":76,"x_max":772,"o":"m 772 917 l 772 758 l 236 758 l 236 554 l 689 554 l 689 396 l 236 396 l 236 158 l 772 158 l 772 0 l 76 0 l 76 917 l 772 917 z "},"Ǵ":{"ha":833,"x_min":60,"x_max":788,"o":"m 588 0 l 260 0 l 60 215 l 60 701 l 260 917 l 588 917 l 781 710 l 646 622 l 519 757 l 328 757 l 219 640 l 219 276 l 328 160 l 519 160 l 628 276 l 628 369 l 414 369 l 414 525 l 788 525 l 788 215 l 588 0 z "},"Ğ":{"ha":833,"x_min":60,"x_max":788,"o":"m 588 0 l 260 0 l 60 215 l 60 701 l 260 917 l 588 917 l 781 710 l 646 622 l 519 757 l 328 757 l 219 640 l 219 276 l 328 160 l 519 160 l 628 276 l 628 369 l 414 369 l 414 525 l 788 525 l 788 215 l 588 0 z "},"Ĝ":{"ha":833,"x_min":60,"x_max":788,"o":"m 588 0 l 260 0 l 60 215 l 60 701 l 260 917 l 588 917 l 781 710 l 646 622 l 519 757 l 328 757 l 219 640 l 219 276 l 328 160 l 519 160 l 628 276 l 628 369 l 414 369 l 414 525 l 788 525 l 788 215 l 588 0 z "},"Ģ":{"ha":833,"x_min":60,"x_max":788,"o":"m 588 0 l 260 0 l 60 215 l 60 701 l 260 917 l 588 917 l 781 710 l 646 622 l 519 757 l 328 757 l 219 640 l 219 276 l 328 160 l 519 160 l 628 276 l 628 369 l 414 369 l 414 525 l 788 525 l 788 215 l 588 0 m 386 -214 l 335 -214 l 335 -69 l 497 -69 l 497 -214 l 431 -401 l 346 -401 l 360 -254 l 386 -214 z "},"Ġ":{"ha":833,"x_min":60,"x_max":788,"o":"m 588 0 l 260 0 l 60 215 l 60 701 l 260 917 l 588 917 l 781 710 l 646 622 l 519 757 l 328 757 l 219 640 l 219 276 l 328 160 l 519 160 l 628 276 l 628 369 l 414 369 l 414 525 l 788 525 l 788 215 l 588 0 z "},"Ħ":{"ha":833,"x_min":-7,"x_max":840,"o":"m 757 801 l 840 801 l 840 661 l 757 661 l 757 0 l 594 0 l 594 397 l 240 397 l 240 0 l 76 0 l 76 661 l -7 661 l -7 801 l 76 801 l 76 917 l 240 917 l 240 801 l 594 801 l 594 917 l 757 917 l 757 801 m 240 556 l 594 556 l 594 661 l 240 661 l 240 556 z "},"Ĥ":{"ha":833,"x_min":76,"x_max":757,"o":"m 594 556 l 594 917 l 757 917 l 757 0 l 594 0 l 594 397 l 240 397 l 240 0 l 76 0 l 76 917 l 240 917 l 240 556 l 594 556 z "},"Ĳ":{"ha":833,"x_min":46,"x_max":774,"o":"m 574 0 l 246 0 l 46 215 l 46 471 l 243 471 l 243 757 l 47 757 l 47 917 l 774 917 l 774 215 l 574 0 m 206 276 l 314 160 l 506 160 l 614 276 l 614 757 l 393 757 l 393 471 l 538 471 l 538 313 l 206 313 l 206 276 z "},"Í":{"ha":833,"x_min":49,"x_max":785,"o":"m 785 0 l 49 0 l 49 158 l 344 158 l 344 758 l 50 758 l 50 917 l 783 917 l 783 758 l 504 758 l 504 158 l 785 158 l 785 0 z "},"Ĭ":{"ha":833,"x_min":49,"x_max":785,"o":"m 785 0 l 49 0 l 49 158 l 344 158 l 344 758 l 50 758 l 50 917 l 783 917 l 783 758 l 504 758 l 504 158 l 785 158 l 785 0 z "},"Î":{"ha":833,"x_min":49,"x_max":785,"o":"m 785 0 l 49 0 l 49 158 l 344 158 l 344 758 l 50 758 l 50 917 l 783 917 l 783 758 l 504 758 l 504 158 l 785 158 l 785 0 z "},"Ï":{"ha":833,"x_min":49,"x_max":785,"o":"m 785 0 l 49 0 l 49 158 l 344 158 l 344 758 l 50 758 l 50 917 l 783 917 l 783 758 l 504 758 l 504 158 l 785 158 l 785 0 z "},"İ":{"ha":833,"x_min":49,"x_max":785,"o":"m 785 0 l 49 0 l 49 158 l 344 158 l 344 758 l 50 758 l 50 917 l 783 917 l 783 758 l 504 758 l 504 158 l 785 158 l 785 0 z "},"Ì":{"ha":833,"x_min":49,"x_max":785,"o":"m 785 0 l 49 0 l 49 158 l 344 158 l 344 758 l 50 758 l 50 917 l 783 917 l 783 758 l 504 758 l 504 158 l 785 158 l 785 0 z "},"Ī":{"ha":833,"x_min":49,"x_max":785,"o":"m 785 0 l 49 0 l 49 158 l 344 158 l 344 758 l 50 758 l 50 917 l 783 917 l 783 758 l 504 758 l 504 158 l 785 158 l 785 0 z "},"Į":{"ha":833,"x_min":49,"x_max":785,"o":"m 785 0 l 531 0 l 401 -114 l 401 -153 l 422 -172 l 457 -172 l 479 -147 l 589 -197 l 506 -290 l 363 -290 l 282 -206 l 282 -75 l 375 0 l 49 0 l 49 158 l 344 158 l 344 758 l 50 758 l 50 917 l 783 917 l 783 758 l 504 758 l 504 158 l 785 158 l 785 0 z "},"Ĩ":{"ha":833,"x_min":49,"x_max":785,"o":"m 785 0 l 49 0 l 49 158 l 344 158 l 344 758 l 50 758 l 50 917 l 783 917 l 783 758 l 504 758 l 504 158 l 785 158 l 785 0 z "},"Ĵ":{"ha":833,"x_min":46,"x_max":774,"o":"m 574 0 l 246 0 l 46 215 l 46 383 l 206 383 l 206 276 l 314 160 l 506 160 l 614 276 l 614 757 l 119 757 l 119 917 l 774 917 l 774 215 l 574 0 z "},"Ķ":{"ha":833,"x_min":76,"x_max":790,"o":"m 743 810 l 446 497 l 790 111 l 790 0 l 668 0 l 339 385 l 236 278 l 236 0 l 76 0 l 76 917 l 236 917 l 236 501 l 621 917 l 743 917 l 743 810 m 406 -214 l 354 -214 l 354 -69 l 517 -69 l 517 -214 l 450 -401 l 365 -401 l 379 -254 l 406 -214 z "},"Ĺ":{"ha":833,"x_min":76,"x_max":799,"o":"m 799 0 l 76 0 l 76 917 l 239 917 l 239 158 l 799 158 l 799 0 z "},"Ľ":{"ha":833,"x_min":76,"x_max":799,"o":"m 799 0 l 76 0 l 76 917 l 239 917 l 239 158 l 799 158 l 799 0 m 422 765 l 304 765 l 304 1011 l 447 1011 l 422 765 z "},"Ļ":{"ha":833,"x_min":76,"x_max":799,"o":"m 799 0 l 76 0 l 76 917 l 239 917 l 239 158 l 799 158 l 799 0 m 403 -214 l 351 -214 l 351 -69 l 514 -69 l 514 -214 l 447 -401 l 363 -401 l 376 -254 l 403 -214 z "},"Ŀ":{"ha":833,"x_min":76,"x_max":799,"o":"m 799 0 l 76 0 l 76 917 l 239 917 l 239 158 l 799 158 l 799 0 z "},"Ł":{"ha":833,"x_min":-65,"x_max":799,"o":"m 239 460 l 239 158 l 799 158 l 799 0 l 76 0 l 76 401 l 31 385 l -65 385 l -65 513 l 76 563 l 76 917 l 239 917 l 239 621 l 310 646 l 404 646 l 404 519 l 239 460 z "},"Ń":{"ha":833,"x_min":76,"x_max":757,"o":"m 240 0 l 76 0 l 76 917 l 229 917 l 593 324 l 596 324 l 594 917 l 757 917 l 757 0 l 601 0 l 244 604 l 238 604 l 240 0 z "},"Ň":{"ha":833,"x_min":76,"x_max":757,"o":"m 240 0 l 76 0 l 76 917 l 229 917 l 593 324 l 596 324 l 594 917 l 757 917 l 757 0 l 601 0 l 244 604 l 238 604 l 240 0 z "},"Ņ":{"ha":833,"x_min":76,"x_max":757,"o":"m 240 0 l 76 0 l 76 917 l 229 917 l 593 324 l 596 324 l 594 917 l 757 917 l 757 0 l 601 0 l 244 604 l 238 604 l 240 0 m 389 -214 l 338 -214 l 338 -69 l 500 -69 l 500 -214 l 433 -401 l 349 -401 l 363 -254 l 389 -214 z "},"Ŋ":{"ha":833,"x_min":76,"x_max":757,"o":"m 642 -292 l 396 -292 l 396 -129 l 551 -129 l 596 -50 l 596 35 l 244 601 l 238 601 l 240 0 l 76 0 l 76 917 l 229 917 l 593 350 l 596 350 l 594 917 l 757 917 l 757 -90 l 642 -292 z "},"Ñ":{"ha":833,"x_min":76,"x_max":757,"o":"m 240 0 l 76 0 l 76 917 l 229 917 l 593 324 l 596 324 l 594 917 l 757 917 l 757 0 l 601 0 l 244 604 l 238 604 l 240 0 z "},"Ó":{"ha":833,"x_min":60,"x_max":774,"o":"m 260 0 l 60 215 l 60 701 l 260 917 l 574 917 l 774 701 l 774 215 l 574 0 l 260 0 m 219 640 l 219 276 l 328 160 l 506 160 l 614 276 l 614 640 l 506 757 l 328 757 l 219 640 z "},"Ŏ":{"ha":833,"x_min":60,"x_max":774,"o":"m 260 0 l 60 215 l 60 701 l 260 917 l 574 917 l 774 701 l 774 215 l 574 0 l 260 0 m 219 640 l 219 276 l 328 160 l 506 160 l 614 276 l 614 640 l 506 757 l 328 757 l 219 640 z "},"Ô":{"ha":833,"x_min":60,"x_max":774,"o":"m 260 0 l 60 215 l 60 701 l 260 917 l 574 917 l 774 701 l 774 215 l 574 0 l 260 0 m 219 640 l 219 276 l 328 160 l 506 160 l 614 276 l 614 640 l 506 757 l 328 757 l 219 640 z "},"Ö":{"ha":833,"x_min":60,"x_max":774,"o":"m 260 0 l 60 215 l 60 701 l 260 917 l 574 917 l 774 701 l 774 215 l 574 0 l 260 0 m 219 640 l 219 276 l 328 160 l 506 160 l 614 276 l 614 640 l 506 757 l 328 757 l 219 640 z "},"Ò":{"ha":833,"x_min":60,"x_max":774,"o":"m 260 0 l 60 215 l 60 701 l 260 917 l 574 917 l 774 701 l 774 215 l 574 0 l 260 0 m 219 640 l 219 276 l 328 160 l 506 160 l 614 276 l 614 640 l 506 757 l 328 757 l 219 640 z "},"Ő":{"ha":833,"x_min":60,"x_max":774,"o":"m 260 0 l 60 215 l 60 701 l 260 917 l 574 917 l 774 701 l 774 215 l 574 0 l 260 0 m 219 640 l 219 276 l 328 160 l 506 160 l 614 276 l 614 640 l 506 757 l 328 757 l 219 640 z "},"Ō":{"ha":833,"x_min":60,"x_max":774,"o":"m 260 0 l 60 215 l 60 701 l 260 917 l 574 917 l 774 701 l 774 215 l 574 0 l 260 0 m 219 640 l 219 276 l 328 160 l 506 160 l 614 276 l 614 640 l 506 757 l 328 757 l 219 640 z "},"Ø":{"ha":833,"x_min":60,"x_max":774,"o":"m 750 839 l 700 781 l 774 701 l 774 215 l 574 0 l 260 0 l 221 42 l 179 -22 l 83 -22 l 83 74 l 133 136 l 60 215 l 60 701 l 260 917 l 574 917 l 614 874 l 656 935 l 750 935 l 750 839 m 328 757 l 219 640 l 219 285 l 232 271 l 524 736 l 506 757 l 328 757 m 506 160 l 614 276 l 614 629 l 600 646 l 310 182 l 328 160 l 506 160 z "},"Õ":{"ha":833,"x_min":60,"x_max":774,"o":"m 260 0 l 60 215 l 60 701 l 260 917 l 574 917 l 774 701 l 774 215 l 574 0 l 260 0 m 219 640 l 219 276 l 328 160 l 506 160 l 614 276 l 614 640 l 506 757 l 328 757 l 219 640 z "},"Œ":{"ha":833,"x_min":50,"x_max":783,"o":"m 783 0 l 181 0 l 50 192 l 50 725 l 181 917 l 783 917 l 783 758 l 543 758 l 543 563 l 700 563 l 700 404 l 543 404 l 543 158 l 783 158 l 783 0 m 203 240 l 263 154 l 390 154 l 390 763 l 263 763 l 203 676 l 203 240 z "},"Þ":{"ha":833,"x_min":76,"x_max":788,"o":"m 236 0 l 76 0 l 76 917 l 236 917 l 236 732 l 625 732 l 788 565 l 788 351 l 625 185 l 236 185 l 236 0 m 236 572 l 236 344 l 560 344 l 628 415 l 628 501 l 560 572 l 236 572 z "},"Ŕ":{"ha":833,"x_min":76,"x_max":792,"o":"m 792 750 l 792 507 l 633 351 l 543 351 l 785 113 l 785 0 l 672 0 l 338 351 l 236 351 l 236 0 l 76 0 l 76 917 l 629 917 l 792 750 m 564 500 l 632 572 l 632 685 l 564 757 l 236 757 l 236 500 l 564 500 z "},"Ř":{"ha":833,"x_min":76,"x_max":792,"o":"m 792 750 l 792 507 l 633 351 l 543 351 l 785 113 l 785 0 l 672 0 l 338 351 l 236 351 l 236 0 l 76 0 l 76 917 l 629 917 l 792 750 m 564 500 l 632 572 l 632 685 l 564 757 l 236 757 l 236 500 l 564 500 z "},"Ŗ":{"ha":833,"x_min":76,"x_max":792,"o":"m 792 750 l 792 507 l 633 351 l 543 351 l 785 113 l 785 0 l 672 0 l 338 351 l 236 351 l 236 0 l 76 0 l 76 917 l 629 917 l 792 750 m 564 500 l 632 572 l 632 685 l 564 757 l 236 757 l 236 500 l 564 500 m 413 -214 l 361 -214 l 361 -69 l 524 -69 l 524 -214 l 457 -401 l 372 -401 l 386 -254 l 413 -214 z "},"Ś":{"ha":833,"x_min":60,"x_max":774,"o":"m 589 0 l 247 0 l 60 168 l 60 308 l 222 308 l 222 236 l 307 160 l 529 160 l 614 236 l 614 319 l 526 388 l 253 388 l 64 525 l 64 750 l 249 917 l 582 917 l 771 749 l 771 608 l 607 608 l 607 681 l 522 757 l 310 757 l 224 681 l 224 603 l 308 539 l 585 539 l 774 396 l 774 167 l 589 0 z "},"Š":{"ha":833,"x_min":60,"x_max":774,"o":"m 589 0 l 247 0 l 60 168 l 60 308 l 222 308 l 222 236 l 307 160 l 529 160 l 614 236 l 614 319 l 526 388 l 253 388 l 64 525 l 64 750 l 249 917 l 582 917 l 771 749 l 771 608 l 607 608 l 607 681 l 522 757 l 310 757 l 224 681 l 224 603 l 308 539 l 585 539 l 774 396 l 774 167 l 589 0 z "},"Ş":{"ha":833,"x_min":60,"x_max":774,"o":"m 308 539 l 585 539 l 774 396 l 774 167 l 589 0 l 469 0 l 454 -25 l 458 -32 l 503 -32 l 572 -103 l 572 -226 l 490 -310 l 342 -310 l 272 -233 l 365 -167 l 392 -190 l 436 -190 l 454 -175 l 454 -149 l 436 -131 l 386 -131 l 324 -47 l 344 0 l 247 0 l 60 168 l 60 308 l 222 308 l 222 236 l 307 160 l 529 160 l 614 236 l 614 319 l 526 388 l 253 388 l 64 525 l 64 750 l 249 917 l 582 917 l 771 749 l 771 608 l 607 608 l 607 681 l 522 757 l 310 757 l 224 681 l 224 603 l 308 539 z "},"Ŝ":{"ha":833,"x_min":60,"x_max":774,"o":"m 589 0 l 247 0 l 60 168 l 60 308 l 222 308 l 222 236 l 307 160 l 529 160 l 614 236 l 614 319 l 526 388 l 253 388 l 64 525 l 64 750 l 249 917 l 582 917 l 771 749 l 771 608 l 607 608 l 607 681 l 522 757 l 310 757 l 224 681 l 224 603 l 308 539 l 585 539 l 774 396 l 774 167 l 589 0 z "},"Ș":{"ha":833,"x_min":60,"x_max":774,"o":"m 589 0 l 247 0 l 60 168 l 60 308 l 222 308 l 222 236 l 307 160 l 529 160 l 614 236 l 614 319 l 526 388 l 253 388 l 64 525 l 64 750 l 249 917 l 582 917 l 771 749 l 771 608 l 607 608 l 607 681 l 522 757 l 310 757 l 224 681 l 224 603 l 308 539 l 585 539 l 774 396 l 774 167 l 589 0 m 386 -214 l 335 -214 l 335 -69 l 497 -69 l 497 -214 l 431 -401 l 346 -401 l 360 -254 l 386 -214 z "},"ẞ":{"ha":833,"x_min":76,"x_max":774,"o":"m 236 0 l 76 0 l 76 761 l 235 917 l 722 917 l 722 739 l 515 554 l 515 549 l 611 549 l 774 419 l 774 164 l 601 0 l 310 0 l 310 158 l 540 158 l 617 222 l 617 346 l 543 401 l 310 401 l 310 571 l 513 744 l 513 758 l 311 758 l 236 694 l 236 0 z "},"Ə":{"ha":833,"x_min":60,"x_max":774,"o":"m 260 0 l 60 215 l 60 538 l 614 538 l 614 640 l 506 757 l 328 757 l 219 640 l 60 701 l 260 917 l 574 917 l 774 701 l 774 215 l 574 0 l 260 0 m 219 393 l 219 276 l 328 160 l 506 160 l 614 276 l 614 393 l 219 393 z "},"Ŧ":{"ha":833,"x_min":32,"x_max":801,"o":"m 801 917 l 801 757 l 497 757 l 497 574 l 718 574 l 718 433 l 499 433 l 500 0 l 335 0 l 336 433 l 115 433 l 115 574 l 338 574 l 338 757 l 32 757 l 32 917 l 801 917 z "},"Ť":{"ha":833,"x_min":32,"x_max":801,"o":"m 338 757 l 32 757 l 32 917 l 801 917 l 801 757 l 497 757 l 500 0 l 335 0 l 338 757 z "},"Ţ":{"ha":833,"x_min":32,"x_max":801,"o":"m 338 757 l 32 757 l 32 917 l 801 917 l 801 757 l 497 757 l 500 21 l 469 -25 l 475 -32 l 504 -32 l 575 -103 l 575 -226 l 492 -310 l 344 -310 l 274 -233 l 368 -167 l 393 -190 l 439 -190 l 456 -175 l 456 -149 l 439 -131 l 389 -131 l 328 -43 l 335 0 l 338 757 z "},"Ț":{"ha":833,"x_min":32,"x_max":801,"o":"m 338 757 l 32 757 l 32 917 l 801 917 l 801 757 l 497 757 l 500 0 l 335 0 l 338 757 m 389 -214 l 338 -214 l 338 -69 l 500 -69 l 500 -214 l 433 -401 l 349 -401 l 363 -254 l 389 -214 z "},"Ú":{"ha":833,"x_min":60,"x_max":774,"o":"m 574 0 l 260 0 l 60 215 l 60 917 l 219 917 l 219 276 l 328 160 l 506 160 l 614 276 l 614 917 l 774 917 l 774 215 l 574 0 z "},"Ʉ":{"ha":833,"x_min":-25,"x_max":856,"o":"m 774 624 l 856 624 l 856 483 l 774 483 l 774 215 l 574 0 l 260 0 l 60 215 l 60 483 l -25 483 l -25 624 l 60 624 l 60 917 l 219 917 l 219 624 l 614 624 l 614 917 l 774 917 l 774 624 m 506 160 l 614 276 l 614 483 l 219 483 l 219 276 l 328 160 l 506 160 z "},"Ŭ":{"ha":833,"x_min":60,"x_max":774,"o":"m 574 0 l 260 0 l 60 215 l 60 917 l 219 917 l 219 276 l 328 160 l 506 160 l 614 276 l 614 917 l 774 917 l 774 215 l 574 0 z "},"Û":{"ha":833,"x_min":60,"x_max":774,"o":"m 574 0 l 260 0 l 60 215 l 60 917 l 219 917 l 219 276 l 328 160 l 506 160 l 614 276 l 614 917 l 774 917 l 774 215 l 574 0 z "},"Ü":{"ha":833,"x_min":60,"x_max":774,"o":"m 574 0 l 260 0 l 60 215 l 60 917 l 219 917 l 219 276 l 328 160 l 506 160 l 614 276 l 614 917 l 774 917 l 774 215 l 574 0 z "},"Ù":{"ha":833,"x_min":60,"x_max":774,"o":"m 574 0 l 260 0 l 60 215 l 60 917 l 219 917 l 219 276 l 328 160 l 506 160 l 614 276 l 614 917 l 774 917 l 774 215 l 574 0 z "},"Ű":{"ha":833,"x_min":60,"x_max":774,"o":"m 574 0 l 260 0 l 60 215 l 60 917 l 219 917 l 219 276 l 328 160 l 506 160 l 614 276 l 614 917 l 774 917 l 774 215 l 574 0 z "},"Ū":{"ha":833,"x_min":60,"x_max":774,"o":"m 574 0 l 260 0 l 60 215 l 60 917 l 219 917 l 219 276 l 328 160 l 506 160 l 614 276 l 614 917 l 774 917 l 774 215 l 574 0 z "},"Ų":{"ha":833,"x_min":60,"x_max":774,"o":"m 574 0 l 531 0 l 401 -114 l 401 -153 l 422 -172 l 457 -172 l 479 -147 l 589 -197 l 506 -290 l 363 -290 l 282 -206 l 282 -75 l 375 0 l 260 0 l 60 215 l 60 917 l 219 917 l 219 276 l 328 160 l 506 160 l 614 276 l 614 917 l 774 917 l 774 215 l 574 0 z "},"Ů":{"ha":833,"x_min":60,"x_max":774,"o":"m 574 0 l 260 0 l 60 215 l 60 917 l 219 917 l 219 276 l 328 160 l 506 160 l 614 276 l 614 917 l 774 917 l 774 215 l 574 0 z "},"Ũ":{"ha":833,"x_min":60,"x_max":774,"o":"m 574 0 l 260 0 l 60 215 l 60 917 l 219 917 l 219 276 l 328 160 l 506 160 l 614 276 l 614 917 l 774 917 l 774 215 l 574 0 z "},"Ẃ":{"ha":833,"x_min":33,"x_max":800,"o":"m 97 0 l 33 917 l 208 917 l 228 297 l 236 297 l 314 638 l 519 638 l 594 296 l 603 296 l 625 917 l 800 917 l 736 0 l 529 0 l 422 424 l 411 424 l 304 0 l 97 0 z "},"Ŵ":{"ha":833,"x_min":33,"x_max":800,"o":"m 97 0 l 33 917 l 208 917 l 228 297 l 236 297 l 314 638 l 519 638 l 594 296 l 603 296 l 625 917 l 800 917 l 736 0 l 529 0 l 422 424 l 411 424 l 304 0 l 97 0 z "},"Ẅ":{"ha":833,"x_min":33,"x_max":800,"o":"m 97 0 l 33 917 l 208 917 l 228 297 l 236 297 l 314 638 l 519 638 l 594 296 l 603 296 l 625 917 l 800 917 l 736 0 l 529 0 l 422 424 l 411 424 l 304 0 l 97 0 z "},"Ẁ":{"ha":833,"x_min":33,"x_max":800,"o":"m 97 0 l 33 917 l 208 917 l 228 297 l 236 297 l 314 638 l 519 638 l 594 296 l 603 296 l 625 917 l 800 917 l 736 0 l 529 0 l 422 424 l 411 424 l 304 0 l 97 0 z "},"Ý":{"ha":833,"x_min":46,"x_max":788,"o":"m 503 0 l 328 0 l 333 369 l 46 800 l 46 917 l 163 917 l 408 531 l 422 531 l 671 917 l 788 917 l 788 800 l 497 369 l 503 0 z "},"Ŷ":{"ha":833,"x_min":46,"x_max":788,"o":"m 503 0 l 328 0 l 333 369 l 46 800 l 46 917 l 163 917 l 408 531 l 422 531 l 671 917 l 788 917 l 788 800 l 497 369 l 503 0 z "},"Ÿ":{"ha":833,"x_min":46,"x_max":788,"o":"m 503 0 l 328 0 l 333 369 l 46 800 l 46 917 l 163 917 l 408 531 l 422 531 l 671 917 l 788 917 l 788 800 l 497 369 l 503 0 z "},"Ỳ":{"ha":833,"x_min":46,"x_max":788,"o":"m 503 0 l 328 0 l 333 369 l 46 800 l 46 917 l 163 917 l 408 531 l 422 531 l 671 917 l 788 917 l 788 800 l 497 369 l 503 0 z "},"Ȳ":{"ha":833,"x_min":46,"x_max":788,"o":"m 503 0 l 328 0 l 333 369 l 46 800 l 46 917 l 163 917 l 408 531 l 422 531 l 671 917 l 788 917 l 788 800 l 497 369 l 503 0 z "},"Ỹ":{"ha":833,"x_min":46,"x_max":788,"o":"m 503 0 l 328 0 l 333 369 l 46 800 l 46 917 l 163 917 l 408 531 l 422 531 l 671 917 l 788 917 l 788 800 l 497 369 l 503 0 z "},"Ź":{"ha":833,"x_min":50,"x_max":783,"o":"m 783 0 l 50 0 l 50 136 l 556 751 l 556 757 l 99 757 l 99 917 l 783 917 l 783 781 l 279 165 l 279 160 l 783 160 l 783 0 z "},"Ž":{"ha":833,"x_min":50,"x_max":783,"o":"m 783 0 l 50 0 l 50 136 l 556 751 l 556 757 l 99 757 l 99 917 l 783 917 l 783 781 l 279 165 l 279 160 l 783 160 l 783 0 z "},"Ż":{"ha":833,"x_min":50,"x_max":783,"o":"m 783 0 l 50 0 l 50 136 l 556 751 l 556 757 l 99 757 l 99 917 l 783 917 l 783 781 l 279 165 l 279 160 l 783 160 l 783 0 z "},"á":{"ha":833,"x_min":76,"x_max":743,"o":"m 518 0 l 244 0 l 76 172 l 76 533 l 244 704 l 525 704 l 603 646 l 607 646 l 613 704 l 743 704 l 743 0 l 608 0 l 607 65 l 603 65 l 518 0 m 235 239 l 313 158 l 489 158 l 589 236 l 589 468 l 483 547 l 313 547 l 235 467 l 235 239 m 446 792 l 357 792 l 357 874 l 465 1051 l 567 1051 l 567 949 l 446 792 z "},"ă":{"ha":833,"x_min":76,"x_max":743,"o":"m 518 0 l 244 0 l 76 172 l 76 533 l 244 704 l 525 704 l 603 646 l 607 646 l 613 704 l 743 704 l 743 0 l 608 0 l 607 65 l 603 65 l 518 0 m 235 239 l 313 158 l 489 158 l 589 236 l 589 468 l 483 547 l 313 547 l 235 467 l 235 239 m 544 792 l 265 792 l 174 885 l 174 1019 l 315 1019 l 315 947 l 342 922 l 468 922 l 494 949 l 494 1019 l 636 1019 l 636 885 l 544 792 z "},"â":{"ha":833,"x_min":76,"x_max":743,"o":"m 518 0 l 244 0 l 76 172 l 76 533 l 244 704 l 525 704 l 603 646 l 607 646 l 613 704 l 743 704 l 743 0 l 608 0 l 607 65 l 603 65 l 518 0 m 235 239 l 313 158 l 489 158 l 589 236 l 589 468 l 483 547 l 313 547 l 235 467 l 235 239 m 282 789 l 178 789 l 178 893 l 361 1026 l 447 1026 l 632 888 l 632 789 l 517 789 l 411 892 l 397 892 l 282 789 z "},"ä":{"ha":833,"x_min":76,"x_max":743,"o":"m 518 0 l 244 0 l 76 172 l 76 533 l 244 704 l 525 704 l 603 646 l 607 646 l 613 704 l 743 704 l 743 0 l 608 0 l 607 65 l 603 65 l 518 0 m 235 239 l 313 158 l 489 158 l 589 236 l 589 468 l 483 547 l 313 547 l 235 467 l 235 239 m 350 832 l 194 832 l 194 983 l 350 983 l 350 832 m 614 832 l 458 832 l 458 983 l 614 983 l 614 832 z "},"à":{"ha":833,"x_min":76,"x_max":743,"o":"m 518 0 l 244 0 l 76 172 l 76 533 l 244 704 l 525 704 l 603 646 l 607 646 l 613 704 l 743 704 l 743 0 l 608 0 l 607 65 l 603 65 l 518 0 m 235 239 l 313 158 l 489 158 l 589 236 l 589 468 l 483 547 l 313 547 l 235 467 l 235 239 m 447 874 l 447 792 l 358 792 l 238 949 l 238 1051 l 339 1051 l 447 874 z "},"ā":{"ha":833,"x_min":76,"x_max":743,"o":"m 518 0 l 244 0 l 76 172 l 76 533 l 244 704 l 525 704 l 603 646 l 607 646 l 613 704 l 743 704 l 743 0 l 608 0 l 607 65 l 603 65 l 518 0 m 235 239 l 313 158 l 489 158 l 589 236 l 589 468 l 483 547 l 313 547 l 235 467 l 235 239 m 186 826 l 186 968 l 622 968 l 622 826 l 186 826 z "},"ą":{"ha":833,"x_min":76,"x_max":801,"o":"m 669 -172 l 692 -147 l 801 -197 l 718 -290 l 575 -290 l 494 -206 l 494 -75 l 608 17 l 607 65 l 603 65 l 518 0 l 244 0 l 76 172 l 76 533 l 244 704 l 525 704 l 603 646 l 607 646 l 613 704 l 743 704 l 743 0 l 614 -114 l 614 -153 l 635 -172 l 669 -172 m 489 158 l 589 236 l 589 468 l 483 547 l 313 547 l 235 467 l 235 239 l 313 158 l 489 158 z "},"å":{"ha":833,"x_min":76,"x_max":743,"o":"m 518 0 l 244 0 l 76 172 l 76 533 l 244 704 l 525 704 l 603 646 l 607 646 l 613 704 l 743 704 l 743 0 l 608 0 l 607 65 l 603 65 l 518 0 m 235 239 l 313 158 l 489 158 l 589 236 l 589 468 l 483 547 l 313 547 l 235 467 l 235 239 m 476 764 l 333 764 l 257 840 l 257 965 l 333 1042 l 476 1042 l 551 965 l 551 840 l 476 764 m 357 883 l 376 863 l 433 863 l 453 883 l 453 922 l 433 942 l 376 942 l 357 922 l 357 883 z "},"ã":{"ha":833,"x_min":76,"x_max":743,"o":"m 518 0 l 244 0 l 76 172 l 76 533 l 244 704 l 525 704 l 603 646 l 607 646 l 613 704 l 743 704 l 743 0 l 608 0 l 607 65 l 603 65 l 518 0 m 235 239 l 313 158 l 489 158 l 589 236 l 589 468 l 483 547 l 313 547 l 235 467 l 235 239 m 288 801 l 185 801 l 185 914 l 256 988 l 390 988 l 454 935 l 489 935 l 521 982 l 624 982 l 624 871 l 553 801 l 418 801 l 356 854 l 321 854 l 288 801 z "},"æ":{"ha":833,"x_min":29,"x_max":811,"o":"m 371 0 l 179 0 l 57 149 l 57 306 l 189 439 l 328 440 l 376 393 l 376 497 l 314 564 l 203 564 l 121 485 l 29 586 l 163 704 l 371 704 l 435 621 l 440 621 l 514 704 l 700 704 l 797 551 l 797 303 l 514 303 l 514 207 l 565 140 l 649 140 l 703 218 l 811 151 l 700 0 l 510 0 l 440 82 l 435 82 l 371 0 m 514 515 l 514 426 l 661 426 l 661 515 l 625 564 l 565 564 l 514 515 m 193 194 l 242 135 l 307 135 l 376 196 l 376 251 l 307 304 l 242 304 l 193 251 l 193 194 z "},"ć":{"ha":833,"x_min":76,"x_max":764,"o":"m 624 0 l 244 0 l 76 172 l 76 533 l 244 704 l 624 704 l 764 565 l 647 456 l 556 544 l 313 544 l 236 467 l 236 239 l 313 160 l 556 160 l 647 249 l 764 139 l 624 0 m 469 792 l 381 792 l 381 874 l 489 1051 l 590 1051 l 590 949 l 469 792 z "},"č":{"ha":833,"x_min":76,"x_max":764,"o":"m 624 0 l 244 0 l 76 172 l 76 533 l 244 704 l 624 704 l 764 565 l 647 456 l 556 544 l 313 544 l 236 467 l 236 239 l 313 160 l 556 160 l 647 249 l 764 139 l 624 0 m 199 915 l 199 1029 l 303 1029 l 415 932 l 436 932 l 538 1029 l 653 1029 l 653 931 l 474 792 l 378 792 l 199 915 z "},"ç":{"ha":833,"x_min":76,"x_max":764,"o":"m 313 160 l 556 160 l 647 249 l 764 139 l 624 0 l 481 0 l 465 -25 l 469 -32 l 514 -32 l 583 -103 l 583 -226 l 501 -310 l 353 -310 l 283 -233 l 376 -167 l 403 -190 l 447 -190 l 465 -175 l 465 -149 l 447 -131 l 397 -131 l 335 -47 l 356 0 l 244 0 l 76 172 l 76 533 l 244 704 l 624 704 l 764 565 l 647 456 l 556 544 l 313 544 l 236 467 l 236 239 l 313 160 z "},"ĉ":{"ha":833,"x_min":76,"x_max":764,"o":"m 624 0 l 244 0 l 76 172 l 76 533 l 244 704 l 624 704 l 764 565 l 647 456 l 556 544 l 313 544 l 236 467 l 236 239 l 313 160 l 556 160 l 647 249 l 764 139 l 624 0 m 306 789 l 201 789 l 201 893 l 385 1026 l 471 1026 l 656 888 l 656 789 l 540 789 l 435 892 l 421 892 l 306 789 z "},"ċ":{"ha":833,"x_min":76,"x_max":764,"o":"m 624 0 l 244 0 l 76 172 l 76 533 l 244 704 l 624 704 l 764 565 l 647 456 l 556 544 l 313 544 l 236 467 l 236 239 l 313 160 l 556 160 l 647 249 l 764 139 l 624 0 m 513 825 l 338 825 l 338 1000 l 513 1000 l 513 825 z "},"ð":{"ha":833,"x_min":76,"x_max":757,"o":"m 671 888 l 647 860 l 757 707 l 757 172 l 589 0 l 244 0 l 76 172 l 76 443 l 244 615 l 506 615 l 589 531 l 599 531 l 599 661 l 547 738 l 481 657 l 389 657 l 389 738 l 411 764 l 181 764 l 181 908 l 529 908 l 578 968 l 671 968 l 671 888 m 521 158 l 599 239 l 599 376 l 506 457 l 313 457 l 235 376 l 235 239 l 313 158 l 521 158 z "},"ď":{"ha":833,"x_min":76,"x_max":943,"o":"m 514 0 l 244 0 l 76 172 l 76 533 l 244 704 l 519 704 l 583 651 l 588 651 l 582 743 l 582 968 l 743 968 l 743 0 l 604 0 l 603 71 l 597 71 l 514 0 m 235 239 l 313 160 l 489 160 l 589 236 l 589 468 l 483 544 l 313 544 l 235 467 l 235 239 m 918 765 l 800 765 l 800 1011 l 943 1011 l 918 765 z "},"đ":{"ha":833,"x_min":76,"x_max":867,"o":"m 743 883 l 867 883 l 867 750 l 743 750 l 743 0 l 604 0 l 603 71 l 597 71 l 514 0 l 244 0 l 76 172 l 76 533 l 244 704 l 519 704 l 583 651 l 588 651 l 582 743 l 582 750 l 461 750 l 461 883 l 582 883 l 582 968 l 743 968 l 743 883 m 489 160 l 589 236 l 589 468 l 483 544 l 313 544 l 235 467 l 235 239 l 313 160 l 489 160 z "},"é":{"ha":833,"x_min":76,"x_max":764,"o":"m 621 0 l 244 0 l 76 172 l 76 533 l 244 704 l 596 704 l 764 533 l 764 294 l 231 294 l 231 229 l 304 158 l 551 158 l 633 239 l 747 131 l 621 0 m 231 476 l 231 425 l 610 425 l 610 476 l 538 547 l 304 547 l 231 476 m 464 792 l 375 792 l 375 874 l 483 1051 l 585 1051 l 585 949 l 464 792 z "},"ĕ":{"ha":833,"x_min":76,"x_max":764,"o":"m 621 0 l 244 0 l 76 172 l 76 533 l 244 704 l 596 704 l 764 533 l 764 294 l 231 294 l 231 229 l 304 158 l 551 158 l 633 239 l 747 131 l 621 0 m 231 476 l 231 425 l 610 425 l 610 476 l 538 547 l 304 547 l 231 476 m 563 792 l 283 792 l 192 885 l 192 1019 l 333 1019 l 333 947 l 360 922 l 486 922 l 513 949 l 513 1019 l 654 1019 l 654 885 l 563 792 z "},"ě":{"ha":833,"x_min":76,"x_max":764,"o":"m 621 0 l 244 0 l 76 172 l 76 533 l 244 704 l 596 704 l 764 533 l 764 294 l 231 294 l 231 229 l 304 158 l 551 158 l 633 239 l 747 131 l 621 0 m 231 476 l 231 425 l 610 425 l 610 476 l 538 547 l 304 547 l 231 476 m 193 915 l 193 1029 l 297 1029 l 410 932 l 431 932 l 532 1029 l 647 1029 l 647 931 l 468 792 l 372 792 l 193 915 z "},"ê":{"ha":833,"x_min":76,"x_max":764,"o":"m 621 0 l 244 0 l 76 172 l 76 533 l 244 704 l 596 704 l 764 533 l 764 294 l 231 294 l 231 229 l 304 158 l 551 158 l 633 239 l 747 131 l 621 0 m 231 476 l 231 425 l 610 425 l 610 476 l 538 547 l 304 547 l 231 476 m 300 789 l 196 789 l 196 893 l 379 1026 l 465 1026 l 650 888 l 650 789 l 535 789 l 429 892 l 415 892 l 300 789 z "},"ë":{"ha":833,"x_min":76,"x_max":764,"o":"m 621 0 l 244 0 l 76 172 l 76 533 l 244 704 l 596 704 l 764 533 l 764 294 l 231 294 l 231 229 l 304 158 l 551 158 l 633 239 l 747 131 l 621 0 m 231 476 l 231 425 l 610 425 l 610 476 l 538 547 l 304 547 l 231 476 m 368 832 l 213 832 l 213 983 l 368 983 l 368 832 m 632 832 l 476 832 l 476 983 l 632 983 l 632 832 z "},"ė":{"ha":833,"x_min":76,"x_max":764,"o":"m 621 0 l 244 0 l 76 172 l 76 533 l 244 704 l 596 704 l 764 533 l 764 294 l 231 294 l 231 229 l 304 158 l 551 158 l 633 239 l 747 131 l 621 0 m 231 476 l 231 425 l 610 425 l 610 476 l 538 547 l 304 547 l 231 476 m 508 825 l 333 825 l 333 1000 l 508 1000 l 508 825 z "},"è":{"ha":833,"x_min":76,"x_max":764,"o":"m 621 0 l 244 0 l 76 172 l 76 533 l 244 704 l 596 704 l 764 533 l 764 294 l 231 294 l 231 229 l 304 158 l 551 158 l 633 239 l 747 131 l 621 0 m 231 476 l 231 425 l 610 425 l 610 476 l 538 547 l 304 547 l 231 476 m 465 874 l 465 792 l 376 792 l 256 949 l 256 1051 l 357 1051 l 465 874 z "},"ē":{"ha":833,"x_min":76,"x_max":764,"o":"m 621 0 l 244 0 l 76 172 l 76 533 l 244 704 l 596 704 l 764 533 l 764 294 l 231 294 l 231 229 l 304 158 l 551 158 l 633 239 l 747 131 l 621 0 m 231 476 l 231 425 l 610 425 l 610 476 l 538 547 l 304 547 l 231 476 m 204 826 l 204 968 l 640 968 l 640 826 l 204 826 z "},"ę":{"ha":833,"x_min":76,"x_max":764,"o":"m 764 533 l 764 294 l 231 294 l 231 229 l 304 158 l 551 158 l 633 239 l 747 131 l 621 0 l 499 0 l 369 -114 l 369 -153 l 390 -172 l 425 -172 l 447 -147 l 557 -197 l 474 -290 l 331 -290 l 250 -206 l 250 -75 l 343 0 l 244 0 l 76 172 l 76 533 l 244 704 l 596 704 l 764 533 m 304 547 l 231 476 l 231 425 l 610 425 l 610 476 l 538 547 l 304 547 z "},"ẽ":{"ha":833,"x_min":76,"x_max":764,"o":"m 621 0 l 244 0 l 76 172 l 76 533 l 244 704 l 596 704 l 764 533 l 764 294 l 231 294 l 231 229 l 304 158 l 551 158 l 633 239 l 747 131 l 621 0 m 231 476 l 231 425 l 610 425 l 610 476 l 538 547 l 304 547 l 231 476 m 306 801 l 203 801 l 203 914 l 274 988 l 408 988 l 472 935 l 507 935 l 539 982 l 642 982 l 642 871 l 571 801 l 436 801 l 374 854 l 339 854 l 306 801 z "},"ə":{"ha":833,"x_min":69,"x_max":757,"o":"m 213 704 l 589 704 l 757 532 l 757 171 l 589 0 l 238 0 l 69 171 l 69 410 l 603 410 l 603 475 l 529 546 l 282 546 l 200 465 l 86 574 l 213 704 m 603 228 l 603 279 l 224 279 l 224 228 l 296 157 l 529 157 l 603 228 z "},"ǵ":{"ha":833,"x_min":76,"x_max":743,"o":"m 244 14 l 76 185 l 76 532 l 244 704 l 526 704 l 589 651 l 593 651 l 597 704 l 743 704 l 743 -292 l 119 -292 l 119 -132 l 589 -132 l 589 74 l 582 74 l 514 14 l 244 14 m 235 467 l 235 251 l 313 174 l 483 174 l 589 250 l 589 468 l 489 544 l 313 544 l 235 467 m 439 792 l 350 792 l 350 874 l 458 1051 l 560 1051 l 560 949 l 439 792 z "},"ğ":{"ha":833,"x_min":76,"x_max":743,"o":"m 244 14 l 76 185 l 76 532 l 244 704 l 526 704 l 589 651 l 593 651 l 597 704 l 743 704 l 743 -292 l 119 -292 l 119 -132 l 589 -132 l 589 74 l 582 74 l 514 14 l 244 14 m 235 467 l 235 251 l 313 174 l 483 174 l 589 250 l 589 468 l 489 544 l 313 544 l 235 467 m 538 792 l 258 792 l 167 885 l 167 1019 l 308 1019 l 308 947 l 335 922 l 461 922 l 488 949 l 488 1019 l 629 1019 l 629 885 l 538 792 z "},"ĝ":{"ha":833,"x_min":76,"x_max":743,"o":"m 244 14 l 76 185 l 76 532 l 244 704 l 526 704 l 589 651 l 593 651 l 597 704 l 743 704 l 743 -292 l 119 -292 l 119 -132 l 589 -132 l 589 74 l 582 74 l 514 14 l 244 14 m 235 467 l 235 251 l 313 174 l 483 174 l 589 250 l 589 468 l 489 544 l 313 544 l 235 467 m 275 789 l 171 789 l 171 893 l 354 1026 l 440 1026 l 625 888 l 625 789 l 510 789 l 404 892 l 390 892 l 275 789 z "},"ģ":{"ha":833,"x_min":76,"x_max":743,"o":"m 244 14 l 76 185 l 76 532 l 244 704 l 526 704 l 589 651 l 593 651 l 597 704 l 743 704 l 743 -292 l 119 -292 l 119 -132 l 589 -132 l 589 74 l 582 74 l 514 14 l 244 14 m 235 467 l 235 251 l 313 174 l 483 174 l 589 250 l 589 468 l 489 544 l 313 544 l 235 467 m 472 910 l 524 910 l 524 765 l 361 765 l 361 910 l 428 1097 l 513 1097 l 499 950 l 472 910 z "},"ġ":{"ha":833,"x_min":76,"x_max":743,"o":"m 244 14 l 76 185 l 76 532 l 244 704 l 526 704 l 589 651 l 593 651 l 597 704 l 743 704 l 743 -292 l 119 -292 l 119 -132 l 589 -132 l 589 74 l 582 74 l 514 14 l 244 14 m 235 467 l 235 251 l 313 174 l 483 174 l 589 250 l 589 468 l 489 544 l 313 544 l 235 467 m 483 825 l 308 825 l 308 1000 l 483 1000 l 483 825 z "},"ħ":{"ha":833,"x_min":-40,"x_max":743,"o":"m 344 704 l 628 704 l 743 514 l 743 0 l 583 0 l 583 468 l 538 544 l 382 544 l 250 453 l 250 0 l 90 0 l 90 750 l -40 750 l -40 883 l 90 883 l 90 968 l 239 968 l 239 883 l 365 883 l 365 750 l 239 750 l 239 632 l 247 632 l 344 704 z "},"ĥ":{"ha":833,"x_min":-68,"x_max":743,"o":"m 250 0 l 90 0 l 90 968 l 239 968 l 239 632 l 247 632 l 344 704 l 628 704 l 743 514 l 743 0 l 583 0 l 583 468 l 538 544 l 382 544 l 250 453 l 250 0 z "},"ı":{"ha":833,"x_min":68,"x_max":765,"o":"m 765 0 l 68 0 l 68 160 l 363 160 l 363 542 l 82 542 l 82 701 l 525 701 l 525 160 l 765 160 l 765 0 z "},"í":{"ha":833,"x_min":68,"x_max":765,"o":"m 765 0 l 68 0 l 68 160 l 363 160 l 363 542 l 82 542 l 82 701 l 525 701 l 525 160 l 765 160 l 765 0 m 472 792 l 383 792 l 383 874 l 492 1051 l 593 1051 l 593 949 l 472 792 z "},"ĭ":{"ha":833,"x_min":68,"x_max":765,"o":"m 765 0 l 68 0 l 68 160 l 363 160 l 363 542 l 82 542 l 82 701 l 525 701 l 525 160 l 765 160 l 765 0 m 571 792 l 292 792 l 200 885 l 200 1019 l 342 1019 l 342 947 l 368 922 l 494 922 l 521 949 l 521 1019 l 663 1019 l 663 885 l 571 792 z "},"î":{"ha":833,"x_min":68,"x_max":765,"o":"m 765 0 l 68 0 l 68 160 l 363 160 l 363 542 l 82 542 l 82 701 l 525 701 l 525 160 l 765 160 l 765 0 m 308 789 l 204 789 l 204 893 l 388 1026 l 474 1026 l 658 888 l 658 789 l 543 789 l 438 892 l 424 892 l 308 789 z "},"ï":{"ha":833,"x_min":68,"x_max":765,"o":"m 765 0 l 68 0 l 68 160 l 363 160 l 363 542 l 82 542 l 82 701 l 525 701 l 525 160 l 765 160 l 765 0 m 376 832 l 221 832 l 221 983 l 376 983 l 376 832 m 640 832 l 485 832 l 485 983 l 640 983 l 640 832 z "},"ì":{"ha":833,"x_min":68,"x_max":765,"o":"m 765 0 l 68 0 l 68 160 l 363 160 l 363 542 l 82 542 l 82 701 l 525 701 l 525 160 l 765 160 l 765 0 m 474 874 l 474 792 l 385 792 l 264 949 l 264 1051 l 365 1051 l 474 874 z "},"ĳ":{"ha":833,"x_min":67,"x_max":771,"o":"m 442 808 l 267 808 l 267 983 l 442 983 l 442 808 m 771 808 l 594 808 l 594 983 l 771 983 l 771 808 m 599 -287 l 67 -287 l 67 -128 l 533 -128 l 610 -47 l 610 542 l 453 542 l 453 0 l 67 0 l 67 160 l 290 160 l 290 542 l 67 542 l 67 701 l 768 701 l 768 -114 l 599 -287 z "},"ī":{"ha":833,"x_min":68,"x_max":765,"o":"m 765 0 l 68 0 l 68 160 l 363 160 l 363 542 l 82 542 l 82 701 l 525 701 l 525 160 l 765 160 l 765 0 m 213 826 l 213 968 l 649 968 l 649 826 l 213 826 z "},"į":{"ha":833,"x_min":68,"x_max":765,"o":"m 342 1000 l 517 1000 l 517 825 l 342 825 l 342 1000 m 765 0 l 494 0 l 365 -114 l 365 -153 l 386 -172 l 421 -172 l 443 -147 l 553 -197 l 469 -290 l 326 -290 l 246 -206 l 246 -75 l 339 0 l 68 0 l 68 160 l 363 160 l 363 542 l 82 542 l 82 701 l 525 701 l 525 160 l 765 160 l 765 0 z "},"ĩ":{"ha":833,"x_min":68,"x_max":765,"o":"m 765 0 l 68 0 l 68 160 l 363 160 l 363 542 l 82 542 l 82 701 l 525 701 l 525 160 l 765 160 l 765 0 m 314 801 l 211 801 l 211 914 l 282 988 l 417 988 l 481 935 l 515 935 l 547 982 l 650 982 l 650 871 l 579 801 l 444 801 l 382 854 l 347 854 l 314 801 z "},"ȷ":{"ha":833,"x_min":90,"x_max":751,"o":"m 582 -287 l 90 -287 l 90 -128 l 515 -128 l 593 -47 l 593 542 l 199 542 l 199 701 l 751 701 l 751 -114 l 582 -287 z "},"ĵ":{"ha":833,"x_min":90,"x_max":893,"o":"m 582 -287 l 90 -287 l 90 -128 l 515 -128 l 593 -47 l 593 542 l 199 542 l 199 701 l 751 701 l 751 -114 l 582 -287 m 543 789 l 439 789 l 439 893 l 622 1026 l 708 1026 l 893 888 l 893 789 l 778 789 l 672 892 l 658 892 l 543 789 z "},"ķ":{"ha":833,"x_min":90,"x_max":774,"o":"m 713 588 l 493 407 l 774 117 l 774 0 l 657 0 l 371 308 l 251 210 l 251 3 l 90 3 l 90 968 l 251 968 l 251 414 l 596 704 l 713 704 l 713 588 m 399 -214 l 347 -214 l 347 -69 l 510 -69 l 510 -214 l 443 -401 l 358 -401 l 372 -254 l 399 -214 z "},"ĺ":{"ha":833,"x_min":53,"x_max":781,"o":"m 781 0 l 53 0 l 53 171 l 358 171 l 358 806 l 75 806 l 75 965 l 521 965 l 521 171 l 781 171 l 781 0 z "},"ľ":{"ha":833,"x_min":53,"x_max":781,"o":"m 781 0 l 53 0 l 53 171 l 358 171 l 358 806 l 75 806 l 75 965 l 521 965 l 521 171 l 781 171 l 781 0 m 722 765 l 604 765 l 604 1011 l 747 1011 l 722 765 z "},"ļ":{"ha":833,"x_min":53,"x_max":781,"o":"m 781 0 l 53 0 l 53 171 l 358 171 l 358 806 l 75 806 l 75 965 l 521 965 l 521 171 l 781 171 l 781 0 m 400 -214 l 349 -214 l 349 -69 l 511 -69 l 511 -214 l 444 -401 l 360 -401 l 374 -254 l 400 -214 z "},"ŀ":{"ha":833,"x_min":53,"x_max":781,"o":"m 781 0 l 53 0 l 53 171 l 358 171 l 358 806 l 75 806 l 75 965 l 521 965 l 521 171 l 781 171 l 781 0 z "},"ł":{"ha":833,"x_min":53,"x_max":781,"o":"m 521 432 l 521 171 l 781 171 l 781 0 l 53 0 l 53 171 l 358 171 l 358 390 l 265 365 l 169 365 l 169 503 l 358 553 l 358 806 l 75 806 l 75 965 l 521 965 l 521 594 l 588 613 l 683 613 l 683 475 l 521 432 z "},"ń":{"ha":833,"x_min":90,"x_max":743,"o":"m 250 0 l 90 0 l 90 704 l 236 704 l 239 632 l 246 632 l 344 704 l 628 704 l 743 514 l 743 0 l 583 0 l 583 468 l 538 544 l 382 544 l 250 453 l 250 0 m 476 792 l 388 792 l 388 874 l 496 1051 l 597 1051 l 597 949 l 476 792 z "},"ň":{"ha":833,"x_min":90,"x_max":743,"o":"m 250 0 l 90 0 l 90 704 l 236 704 l 239 632 l 246 632 l 344 704 l 628 704 l 743 514 l 743 0 l 583 0 l 583 468 l 538 544 l 382 544 l 250 453 l 250 0 m 206 915 l 206 1029 l 310 1029 l 422 932 l 443 932 l 544 1029 l 660 1029 l 660 931 l 481 792 l 385 792 l 206 915 z "},"ņ":{"ha":833,"x_min":90,"x_max":743,"o":"m 250 0 l 90 0 l 90 704 l 236 704 l 239 632 l 246 632 l 344 704 l 628 704 l 743 514 l 743 0 l 583 0 l 583 468 l 538 544 l 382 544 l 250 453 l 250 0 m 400 -214 l 349 -214 l 349 -69 l 511 -69 l 511 -214 l 444 -401 l 360 -401 l 374 -254 l 400 -214 z "},"ŋ":{"ha":833,"x_min":90,"x_max":743,"o":"m 628 -265 l 397 -265 l 397 -104 l 538 -104 l 583 -24 l 583 468 l 538 544 l 382 544 l 250 453 l 250 0 l 90 0 l 90 704 l 236 704 l 239 632 l 246 632 l 344 704 l 628 704 l 743 514 l 743 -64 l 628 -265 z "},"ñ":{"ha":833,"x_min":90,"x_max":743,"o":"m 250 0 l 90 0 l 90 704 l 236 704 l 239 632 l 246 632 l 344 704 l 628 704 l 743 514 l 743 0 l 583 0 l 583 468 l 538 544 l 382 544 l 250 453 l 250 0 m 318 801 l 215 801 l 215 914 l 286 988 l 421 988 l 485 935 l 519 935 l 551 982 l 654 982 l 654 871 l 583 801 l 449 801 l 386 854 l 351 854 l 318 801 z "},"ó":{"ha":833,"x_min":76,"x_max":757,"o":"m 589 0 l 244 0 l 76 172 l 76 533 l 244 704 l 589 704 l 757 533 l 757 172 l 589 0 m 236 239 l 313 160 l 521 160 l 597 239 l 597 467 l 521 544 l 313 544 l 236 467 l 236 239 m 458 792 l 369 792 l 369 874 l 478 1051 l 579 1051 l 579 949 l 458 792 z "},"ŏ":{"ha":833,"x_min":76,"x_max":757,"o":"m 589 0 l 244 0 l 76 172 l 76 533 l 244 704 l 589 704 l 757 533 l 757 172 l 589 0 m 236 239 l 313 160 l 521 160 l 597 239 l 597 467 l 521 544 l 313 544 l 236 467 l 236 239 m 557 792 l 278 792 l 186 885 l 186 1019 l 328 1019 l 328 947 l 354 922 l 481 922 l 507 949 l 507 1019 l 649 1019 l 649 885 l 557 792 z "},"ô":{"ha":833,"x_min":76,"x_max":757,"o":"m 589 0 l 244 0 l 76 172 l 76 533 l 244 704 l 589 704 l 757 533 l 757 172 l 589 0 m 236 239 l 313 160 l 521 160 l 597 239 l 597 467 l 521 544 l 313 544 l 236 467 l 236 239 m 294 789 l 190 789 l 190 893 l 374 1026 l 460 1026 l 644 888 l 644 789 l 529 789 l 424 892 l 410 892 l 294 789 z "},"ö":{"ha":833,"x_min":76,"x_max":757,"o":"m 589 0 l 244 0 l 76 172 l 76 533 l 244 704 l 589 704 l 757 533 l 757 172 l 589 0 m 236 239 l 313 160 l 521 160 l 597 239 l 597 467 l 521 544 l 313 544 l 236 467 l 236 239 m 363 832 l 207 832 l 207 983 l 363 983 l 363 832 m 626 832 l 471 832 l 471 983 l 626 983 l 626 832 z "},"ò":{"ha":833,"x_min":76,"x_max":757,"o":"m 589 0 l 244 0 l 76 172 l 76 533 l 244 704 l 589 704 l 757 533 l 757 172 l 589 0 m 236 239 l 313 160 l 521 160 l 597 239 l 597 467 l 521 544 l 313 544 l 236 467 l 236 239 m 460 874 l 460 792 l 371 792 l 250 949 l 250 1051 l 351 1051 l 460 874 z "},"ő":{"ha":833,"x_min":76,"x_max":757,"o":"m 589 0 l 244 0 l 76 172 l 76 533 l 244 704 l 589 704 l 757 533 l 757 172 l 589 0 m 236 239 l 313 160 l 521 160 l 597 239 l 597 467 l 521 544 l 313 544 l 236 467 l 236 239 m 324 792 l 235 792 l 235 874 l 343 1051 l 444 1051 l 444 949 l 324 792 m 569 792 l 481 792 l 481 874 l 589 1051 l 690 1051 l 690 949 l 569 792 z "},"ō":{"ha":833,"x_min":76,"x_max":757,"o":"m 589 0 l 244 0 l 76 172 l 76 533 l 244 704 l 589 704 l 757 533 l 757 172 l 589 0 m 236 239 l 313 160 l 521 160 l 597 239 l 597 467 l 521 544 l 313 544 l 236 467 l 236 239 m 199 826 l 199 968 l 635 968 l 635 826 l 199 826 z "},"ø":{"ha":833,"x_min":76,"x_max":757,"o":"m 749 633 l 703 589 l 757 533 l 757 172 l 589 0 l 244 0 l 214 31 l 171 -22 l 76 -22 l 76 72 l 126 122 l 76 172 l 76 533 l 244 704 l 589 704 l 615 678 l 656 726 l 749 726 l 749 633 m 503 544 l 313 544 l 236 467 l 236 239 l 503 544 m 521 160 l 597 239 l 597 467 l 592 472 l 321 160 l 521 160 z "},"õ":{"ha":833,"x_min":76,"x_max":757,"o":"m 589 0 l 244 0 l 76 172 l 76 533 l 244 704 l 589 704 l 757 533 l 757 172 l 589 0 m 236 239 l 313 160 l 521 160 l 597 239 l 597 467 l 521 544 l 313 544 l 236 467 l 236 239 m 300 801 l 197 801 l 197 914 l 268 988 l 403 988 l 467 935 l 501 935 l 533 982 l 636 982 l 636 871 l 565 801 l 431 801 l 368 854 l 333 854 l 300 801 z "},"œ":{"ha":833,"x_min":39,"x_max":794,"o":"m 357 0 l 161 0 l 39 150 l 39 557 l 161 704 l 357 704 l 419 625 l 426 625 l 497 704 l 683 704 l 781 554 l 781 303 l 497 303 l 497 207 l 549 140 l 632 140 l 688 218 l 794 151 l 683 0 l 493 0 l 424 76 l 415 76 l 357 0 m 179 207 l 233 140 l 293 140 l 349 207 l 349 496 l 293 564 l 233 564 l 179 496 l 179 207 m 497 515 l 497 426 l 646 426 l 646 515 l 610 564 l 549 564 l 497 515 z "},"ŕ":{"ha":833,"x_min":60,"x_max":774,"o":"m 683 0 l 60 0 l 60 160 l 225 160 l 225 544 l 60 544 l 60 704 l 347 704 l 347 622 l 356 622 l 464 704 l 774 704 l 774 544 l 511 544 l 385 444 l 385 160 l 683 160 l 683 0 m 447 792 l 358 792 l 358 874 l 467 1051 l 568 1051 l 568 949 l 447 792 z "},"ř":{"ha":833,"x_min":60,"x_max":774,"o":"m 683 0 l 60 0 l 60 160 l 225 160 l 225 544 l 60 544 l 60 704 l 347 704 l 347 622 l 356 622 l 464 704 l 774 704 l 774 544 l 511 544 l 385 444 l 385 160 l 683 160 l 683 0 m 176 915 l 176 1029 l 281 1029 l 393 932 l 414 932 l 515 1029 l 631 1029 l 631 931 l 451 792 l 356 792 l 176 915 z "},"ŗ":{"ha":833,"x_min":60,"x_max":774,"o":"m 683 0 l 60 0 l 60 160 l 225 160 l 225 544 l 60 544 l 60 704 l 347 704 l 347 622 l 356 622 l 464 704 l 774 704 l 774 544 l 511 544 l 385 444 l 385 160 l 683 160 l 683 0 m 371 -214 l 319 -214 l 319 -69 l 482 -69 l 482 -214 l 415 -401 l 331 -401 l 344 -254 l 371 -214 z "},"ś":{"ha":833,"x_min":76,"x_max":757,"o":"m 594 0 l 243 0 l 76 129 l 76 246 l 238 246 l 238 200 l 301 154 l 535 154 l 596 200 l 596 247 l 535 290 l 239 290 l 81 408 l 81 575 l 243 704 l 594 704 l 757 575 l 757 469 l 596 469 l 596 503 l 533 550 l 303 550 l 242 503 l 242 467 l 303 421 l 597 421 l 757 321 l 757 129 l 594 0 m 461 792 l 372 792 l 372 874 l 481 1051 l 582 1051 l 582 949 l 461 792 z "},"š":{"ha":833,"x_min":76,"x_max":757,"o":"m 594 0 l 243 0 l 76 129 l 76 246 l 238 246 l 238 200 l 301 154 l 535 154 l 596 200 l 596 247 l 535 290 l 239 290 l 81 408 l 81 575 l 243 704 l 594 704 l 757 575 l 757 469 l 596 469 l 596 503 l 533 550 l 303 550 l 242 503 l 242 467 l 303 421 l 597 421 l 757 321 l 757 129 l 594 0 m 190 915 l 190 1029 l 294 1029 l 407 932 l 428 932 l 529 1029 l 644 1029 l 644 931 l 465 792 l 369 792 l 190 915 z "},"ş":{"ha":833,"x_min":76,"x_max":757,"o":"m 757 575 l 757 469 l 596 469 l 596 503 l 533 550 l 303 550 l 242 503 l 242 467 l 303 421 l 597 421 l 757 321 l 757 129 l 594 0 l 475 0 l 460 -25 l 464 -32 l 508 -32 l 578 -103 l 578 -226 l 496 -310 l 347 -310 l 278 -233 l 371 -167 l 397 -190 l 442 -190 l 460 -175 l 460 -149 l 442 -131 l 392 -131 l 329 -47 l 350 0 l 243 0 l 76 129 l 76 246 l 238 246 l 238 200 l 301 154 l 535 154 l 596 200 l 596 247 l 535 290 l 239 290 l 81 408 l 81 575 l 243 704 l 594 704 l 757 575 z "},"ŝ":{"ha":833,"x_min":76,"x_max":757,"o":"m 594 0 l 243 0 l 76 129 l 76 246 l 238 246 l 238 200 l 301 154 l 535 154 l 596 200 l 596 247 l 535 290 l 239 290 l 81 408 l 81 575 l 243 704 l 594 704 l 757 575 l 757 469 l 596 469 l 596 503 l 533 550 l 303 550 l 242 503 l 242 467 l 303 421 l 597 421 l 757 321 l 757 129 l 594 0 m 297 789 l 193 789 l 193 893 l 376 1026 l 463 1026 l 647 888 l 647 789 l 532 789 l 426 892 l 413 892 l 297 789 z "},"ș":{"ha":833,"x_min":76,"x_max":757,"o":"m 594 0 l 243 0 l 76 129 l 76 246 l 238 246 l 238 200 l 301 154 l 535 154 l 596 200 l 596 247 l 535 290 l 239 290 l 81 408 l 81 575 l 243 704 l 594 704 l 757 575 l 757 469 l 596 469 l 596 503 l 533 550 l 303 550 l 242 503 l 242 467 l 303 421 l 597 421 l 757 321 l 757 129 l 594 0 m 392 -214 l 340 -214 l 340 -69 l 503 -69 l 503 -214 l 436 -401 l 351 -401 l 365 -254 l 392 -214 z "},"ß":{"ha":833,"x_min":90,"x_max":774,"o":"m 249 0 l 90 0 l 90 744 l 264 917 l 589 917 l 760 744 l 760 571 l 653 474 l 653 465 l 774 363 l 774 168 l 593 0 l 324 0 l 324 158 l 533 158 l 617 238 l 617 308 l 532 390 l 324 390 l 324 543 l 521 543 l 603 622 l 603 686 l 532 758 l 318 758 l 249 686 l 249 0 z "},"ŧ":{"ha":833,"x_min":56,"x_max":760,"o":"m 418 239 l 493 160 l 760 160 l 760 0 l 425 0 l 258 172 l 258 304 l 58 304 l 58 454 l 258 454 l 258 543 l 56 543 l 56 703 l 258 703 l 258 917 l 422 917 l 422 703 l 729 703 l 729 543 l 418 543 l 418 454 l 731 454 l 731 304 l 418 304 l 418 239 z "},"ť":{"ha":833,"x_min":56,"x_max":760,"o":"m 760 0 l 425 0 l 258 172 l 258 543 l 56 543 l 56 703 l 258 703 l 258 917 l 422 917 l 422 703 l 729 703 l 729 543 l 418 543 l 418 239 l 493 160 l 760 160 l 760 0 m 608 765 l 490 765 l 490 1011 l 633 1011 l 608 765 z "},"ţ":{"ha":833,"x_min":56,"x_max":760,"o":"m 760 160 l 760 0 l 619 0 l 604 -25 l 608 -32 l 653 -32 l 722 -103 l 722 -226 l 640 -310 l 492 -310 l 422 -233 l 515 -167 l 542 -190 l 586 -190 l 604 -175 l 604 -149 l 586 -131 l 536 -131 l 474 -47 l 494 0 l 425 0 l 258 172 l 258 543 l 56 543 l 56 703 l 258 703 l 258 917 l 422 917 l 422 703 l 729 703 l 729 543 l 418 543 l 418 239 l 493 160 l 760 160 z "},"ț":{"ha":833,"x_min":56,"x_max":760,"o":"m 760 0 l 425 0 l 258 172 l 258 543 l 56 543 l 56 703 l 258 703 l 258 917 l 422 917 l 422 703 l 729 703 l 729 543 l 418 543 l 418 239 l 493 160 l 760 160 l 760 0 m 536 -214 l 485 -214 l 485 -69 l 647 -69 l 647 -214 l 581 -401 l 496 -401 l 510 -254 l 536 -214 z "},"ú":{"ha":833,"x_min":90,"x_max":743,"o":"m 489 0 l 219 0 l 90 189 l 90 704 l 250 704 l 250 239 l 303 160 l 451 160 l 583 258 l 583 704 l 743 704 l 743 0 l 604 0 l 599 78 l 592 78 l 489 0 m 458 792 l 369 792 l 369 874 l 478 1051 l 579 1051 l 579 949 l 458 792 z "},"ʉ":{"ha":833,"x_min":26,"x_max":807,"o":"m 743 510 l 807 510 l 807 369 l 743 369 l 743 0 l 604 0 l 599 78 l 592 78 l 489 0 l 219 0 l 90 189 l 90 369 l 26 369 l 26 510 l 90 510 l 90 704 l 250 704 l 250 510 l 583 510 l 583 704 l 743 704 l 743 510 m 451 160 l 583 258 l 583 369 l 250 369 l 250 239 l 303 160 l 451 160 z "},"ŭ":{"ha":833,"x_min":90,"x_max":743,"o":"m 489 0 l 219 0 l 90 189 l 90 704 l 250 704 l 250 239 l 303 160 l 451 160 l 583 258 l 583 704 l 743 704 l 743 0 l 604 0 l 599 78 l 592 78 l 489 0 m 557 792 l 278 792 l 186 885 l 186 1019 l 328 1019 l 328 947 l 354 922 l 481 922 l 507 949 l 507 1019 l 649 1019 l 649 885 l 557 792 z "},"û":{"ha":833,"x_min":90,"x_max":743,"o":"m 489 0 l 219 0 l 90 189 l 90 704 l 250 704 l 250 239 l 303 160 l 451 160 l 583 258 l 583 704 l 743 704 l 743 0 l 604 0 l 599 78 l 592 78 l 489 0 m 294 789 l 190 789 l 190 893 l 374 1026 l 460 1026 l 644 888 l 644 789 l 529 789 l 424 892 l 410 892 l 294 789 z "},"ü":{"ha":833,"x_min":90,"x_max":743,"o":"m 489 0 l 219 0 l 90 189 l 90 704 l 250 704 l 250 239 l 303 160 l 451 160 l 583 258 l 583 704 l 743 704 l 743 0 l 604 0 l 599 78 l 592 78 l 489 0 m 363 832 l 207 832 l 207 983 l 363 983 l 363 832 m 626 832 l 471 832 l 471 983 l 626 983 l 626 832 z "},"ù":{"ha":833,"x_min":90,"x_max":743,"o":"m 489 0 l 219 0 l 90 189 l 90 704 l 250 704 l 250 239 l 303 160 l 451 160 l 583 258 l 583 704 l 743 704 l 743 0 l 604 0 l 599 78 l 592 78 l 489 0 m 460 874 l 460 792 l 371 792 l 250 949 l 250 1051 l 351 1051 l 460 874 z "},"ű":{"ha":833,"x_min":90,"x_max":743,"o":"m 489 0 l 219 0 l 90 189 l 90 704 l 250 704 l 250 239 l 303 160 l 451 160 l 583 258 l 583 704 l 743 704 l 743 0 l 604 0 l 599 78 l 592 78 l 489 0 m 324 792 l 235 792 l 235 874 l 343 1051 l 444 1051 l 444 949 l 324 792 m 569 792 l 481 792 l 481 874 l 589 1051 l 690 1051 l 690 949 l 569 792 z "},"ū":{"ha":833,"x_min":90,"x_max":743,"o":"m 489 0 l 219 0 l 90 189 l 90 704 l 250 704 l 250 239 l 303 160 l 451 160 l 583 258 l 583 704 l 743 704 l 743 0 l 604 0 l 599 78 l 592 78 l 489 0 m 199 826 l 199 968 l 635 968 l 635 826 l 199 826 z "},"ų":{"ha":833,"x_min":90,"x_max":801,"o":"m 669 -172 l 692 -147 l 801 -197 l 718 -290 l 575 -290 l 494 -206 l 494 -75 l 603 13 l 599 78 l 592 78 l 489 0 l 219 0 l 90 189 l 90 704 l 250 704 l 250 239 l 303 160 l 451 160 l 583 258 l 583 704 l 743 704 l 743 0 l 614 -114 l 614 -153 l 635 -172 l 669 -172 z "},"ů":{"ha":833,"x_min":90,"x_max":743,"o":"m 489 0 l 219 0 l 90 189 l 90 704 l 250 704 l 250 239 l 303 160 l 451 160 l 583 258 l 583 704 l 743 704 l 743 0 l 604 0 l 599 78 l 592 78 l 489 0 m 489 764 l 346 764 l 269 840 l 269 965 l 346 1042 l 489 1042 l 564 965 l 564 840 l 489 764 m 369 883 l 389 863 l 446 863 l 465 883 l 465 922 l 446 942 l 389 942 l 369 922 l 369 883 z "},"ũ":{"ha":833,"x_min":90,"x_max":743,"o":"m 489 0 l 219 0 l 90 189 l 90 704 l 250 704 l 250 239 l 303 160 l 451 160 l 583 258 l 583 704 l 743 704 l 743 0 l 604 0 l 599 78 l 592 78 l 489 0 m 300 801 l 197 801 l 197 914 l 268 988 l 403 988 l 467 935 l 501 935 l 533 982 l 636 982 l 636 871 l 565 801 l 431 801 l 368 854 l 333 854 l 300 801 z "},"ẃ":{"ha":833,"x_min":65,"x_max":768,"o":"m 279 0 l 122 0 l 65 704 l 229 704 l 246 263 l 253 263 l 347 489 l 488 489 l 582 263 l 589 263 l 604 704 l 768 704 l 711 0 l 554 0 l 421 290 l 414 290 l 279 0 m 447 792 l 358 792 l 358 874 l 467 1051 l 568 1051 l 568 949 l 447 792 z "},"ŵ":{"ha":833,"x_min":65,"x_max":768,"o":"m 279 0 l 122 0 l 65 704 l 229 704 l 246 263 l 253 263 l 347 489 l 488 489 l 582 263 l 589 263 l 604 704 l 768 704 l 711 0 l 554 0 l 421 290 l 414 290 l 279 0 m 283 789 l 179 789 l 179 893 l 363 1026 l 449 1026 l 633 888 l 633 789 l 518 789 l 413 892 l 399 892 l 283 789 z "},"ẅ":{"ha":833,"x_min":65,"x_max":768,"o":"m 279 0 l 122 0 l 65 704 l 229 704 l 246 263 l 253 263 l 347 489 l 488 489 l 582 263 l 589 263 l 604 704 l 768 704 l 711 0 l 554 0 l 421 290 l 414 290 l 279 0 m 351 832 l 196 832 l 196 983 l 351 983 l 351 832 m 615 832 l 460 832 l 460 983 l 615 983 l 615 832 z "},"ẁ":{"ha":833,"x_min":65,"x_max":768,"o":"m 279 0 l 122 0 l 65 704 l 229 704 l 246 263 l 253 263 l 347 489 l 488 489 l 582 263 l 589 263 l 604 704 l 768 704 l 711 0 l 554 0 l 421 290 l 414 290 l 279 0 m 449 874 l 449 792 l 360 792 l 239 949 l 239 1051 l 340 1051 l 449 874 z "},"ý":{"ha":833,"x_min":71,"x_max":771,"o":"m 385 -292 l 257 -292 l 257 -169 l 346 3 l 71 581 l 71 704 l 193 704 l 419 200 l 429 200 l 647 704 l 771 704 l 771 588 l 385 -292 m 467 792 l 378 792 l 378 874 l 486 1051 l 588 1051 l 588 949 l 467 792 z "},"ŷ":{"ha":833,"x_min":71,"x_max":771,"o":"m 385 -292 l 257 -292 l 257 -169 l 346 3 l 71 581 l 71 704 l 193 704 l 419 200 l 429 200 l 647 704 l 771 704 l 771 588 l 385 -292 m 303 789 l 199 789 l 199 893 l 382 1026 l 468 1026 l 653 888 l 653 789 l 538 789 l 432 892 l 418 892 l 303 789 z "},"ÿ":{"ha":833,"x_min":71,"x_max":771,"o":"m 385 -292 l 257 -292 l 257 -169 l 346 3 l 71 581 l 71 704 l 193 704 l 419 200 l 429 200 l 647 704 l 771 704 l 771 588 l 385 -292 m 371 832 l 215 832 l 215 983 l 371 983 l 371 832 m 635 832 l 479 832 l 479 983 l 635 983 l 635 832 z "},"ỳ":{"ha":833,"x_min":71,"x_max":771,"o":"m 385 -292 l 257 -292 l 257 -169 l 346 3 l 71 581 l 71 704 l 193 704 l 419 200 l 429 200 l 647 704 l 771 704 l 771 588 l 385 -292 m 468 874 l 468 792 l 379 792 l 258 949 l 258 1051 l 360 1051 l 468 874 z "},"ȳ":{"ha":833,"x_min":71,"x_max":771,"o":"m 385 -292 l 257 -292 l 257 -169 l 346 3 l 71 581 l 71 704 l 193 704 l 419 200 l 429 200 l 647 704 l 771 704 l 771 588 l 385 -292 m 207 826 l 207 968 l 643 968 l 643 826 l 207 826 z "},"ỹ":{"ha":833,"x_min":71,"x_max":771,"o":"m 385 -292 l 257 -292 l 257 -169 l 346 3 l 71 581 l 71 704 l 193 704 l 419 200 l 429 200 l 647 704 l 771 704 l 771 588 l 385 -292 m 308 801 l 206 801 l 206 914 l 276 988 l 411 988 l 475 935 l 510 935 l 542 982 l 644 982 l 644 871 l 574 801 l 439 801 l 376 854 l 342 854 l 308 801 z "},"ź":{"ha":833,"x_min":69,"x_max":771,"o":"m 771 0 l 69 0 l 69 103 l 514 544 l 96 544 l 96 704 l 767 704 l 767 578 l 360 160 l 771 160 l 771 0 m 463 792 l 374 792 l 374 874 l 482 1051 l 583 1051 l 583 949 l 463 792 z "},"ž":{"ha":833,"x_min":69,"x_max":771,"o":"m 771 0 l 69 0 l 69 103 l 514 544 l 96 544 l 96 704 l 767 704 l 767 578 l 360 160 l 771 160 l 771 0 m 192 915 l 192 1029 l 296 1029 l 408 932 l 429 932 l 531 1029 l 646 1029 l 646 931 l 467 792 l 371 792 l 192 915 z "},"ż":{"ha":833,"x_min":69,"x_max":771,"o":"m 771 0 l 69 0 l 69 103 l 514 544 l 96 544 l 96 704 l 767 704 l 767 578 l 360 160 l 771 160 l 771 0 m 507 825 l 332 825 l 332 1000 l 507 1000 l 507 825 z "},"ª":{"ha":833,"x_min":125,"x_max":528,"o":"m 390 556 l 217 556 l 125 650 l 125 768 l 219 851 l 375 851 l 428 822 l 428 907 l 167 907 l 167 1000 l 528 1000 l 528 556 l 454 556 l 446 594 l 440 594 l 390 556 m 228 689 l 264 651 l 363 651 l 424 689 l 424 725 l 363 756 l 264 756 l 228 725 l 228 689 z "},"º":{"ha":833,"x_min":125,"x_max":551,"o":"m 450 551 l 226 551 l 125 654 l 125 897 l 226 1000 l 450 1000 l 551 897 l 551 654 l 450 551 m 226 694 l 265 653 l 413 653 l 450 694 l 450 858 l 413 899 l 265 899 l 226 858 l 226 694 z "},"А":{"ha":833,"x_min":53,"x_max":781,"o":"m 322 917 l 511 917 l 781 118 l 781 0 l 646 0 l 585 185 l 249 185 l 188 0 l 53 0 l 53 118 l 322 917 m 410 672 l 299 335 l 535 335 l 422 672 l 410 672 z "},"Б":{"ha":833,"x_min":78,"x_max":793,"o":"m 631 0 l 78 0 l 78 915 l 754 917 l 754 756 l 238 756 l 238 590 l 631 590 l 793 424 l 793 167 l 631 0 m 238 431 l 238 160 l 565 160 l 633 232 l 633 358 l 565 431 l 238 431 z "},"В":{"ha":851,"x_min":94,"x_max":792,"o":"m 629 0 l 94 0 l 94 917 l 629 917 l 792 764 l 792 554 l 693 471 l 693 458 l 792 375 l 792 153 l 629 0 m 254 757 l 254 546 l 560 546 l 632 608 l 632 685 l 556 757 l 254 757 m 254 392 l 254 160 l 550 160 l 632 238 l 632 319 l 556 392 l 254 392 z "},"Г":{"ha":833,"x_min":76,"x_max":788,"o":"m 76 917 l 76 0 l 240 0 l 238 758 l 788 758 l 788 917 l 76 917 z "},"Д":{"ha":833,"x_min":15,"x_max":826,"o":"m 826 160 l 826 -194 l 667 -194 l 667 0 l 175 0 l 175 -194 l 15 -194 l 15 160 l 124 160 l 175 306 l 175 917 l 701 917 l 701 160 l 826 160 m 335 304 l 289 160 l 542 160 l 542 757 l 335 757 l 335 304 z "},"Е":{"ha":833,"x_min":76,"x_max":772,"o":"m 772 917 l 772 758 l 236 758 l 236 554 l 689 554 l 689 396 l 236 396 l 236 158 l 772 158 l 772 0 l 76 0 l 76 917 l 772 917 z "},"Ё":{"ha":833,"x_min":76,"x_max":772,"o":"m 772 917 l 772 758 l 236 758 l 236 554 l 689 554 l 689 396 l 236 396 l 236 158 l 772 158 l 772 0 l 76 0 l 76 917 l 772 917 z "},"Ж":{"ha":833,"x_min":42,"x_max":792,"o":"m 169 0 l 42 0 l 42 107 l 214 467 l 68 810 l 68 917 l 197 917 l 325 518 l 346 518 l 340 917 l 492 917 l 488 518 l 508 518 l 635 917 l 763 917 l 763 810 l 618 467 l 792 107 l 792 0 l 663 0 l 508 425 l 488 425 l 492 0 l 340 0 l 346 425 l 325 425 l 169 0 z "},"З":{"ha":833,"x_min":60,"x_max":774,"o":"m 585 0 l 250 0 l 60 174 l 60 308 l 222 308 l 222 236 l 306 160 l 528 160 l 614 236 l 614 314 l 532 383 l 278 383 l 278 539 l 524 539 l 614 625 l 614 681 l 528 757 l 308 757 l 224 681 l 224 607 l 60 607 l 60 744 l 250 917 l 586 917 l 774 749 l 774 572 l 656 467 l 656 461 l 774 372 l 774 174 l 585 0 z "},"И":{"ha":833,"x_min":76,"x_max":757,"o":"m 251 0 l 76 0 l 76 917 l 238 917 l 232 285 l 236 285 l 590 917 l 757 917 l 757 0 l 597 0 l 603 626 l 596 626 l 251 0 z "},"Й":{"ha":833,"x_min":76,"x_max":757,"o":"m 251 0 l 76 0 l 76 917 l 238 917 l 232 285 l 236 285 l 590 917 l 757 917 l 757 0 l 597 0 l 603 626 l 596 626 l 251 0 z "},"К":{"ha":833,"x_min":76,"x_max":778,"o":"m 743 804 l 483 458 l 778 110 l 778 0 l 668 0 l 358 376 l 238 376 l 238 0 l 76 0 l 76 917 l 238 917 l 238 535 l 358 535 l 631 917 l 743 917 l 743 804 z "},"Л":{"ha":833,"x_min":21,"x_max":757,"o":"m 21 0 l 21 160 l 151 160 l 197 258 l 197 917 l 757 917 l 757 0 l 594 0 l 594 757 l 357 757 l 357 221 l 251 0 l 21 0 z "},"М":{"ha":833,"x_min":64,"x_max":769,"o":"m 228 0 l 64 0 l 64 917 l 250 917 l 413 483 l 421 483 l 583 917 l 769 917 l 769 0 l 606 0 l 611 572 l 604 572 l 482 246 l 349 246 l 229 572 l 222 572 l 228 0 z "},"Н":{"ha":833,"x_min":76,"x_max":757,"o":"m 594 556 l 594 917 l 757 917 l 757 0 l 594 0 l 594 397 l 240 397 l 240 0 l 76 0 l 76 917 l 240 917 l 240 556 l 594 556 z "},"О":{"ha":833,"x_min":60,"x_max":774,"o":"m 260 0 l 60 215 l 60 701 l 260 917 l 574 917 l 774 701 l 774 215 l 574 0 l 260 0 m 219 640 l 219 276 l 328 160 l 506 160 l 614 276 l 614 640 l 506 757 l 328 757 l 219 640 z "},"П":{"ha":833,"x_min":76,"x_max":757,"o":"m 236 0 l 76 0 l 76 917 l 757 917 l 757 0 l 597 0 l 597 757 l 236 757 l 236 0 z "},"Р":{"ha":833,"x_min":76,"x_max":788,"o":"m 236 0 l 76 0 l 76 917 l 625 917 l 788 750 l 788 507 l 625 340 l 236 340 l 236 0 m 236 757 l 236 500 l 560 500 l 628 572 l 628 685 l 560 757 l 236 757 z "},"С":{"ha":833,"x_min":60,"x_max":788,"o":"m 608 0 l 260 0 l 60 215 l 60 701 l 260 917 l 608 917 l 788 725 l 653 636 l 539 757 l 328 757 l 219 640 l 219 275 l 328 160 l 539 160 l 649 276 l 785 192 l 608 0 z "},"Т":{"ha":833,"x_min":32,"x_max":801,"o":"m 338 757 l 32 757 l 32 917 l 801 917 l 801 757 l 497 757 l 500 0 l 335 0 l 338 757 z "},"У":{"ha":833,"x_min":68,"x_max":775,"o":"m 457 0 l 325 0 l 325 118 l 414 300 l 411 304 l 283 304 l 68 796 l 68 917 l 192 917 l 385 456 l 469 456 l 651 917 l 775 917 l 775 796 l 457 0 z "},"Ф":{"ha":833,"x_min":60,"x_max":774,"o":"m 249 79 l 60 281 l 60 671 l 249 871 l 340 871 l 340 944 l 496 944 l 494 871 l 585 871 l 774 671 l 774 281 l 585 79 l 494 79 l 496 0 l 340 0 l 340 79 l 249 79 m 219 615 l 219 336 l 307 239 l 340 239 l 340 711 l 307 711 l 219 615 m 496 711 l 496 239 l 526 239 l 614 336 l 614 615 l 526 711 l 496 711 z "},"Х":{"ha":833,"x_min":67,"x_max":767,"o":"m 183 0 l 67 0 l 67 118 l 315 465 l 93 799 l 93 917 l 210 917 l 414 588 l 419 588 l 624 917 l 740 917 l 740 799 l 518 465 l 767 119 l 767 0 l 650 0 l 419 339 l 414 339 l 183 0 z "},"Ц":{"ha":833,"x_min":76,"x_max":832,"o":"m 560 917 l 721 917 l 721 161 l 832 161 l 832 -197 l 679 -197 l 679 0 l 76 0 l 76 917 l 238 917 l 238 161 l 560 161 l 560 917 z "},"Ч":{"ha":833,"x_min":49,"x_max":757,"o":"m 757 0 l 596 0 l 596 371 l 494 279 l 228 279 l 49 471 l 49 917 l 210 917 l 210 546 l 294 449 l 456 449 l 596 569 l 596 917 l 757 917 l 757 0 z "},"Ш":{"ha":833,"x_min":61,"x_max":772,"o":"m 772 0 l 61 0 l 61 917 l 213 917 l 213 160 l 349 160 l 349 917 l 485 917 l 485 160 l 621 160 l 621 917 l 772 917 l 772 0 z "},"Щ":{"ha":833,"x_min":63,"x_max":835,"o":"m 682 0 l 63 0 l 63 917 l 211 917 l 211 161 l 342 161 l 342 917 l 478 917 l 478 161 l 608 161 l 608 917 l 757 917 l 757 161 l 835 161 l 835 -197 l 682 -197 l 682 0 z "},"Ъ":{"ha":833,"x_min":4,"x_max":788,"o":"m 625 0 l 174 0 l 174 757 l 4 757 l 4 917 l 333 915 l 335 576 l 625 576 l 788 410 l 788 167 l 625 0 m 335 417 l 335 160 l 560 160 l 628 232 l 628 344 l 560 417 l 335 417 z "},"Ы":{"ha":833,"x_min":76,"x_max":781,"o":"m 397 0 l 76 0 l 76 917 l 229 917 l 229 576 l 396 576 l 558 410 l 558 167 l 397 0 m 781 0 l 629 0 l 629 917 l 781 917 l 781 0 m 229 424 l 229 153 l 336 153 l 406 224 l 406 353 l 336 424 l 229 424 z "},"Ь":{"ha":833,"x_min":76,"x_max":793,"o":"m 631 0 l 76 0 l 76 917 l 238 917 l 238 576 l 631 576 l 793 410 l 793 167 l 631 0 m 238 417 l 238 160 l 565 160 l 633 232 l 633 344 l 565 417 l 238 417 z "},"Э":{"ha":833,"x_min":46,"x_max":774,"o":"m 225 917 l 574 917 l 774 701 l 774 215 l 574 0 l 222 0 l 46 192 l 182 276 l 292 160 l 506 160 l 614 275 l 614 396 l 288 396 l 288 547 l 614 547 l 614 640 l 506 757 l 294 757 l 182 636 l 46 725 l 225 917 z "},"Ю":{"ha":833,"x_min":71,"x_max":779,"o":"m 226 0 l 71 0 l 71 917 l 226 917 l 226 535 l 294 535 l 294 725 l 424 917 l 650 917 l 779 725 l 779 192 l 650 0 l 424 0 l 294 192 l 294 378 l 226 378 l 226 0 m 447 240 l 507 154 l 568 154 l 626 240 l 626 676 l 568 763 l 507 763 l 447 676 l 447 240 z "},"Я":{"ha":833,"x_min":56,"x_max":757,"o":"m 56 750 l 218 917 l 757 917 l 757 0 l 597 0 l 597 361 l 526 361 l 179 0 l 67 0 l 67 113 l 321 361 l 214 361 l 56 518 l 56 750 m 283 511 l 597 511 l 597 757 l 283 757 l 215 685 l 215 582 l 283 511 z "},"Ѓ":{"ha":833,"x_min":76,"x_max":788,"o":"m 76 917 l 76 0 l 240 0 l 238 758 l 788 758 l 788 917 l 76 917 z "},"Ґ":{"ha":833,"x_min":76,"x_max":788,"o":"m 76 917 l 76 0 l 240 0 l 238 758 l 788 758 l 788 1093 l 629 1093 l 629 917 l 76 917 z "},"Ђ":{"ha":833,"x_min":-10,"x_max":774,"o":"m 154 757 l -10 757 l -10 917 l 621 917 l 621 757 l 317 757 l 317 567 l 325 567 l 410 635 l 658 635 l 774 444 l 774 201 l 661 0 l 431 0 l 431 163 l 569 163 l 614 242 l 614 399 l 569 475 l 449 475 l 318 383 l 318 0 l 154 0 l 154 757 z "},"Є":{"ha":833,"x_min":60,"x_max":788,"o":"m 328 160 l 542 160 l 651 276 l 788 192 l 611 0 l 260 0 l 60 215 l 60 701 l 260 917 l 608 917 l 788 725 l 651 636 l 539 757 l 328 757 l 219 640 l 219 547 l 546 547 l 546 396 l 219 396 l 219 275 l 328 160 z "},"Ѕ":{"ha":833,"x_min":60,"x_max":774,"o":"m 589 0 l 247 0 l 60 168 l 60 308 l 222 308 l 222 236 l 307 160 l 529 160 l 614 236 l 614 319 l 526 388 l 253 388 l 64 525 l 64 750 l 249 917 l 582 917 l 771 749 l 771 608 l 607 608 l 607 681 l 522 757 l 310 757 l 224 681 l 224 603 l 308 539 l 585 539 l 774 396 l 774 167 l 589 0 z "},"І":{"ha":833,"x_min":49,"x_max":785,"o":"m 785 0 l 49 0 l 49 158 l 344 158 l 344 758 l 50 758 l 50 917 l 783 917 l 783 758 l 504 758 l 504 158 l 785 158 l 785 0 z "},"Ї":{"ha":833,"x_min":49,"x_max":785,"o":"m 785 0 l 49 0 l 49 158 l 344 158 l 344 758 l 50 758 l 50 917 l 783 917 l 783 758 l 504 758 l 504 158 l 785 158 l 785 0 z "},"Ј":{"ha":833,"x_min":46,"x_max":774,"o":"m 574 0 l 246 0 l 46 215 l 46 383 l 206 383 l 206 276 l 314 160 l 506 160 l 614 276 l 614 757 l 119 757 l 119 917 l 774 917 l 774 215 l 574 0 z "},"Ќ":{"ha":833,"x_min":76,"x_max":778,"o":"m 743 804 l 483 458 l 778 110 l 778 0 l 668 0 l 358 376 l 238 376 l 238 0 l 76 0 l 76 917 l 238 917 l 238 535 l 358 535 l 631 917 l 743 917 l 743 804 z "},"Љ":{"ha":833,"x_min":4,"x_max":801,"o":"m 171 0 l 4 0 l 4 135 l 83 135 l 142 254 l 142 917 l 510 917 l 510 540 l 660 540 l 801 376 l 801 157 l 664 0 l 365 0 l 365 771 l 276 771 l 276 199 l 171 0 m 510 396 l 510 146 l 597 146 l 657 215 l 657 324 l 597 396 l 510 396 z "},"Њ":{"ha":833,"x_min":76,"x_max":801,"o":"m 222 0 l 76 0 l 76 917 l 222 917 l 222 540 l 365 540 l 365 917 l 510 917 l 510 540 l 664 540 l 801 375 l 801 157 l 664 0 l 365 0 l 365 396 l 222 396 l 222 0 m 510 396 l 510 146 l 597 146 l 657 215 l 657 324 l 597 396 l 510 396 z "},"Ћ":{"ha":833,"x_min":-10,"x_max":774,"o":"m 318 0 l 156 0 l 156 757 l -10 757 l -10 917 l 621 917 l 621 757 l 315 757 l 315 572 l 325 572 l 410 635 l 658 635 l 774 444 l 774 0 l 614 0 l 614 399 l 569 475 l 449 475 l 318 383 l 318 0 z "},"Ў":{"ha":833,"x_min":68,"x_max":775,"o":"m 457 0 l 325 0 l 325 118 l 414 300 l 411 304 l 283 304 l 68 796 l 68 917 l 192 917 l 385 456 l 469 456 l 651 917 l 775 917 l 775 796 l 457 0 z "},"Џ":{"ha":833,"x_min":76,"x_max":757,"o":"m 335 0 l 76 0 l 76 917 l 236 917 l 236 163 l 597 163 l 597 917 l 757 917 l 757 0 l 499 0 l 499 -232 l 335 -232 l 335 0 z "},"Ѐ":{"ha":833,"x_min":76,"x_max":772,"o":"m 772 917 l 772 758 l 236 758 l 236 554 l 689 554 l 689 396 l 236 396 l 236 158 l 772 158 l 772 0 l 76 0 l 76 917 l 772 917 z "},"Ә":{"ha":833,"x_min":60,"x_max":774,"o":"m 260 0 l 60 215 l 60 538 l 614 538 l 614 640 l 506 757 l 328 757 l 219 640 l 60 701 l 260 917 l 574 917 l 774 701 l 774 215 l 574 0 l 260 0 m 219 393 l 219 276 l 328 160 l 506 160 l 614 276 l 614 393 l 219 393 z "},"Ѝ":{"ha":833,"x_min":76,"x_max":757,"o":"m 251 0 l 76 0 l 76 917 l 238 917 l 232 285 l 236 285 l 590 917 l 757 917 l 757 0 l 597 0 l 603 626 l 596 626 l 251 0 z "},"Ӣ":{"ha":833,"x_min":76,"x_max":757,"o":"m 251 0 l 76 0 l 76 917 l 238 917 l 232 285 l 236 285 l 590 917 l 757 917 l 757 0 l 597 0 l 603 626 l 596 626 l 251 0 z "},"Ӧ":{"ha":833,"x_min":60,"x_max":774,"o":"m 260 0 l 60 215 l 60 701 l 260 917 l 574 917 l 774 701 l 774 215 l 574 0 l 260 0 m 219 640 l 219 276 l 328 160 l 506 160 l 614 276 l 614 640 l 506 757 l 328 757 l 219 640 z "},"Ө":{"ha":833,"x_min":60,"x_max":774,"o":"m 260 917 l 574 917 l 774 701 l 774 215 l 574 0 l 260 0 l 60 215 l 60 701 l 260 917 m 506 757 l 328 757 l 219 640 l 219 538 l 614 538 l 614 640 l 506 757 m 328 160 l 506 160 l 614 276 l 614 390 l 219 390 l 219 276 l 328 160 z "},"Ӯ":{"ha":833,"x_min":68,"x_max":775,"o":"m 457 0 l 325 0 l 325 118 l 414 300 l 411 304 l 283 304 l 68 796 l 68 917 l 192 917 l 385 456 l 469 456 l 651 917 l 775 917 l 775 796 l 457 0 z "},"Ү":{"ha":833,"x_min":46,"x_max":788,"o":"m 503 0 l 328 0 l 333 369 l 46 800 l 46 917 l 163 917 l 408 531 l 422 531 l 671 917 l 788 917 l 788 800 l 497 369 l 503 0 z "},"Ұ":{"ha":833,"x_min":46,"x_max":788,"o":"m 671 917 l 788 917 l 788 800 l 538 439 l 738 439 l 738 279 l 499 279 l 503 0 l 328 0 l 332 279 l 90 279 l 90 439 l 293 439 l 46 800 l 46 917 l 163 917 l 408 540 l 422 540 l 671 917 z "},"а":{"ha":833,"x_min":76,"x_max":743,"o":"m 518 0 l 244 0 l 76 172 l 76 533 l 244 704 l 525 704 l 603 646 l 607 646 l 613 704 l 743 704 l 743 0 l 608 0 l 607 65 l 603 65 l 518 0 m 235 239 l 313 158 l 489 158 l 589 236 l 589 468 l 483 547 l 313 547 l 235 467 l 235 239 z "},"б":{"ha":833,"x_min":76,"x_max":757,"o":"m 589 0 l 244 0 l 76 172 l 76 707 l 221 913 l 551 913 l 590 965 l 707 965 l 707 849 l 611 754 l 304 754 l 235 660 l 235 554 l 244 554 l 328 639 l 589 639 l 757 467 l 757 172 l 589 0 m 235 239 l 313 158 l 521 158 l 599 239 l 599 400 l 521 481 l 328 481 l 235 400 l 235 239 z "},"в":{"ha":833,"x_min":90,"x_max":743,"o":"m 579 0 l 90 0 l 90 694 l 592 694 l 740 589 l 740 411 l 647 360 l 647 356 l 743 303 l 743 115 l 579 0 m 249 543 l 249 418 l 528 418 l 583 460 l 583 504 l 528 543 l 249 543 m 249 286 l 249 154 l 526 154 l 586 196 l 586 243 l 526 286 l 249 286 z "},"г":{"ha":833,"x_min":160,"x_max":785,"o":"m 321 0 l 160 0 l 160 704 l 785 704 l 785 546 l 321 546 l 321 0 z "},"д":{"ha":833,"x_min":26,"x_max":807,"o":"m 183 -167 l 26 -167 l 26 160 l 129 160 l 171 279 l 171 704 l 700 704 l 700 160 l 807 160 l 807 -167 l 650 -167 l 650 0 l 183 0 l 183 -167 m 331 264 l 296 160 l 540 160 l 540 547 l 331 547 l 331 264 z "},"е":{"ha":833,"x_min":76,"x_max":764,"o":"m 621 0 l 244 0 l 76 172 l 76 533 l 244 704 l 596 704 l 764 533 l 764 294 l 231 294 l 231 229 l 304 158 l 551 158 l 633 239 l 747 131 l 621 0 m 231 476 l 231 425 l 610 425 l 610 476 l 538 547 l 304 547 l 231 476 z "},"ё":{"ha":833,"x_min":76,"x_max":764,"o":"m 621 0 l 244 0 l 76 172 l 76 533 l 244 704 l 596 704 l 764 533 l 764 294 l 231 294 l 231 229 l 304 158 l 551 158 l 633 239 l 747 131 l 621 0 m 231 476 l 231 425 l 610 425 l 610 476 l 538 547 l 304 547 l 231 476 z "},"ж":{"ha":833,"x_min":63,"x_max":771,"o":"m 185 0 l 63 0 l 63 113 l 192 365 l 67 593 l 67 704 l 189 704 l 322 425 l 339 425 l 339 704 l 494 704 l 494 425 l 511 425 l 644 704 l 767 704 l 767 593 l 638 365 l 771 113 l 771 0 l 649 0 l 511 306 l 494 306 l 494 0 l 339 0 l 339 306 l 322 306 l 185 0 z "},"з":{"ha":833,"x_min":76,"x_max":757,"o":"m 593 0 l 242 0 l 76 131 l 76 244 l 239 244 l 239 200 l 300 153 l 539 153 l 600 196 l 600 251 l 542 299 l 296 299 l 296 421 l 542 421 l 600 454 l 600 510 l 539 551 l 308 551 l 247 504 l 247 461 l 85 461 l 85 574 l 251 704 l 593 704 l 757 589 l 757 408 l 664 363 l 664 356 l 757 310 l 757 115 l 593 0 z "},"и":{"ha":833,"x_min":90,"x_max":743,"o":"m 242 0 l 90 0 l 90 704 l 250 704 l 250 261 l 261 261 l 579 704 l 743 704 l 743 0 l 583 0 l 585 465 l 574 465 l 242 0 z "},"й":{"ha":833,"x_min":90,"x_max":743,"o":"m 242 0 l 90 0 l 90 704 l 250 704 l 250 261 l 261 261 l 579 704 l 743 704 l 743 0 l 583 0 l 585 465 l 574 465 l 242 0 m 557 792 l 278 792 l 186 885 l 186 1019 l 328 1019 l 328 947 l 354 922 l 481 922 l 507 949 l 507 1019 l 649 1019 l 649 885 l 557 792 z "},"к":{"ha":833,"x_min":81,"x_max":788,"o":"m 532 361 l 532 351 l 788 111 l 788 0 l 667 0 l 400 267 l 240 267 l 240 3 l 81 3 l 81 704 l 240 704 l 240 428 l 400 428 l 651 704 l 769 704 l 769 593 l 532 361 z "},"л":{"ha":833,"x_min":32,"x_max":753,"o":"m 211 0 l 32 0 l 32 154 l 117 154 l 157 217 l 157 704 l 753 704 l 753 0 l 593 0 l 593 546 l 317 546 l 317 176 l 211 0 z "},"м":{"ha":833,"x_min":81,"x_max":753,"o":"m 235 0 l 81 0 l 81 704 l 272 704 l 411 404 l 422 404 l 561 704 l 753 704 l 753 0 l 599 0 l 600 449 l 590 449 l 478 204 l 356 204 l 243 447 l 233 447 l 235 0 z "},"н":{"ha":833,"x_min":81,"x_max":753,"o":"m 240 0 l 81 0 l 81 704 l 240 704 l 240 436 l 593 436 l 593 704 l 753 704 l 753 0 l 593 0 l 593 279 l 240 279 l 240 0 z "},"о":{"ha":833,"x_min":76,"x_max":757,"o":"m 589 0 l 244 0 l 76 172 l 76 533 l 244 704 l 589 704 l 757 533 l 757 172 l 589 0 m 236 239 l 313 160 l 521 160 l 597 239 l 597 467 l 521 544 l 313 544 l 236 467 l 236 239 z "},"п":{"ha":833,"x_min":81,"x_max":753,"o":"m 240 0 l 81 0 l 81 704 l 753 704 l 753 0 l 593 0 l 593 547 l 240 547 l 240 0 z "},"р":{"ha":833,"x_min":90,"x_max":757,"o":"m 251 -292 l 90 -292 l 90 704 l 232 704 l 235 639 l 240 639 l 319 704 l 589 704 l 757 533 l 757 172 l 589 0 l 307 0 l 253 51 l 247 51 l 251 -292 m 244 236 l 344 160 l 521 160 l 599 239 l 599 467 l 521 544 l 350 544 l 244 468 l 244 236 z "},"с":{"ha":833,"x_min":69,"x_max":757,"o":"m 617 0 l 238 0 l 69 172 l 69 533 l 238 704 l 617 704 l 757 565 l 640 456 l 549 544 l 306 544 l 229 467 l 229 239 l 306 160 l 549 160 l 640 249 l 757 139 l 617 0 z "},"т":{"ha":833,"x_min":39,"x_max":794,"o":"m 500 0 l 333 0 l 340 546 l 39 546 l 39 704 l 794 704 l 794 546 l 494 546 l 500 0 z "},"у":{"ha":833,"x_min":71,"x_max":771,"o":"m 385 -292 l 257 -292 l 257 -169 l 346 3 l 71 581 l 71 704 l 193 704 l 419 200 l 429 200 l 647 704 l 771 704 l 771 588 l 385 -292 z "},"ф":{"ha":833,"x_min":64,"x_max":769,"o":"m 486 704 l 601 704 l 769 533 l 769 172 l 601 0 l 486 0 l 496 -218 l 339 -218 l 349 0 l 232 0 l 64 172 l 64 533 l 232 704 l 349 704 l 339 881 l 494 881 l 486 704 m 219 464 l 219 242 l 300 158 l 349 158 l 349 546 l 300 546 l 219 464 m 533 158 l 614 242 l 614 464 l 533 546 l 486 546 l 486 158 l 533 158 z "},"х":{"ha":833,"x_min":61,"x_max":772,"o":"m 179 0 l 61 0 l 61 118 l 319 351 l 82 586 l 82 704 l 200 704 l 415 481 l 421 481 l 638 704 l 756 704 l 756 586 l 518 351 l 772 118 l 772 0 l 654 0 l 421 233 l 415 233 l 179 0 z "},"ц":{"ha":833,"x_min":81,"x_max":808,"o":"m 808 -167 l 653 -167 l 653 0 l 81 0 l 81 704 l 240 704 l 240 158 l 563 158 l 563 704 l 722 704 l 722 157 l 808 157 l 808 -167 z "},"ч":{"ha":833,"x_min":67,"x_max":753,"o":"m 753 0 l 597 0 l 597 264 l 592 264 l 526 196 l 222 196 l 67 367 l 67 704 l 226 704 l 226 428 l 292 356 l 485 356 l 593 451 l 593 704 l 753 704 l 753 0 z "},"ш":{"ha":833,"x_min":90,"x_max":743,"o":"m 743 0 l 90 0 l 90 704 l 235 704 l 235 149 l 350 149 l 350 704 l 476 704 l 476 149 l 593 149 l 593 704 l 743 704 l 743 0 z "},"щ":{"ha":833,"x_min":90,"x_max":824,"o":"m 664 0 l 90 0 l 90 704 l 239 704 l 239 149 l 354 149 l 354 704 l 482 704 l 482 149 l 596 149 l 596 704 l 746 704 l 746 157 l 824 157 l 824 -162 l 664 -162 l 664 0 z "},"ъ":{"ha":833,"x_min":7,"x_max":767,"o":"m 590 0 l 132 0 l 132 549 l 7 549 l 7 704 l 292 704 l 292 489 l 590 489 l 767 379 l 767 108 l 590 0 m 292 335 l 292 154 l 547 154 l 610 196 l 610 294 l 547 335 l 292 335 z "},"ы":{"ha":833,"x_min":81,"x_max":753,"o":"m 364 0 l 81 0 l 81 704 l 229 704 l 229 485 l 367 485 l 528 372 l 528 121 l 364 0 m 753 0 l 604 0 l 604 704 l 753 704 l 753 0 m 229 335 l 229 150 l 321 150 l 385 194 l 385 296 l 321 335 l 229 335 z "},"ь":{"ha":833,"x_min":81,"x_max":771,"o":"m 610 0 l 81 0 l 81 704 l 240 704 l 240 489 l 610 489 l 771 379 l 771 119 l 610 0 m 240 342 l 240 154 l 553 154 l 611 196 l 611 300 l 553 342 l 240 342 z "},"э":{"ha":833,"x_min":69,"x_max":757,"o":"m 219 704 l 589 704 l 757 533 l 757 172 l 589 0 l 219 0 l 75 149 l 211 239 l 288 160 l 521 160 l 597 238 l 597 279 l 310 279 l 310 432 l 597 432 l 597 467 l 521 544 l 288 544 l 211 467 l 69 551 l 219 704 z "},"ю":{"ha":833,"x_min":67,"x_max":765,"o":"m 217 0 l 67 0 l 67 704 l 217 704 l 217 435 l 288 435 l 288 543 l 431 704 l 619 704 l 765 543 l 765 157 l 618 0 l 431 0 l 288 157 l 288 278 l 217 278 l 217 0 m 431 472 l 431 228 l 500 156 l 553 156 l 624 228 l 624 472 l 554 549 l 500 549 l 431 472 z "},"я":{"ha":833,"x_min":67,"x_max":753,"o":"m 190 0 l 72 0 l 72 117 l 297 247 l 296 253 l 229 253 l 67 357 l 67 585 l 228 704 l 753 704 l 753 0 l 593 0 l 593 247 l 493 247 l 190 0 m 226 435 l 285 394 l 593 394 l 593 550 l 285 550 l 226 508 l 226 435 z "},"ѓ":{"ha":833,"x_min":160,"x_max":785,"o":"m 321 0 l 160 0 l 160 704 l 785 704 l 785 546 l 321 546 l 321 0 m 528 792 l 439 792 l 439 874 l 547 1051 l 649 1051 l 649 949 l 528 792 z "},"ґ":{"ha":833,"x_min":151,"x_max":785,"o":"m 313 0 l 151 0 l 151 704 l 625 704 l 625 896 l 785 896 l 785 546 l 313 546 l 313 0 z "},"ђ":{"ha":833,"x_min":-14,"x_max":753,"o":"m 354 621 l 638 621 l 753 431 l 753 -74 l 638 -275 l 418 -275 l 418 -115 l 549 -115 l 593 -35 l 593 385 l 549 461 l 393 461 l 261 369 l 261 0 l 101 0 l 101 719 l -14 719 l -14 861 l 101 861 l 101 968 l 247 968 l 247 861 l 371 861 l 371 719 l 247 719 l 247 549 l 257 549 l 354 621 z "},"є":{"ha":833,"x_min":76,"x_max":764,"o":"m 313 160 l 546 160 l 622 239 l 758 149 l 614 0 l 244 0 l 76 172 l 76 533 l 244 704 l 614 704 l 764 551 l 622 467 l 546 544 l 313 544 l 236 467 l 236 432 l 524 432 l 524 279 l 236 279 l 236 238 l 313 160 z "},"ѕ":{"ha":833,"x_min":76,"x_max":757,"o":"m 594 0 l 243 0 l 76 129 l 76 246 l 238 246 l 238 200 l 301 154 l 535 154 l 596 200 l 596 247 l 535 290 l 239 290 l 81 408 l 81 575 l 243 704 l 594 704 l 757 575 l 757 469 l 596 469 l 596 503 l 533 550 l 303 550 l 242 503 l 242 467 l 303 421 l 597 421 l 757 321 l 757 129 l 594 0 z "},"і":{"ha":833,"x_min":68,"x_max":765,"o":"m 765 0 l 68 0 l 68 160 l 363 160 l 363 542 l 82 542 l 82 701 l 525 701 l 525 160 l 765 160 l 765 0 z "},"ї":{"ha":833,"x_min":68,"x_max":765,"o":"m 765 0 l 68 0 l 68 160 l 363 160 l 363 542 l 82 542 l 82 701 l 525 701 l 525 160 l 765 160 l 765 0 m 376 832 l 221 832 l 221 983 l 376 983 l 376 832 m 640 832 l 485 832 l 485 983 l 640 983 l 640 832 z "},"ј":{"ha":833,"x_min":90,"x_max":753,"o":"m 582 -287 l 90 -287 l 90 -128 l 515 -128 l 593 -47 l 593 542 l 199 542 l 199 701 l 751 701 l 751 -114 l 582 -287 z "},"љ":{"ha":833,"x_min":-4,"x_max":771,"o":"m 156 0 l -4 0 l -4 142 l 75 142 l 121 226 l 121 704 l 507 704 l 507 438 l 615 438 l 771 339 l 771 103 l 638 0 l 365 0 l 365 546 l 260 546 l 260 176 l 156 0 m 507 296 l 507 131 l 579 131 l 629 175 l 629 260 l 579 296 l 507 296 z "},"њ":{"ha":833,"x_min":63,"x_max":771,"o":"m 204 0 l 63 0 l 63 704 l 204 704 l 204 436 l 353 436 l 353 704 l 494 704 l 494 436 l 615 436 l 771 339 l 771 103 l 638 0 l 353 0 l 353 296 l 204 296 l 204 0 m 494 296 l 494 131 l 579 131 l 629 175 l 629 260 l 579 296 l 494 296 z "},"ћ":{"ha":833,"x_min":-14,"x_max":753,"o":"m 354 621 l 638 621 l 753 431 l 753 0 l 593 0 l 593 385 l 549 461 l 393 461 l 261 369 l 261 0 l 101 0 l 101 719 l -14 719 l -14 861 l 101 861 l 101 968 l 247 968 l 247 861 l 371 861 l 371 719 l 247 719 l 247 549 l 257 549 l 354 621 z "},"ѐ":{"ha":833,"x_min":76,"x_max":764,"o":"m 621 0 l 244 0 l 76 172 l 76 533 l 244 704 l 596 704 l 764 533 l 764 294 l 231 294 l 231 229 l 304 158 l 551 158 l 633 239 l 747 131 l 621 0 m 231 476 l 231 425 l 610 425 l 610 476 l 538 547 l 304 547 l 231 476 m 465 874 l 465 792 l 376 792 l 256 949 l 256 1051 l 357 1051 l 465 874 z "},"ә":{"ha":833,"x_min":69,"x_max":757,"o":"m 213 704 l 589 704 l 757 532 l 757 171 l 589 0 l 238 0 l 69 171 l 69 410 l 603 410 l 603 475 l 529 546 l 282 546 l 200 465 l 86 574 l 213 704 m 603 228 l 603 279 l 224 279 l 224 228 l 296 157 l 529 157 l 603 228 z "},"ӣ":{"ha":833,"x_min":90,"x_max":743,"o":"m 242 0 l 90 0 l 90 704 l 250 704 l 250 261 l 261 261 l 579 704 l 743 704 l 743 0 l 583 0 l 585 465 l 574 465 l 242 0 m 199 826 l 199 968 l 635 968 l 635 826 l 199 826 z "},"ӧ":{"ha":833,"x_min":76,"x_max":757,"o":"m 589 0 l 244 0 l 76 172 l 76 533 l 244 704 l 589 704 l 757 533 l 757 172 l 589 0 m 236 239 l 313 160 l 521 160 l 597 239 l 597 467 l 521 544 l 313 544 l 236 467 l 236 239 m 363 832 l 207 832 l 207 983 l 363 983 l 363 832 m 626 832 l 471 832 l 471 983 l 626 983 l 626 832 z "},"ө":{"ha":833,"x_min":76,"x_max":757,"o":"m 244 704 l 589 704 l 757 533 l 757 172 l 589 0 l 244 0 l 76 172 l 76 533 l 244 704 m 521 544 l 313 544 l 236 467 l 236 424 l 597 424 l 597 467 l 521 544 m 313 160 l 521 160 l 597 239 l 597 283 l 236 283 l 236 239 l 313 160 z "},"ӯ":{"ha":833,"x_min":71,"x_max":771,"o":"m 385 -292 l 257 -292 l 257 -169 l 346 3 l 71 581 l 71 704 l 193 704 l 419 200 l 429 200 l 647 704 l 771 704 l 771 588 l 385 -292 z "},"ү":{"ha":833,"x_min":69,"x_max":764,"o":"m 499 -287 l 333 -287 l 336 64 l 69 585 l 69 704 l 189 704 l 414 247 l 419 247 l 644 704 l 764 704 l 764 585 l 496 64 l 499 -287 z "},"ұ":{"ha":833,"x_min":69,"x_max":764,"o":"m 644 704 l 764 704 l 764 585 l 550 160 l 692 160 l 692 0 l 496 0 l 499 -287 l 333 -287 l 336 0 l 142 0 l 142 160 l 282 160 l 69 585 l 69 704 l 189 704 l 414 236 l 419 236 l 644 704 z "},"⓿":{"ha":833,"x_min":14,"x_max":819,"o":"m 679 0 l 154 0 l 14 143 l 14 774 l 154 917 l 679 917 l 819 774 l 819 143 l 679 0 m 249 346 l 332 261 l 501 261 l 585 346 l 585 571 l 501 656 l 332 656 l 249 571 l 249 346 m 339 389 l 374 351 l 461 351 l 494 389 l 494 528 l 461 565 l 374 565 l 339 528 l 339 389 z "},"❶":{"ha":833,"x_min":14,"x_max":819,"o":"m 679 0 l 154 0 l 14 143 l 14 774 l 154 917 l 679 917 l 819 774 l 819 143 l 679 0 m 243 363 l 243 274 l 589 274 l 589 363 l 496 363 l 496 644 l 390 644 l 313 546 l 243 546 l 243 457 l 347 457 l 401 524 l 410 524 l 410 363 l 243 363 z "},"❷":{"ha":833,"x_min":14,"x_max":819,"o":"m 679 0 l 154 0 l 14 143 l 14 774 l 154 917 l 679 917 l 819 774 l 819 143 l 679 0 m 247 422 l 247 261 l 588 261 l 588 349 l 336 349 l 336 390 l 356 408 l 522 408 l 588 463 l 588 583 l 515 654 l 321 654 l 247 586 l 247 518 l 336 518 l 336 549 l 354 567 l 482 567 l 500 546 l 500 499 l 478 482 l 313 482 l 247 422 z "},"❸":{"ha":833,"x_min":14,"x_max":819,"o":"m 679 0 l 154 0 l 14 143 l 14 774 l 154 917 l 679 917 l 819 774 l 819 143 l 679 0 m 242 335 l 315 263 l 518 263 l 592 335 l 592 447 l 528 510 l 479 510 l 479 517 l 582 588 l 582 656 l 243 656 l 243 572 l 432 572 l 432 563 l 351 508 l 351 447 l 475 447 l 503 424 l 503 372 l 475 346 l 358 346 l 329 372 l 329 406 l 242 406 l 242 335 z "},"❹":{"ha":833,"x_min":14,"x_max":819,"o":"m 679 0 l 154 0 l 14 143 l 14 774 l 154 917 l 679 917 l 819 774 l 819 143 l 679 0 m 447 329 l 447 261 l 535 261 l 535 329 l 588 329 l 588 421 l 535 421 l 535 551 l 447 551 l 447 421 l 338 421 l 338 431 l 393 601 l 393 656 l 319 656 l 244 418 l 244 329 l 447 329 z "},"❺":{"ha":833,"x_min":14,"x_max":819,"o":"m 679 0 l 154 0 l 14 143 l 14 774 l 154 917 l 679 917 l 819 774 l 819 143 l 679 0 m 585 657 l 249 657 l 249 493 l 311 436 l 475 436 l 494 421 l 494 369 l 474 351 l 361 351 l 339 369 l 339 393 l 249 393 l 249 332 l 325 261 l 511 261 l 585 332 l 585 461 l 518 518 l 356 518 l 339 533 l 339 567 l 585 567 l 585 657 z "},"❻":{"ha":833,"x_min":14,"x_max":819,"o":"m 679 0 l 154 0 l 14 143 l 14 774 l 154 917 l 679 917 l 819 774 l 819 143 l 679 0 m 249 332 l 321 261 l 515 261 l 585 329 l 585 431 l 515 501 l 349 501 l 336 490 l 329 490 l 329 551 l 353 575 l 478 575 l 499 556 l 499 533 l 585 533 l 585 597 l 521 661 l 318 661 l 249 594 l 249 332 m 335 365 l 357 344 l 482 344 l 501 365 l 501 399 l 481 421 l 357 421 l 335 399 l 335 365 z "},"❼":{"ha":833,"x_min":14,"x_max":819,"o":"m 679 0 l 154 0 l 14 143 l 14 774 l 154 917 l 679 917 l 819 774 l 819 143 l 679 0 m 347 444 l 344 261 l 440 261 l 438 413 l 586 554 l 586 656 l 249 656 l 249 565 l 464 565 l 464 556 l 347 444 z "},"❽":{"ha":833,"x_min":14,"x_max":819,"o":"m 679 0 l 154 0 l 14 143 l 14 774 l 154 917 l 679 917 l 819 774 l 819 143 l 679 0 m 247 324 l 311 261 l 521 261 l 585 324 l 585 422 l 535 463 l 535 465 l 579 504 l 579 592 l 513 656 l 319 656 l 253 592 l 253 504 l 297 465 l 297 463 l 247 422 l 247 324 m 469 501 l 363 501 l 343 518 l 343 553 l 361 571 l 471 571 l 489 553 l 489 518 l 469 501 m 474 346 l 358 346 l 338 365 l 338 401 l 360 424 l 472 424 l 494 401 l 494 365 l 474 346 z "},"❾":{"ha":861,"x_min":28,"x_max":833,"o":"m 168 917 l 693 917 l 833 774 l 833 143 l 693 0 l 168 0 l 28 143 l 28 774 l 168 917 m 599 585 l 526 656 l 332 656 l 263 588 l 263 486 l 332 415 l 499 415 l 511 426 l 518 426 l 518 365 l 494 342 l 369 342 l 349 361 l 349 383 l 263 383 l 263 319 l 326 256 l 529 256 l 599 322 l 599 585 m 513 551 l 490 572 l 365 572 l 346 551 l 346 518 l 367 496 l 490 496 l 513 518 l 513 551 z "},"⓪":{"ha":833,"x_min":14,"x_max":819,"o":"m 679 0 l 154 0 l 14 143 l 14 774 l 154 917 l 679 917 l 819 774 l 819 143 l 679 0 m 104 181 l 192 90 l 642 90 l 729 181 l 729 735 l 642 826 l 192 826 l 104 735 l 104 181 m 501 261 l 332 261 l 249 346 l 249 571 l 332 656 l 501 656 l 585 571 l 585 346 l 501 261 m 339 389 l 374 351 l 461 351 l 494 389 l 494 528 l 461 565 l 374 565 l 339 528 l 339 389 z "},"①":{"ha":833,"x_min":14,"x_max":819,"o":"m 679 0 l 154 0 l 14 143 l 14 774 l 154 917 l 679 917 l 819 774 l 819 143 l 679 0 m 104 181 l 192 90 l 642 90 l 729 181 l 729 735 l 642 826 l 192 826 l 104 735 l 104 181 m 589 274 l 243 274 l 243 363 l 410 363 l 410 524 l 404 524 l 350 457 l 243 457 l 243 546 l 315 546 l 390 644 l 496 644 l 496 363 l 589 363 l 589 274 z "},"②":{"ha":833,"x_min":14,"x_max":819,"o":"m 679 0 l 154 0 l 14 143 l 14 774 l 154 917 l 679 917 l 819 774 l 819 143 l 679 0 m 104 181 l 192 90 l 642 90 l 729 181 l 729 735 l 642 826 l 192 826 l 104 735 l 104 181 m 586 261 l 249 261 l 249 425 l 313 485 l 476 485 l 499 500 l 499 544 l 481 564 l 354 564 l 336 546 l 336 518 l 249 518 l 249 586 l 321 654 l 514 654 l 586 583 l 586 457 l 521 401 l 356 401 l 338 383 l 338 349 l 586 349 l 586 261 z "},"③":{"ha":833,"x_min":14,"x_max":819,"o":"m 679 0 l 154 0 l 14 143 l 14 774 l 154 917 l 679 917 l 819 774 l 819 143 l 679 0 m 104 181 l 192 90 l 642 90 l 729 181 l 729 735 l 642 826 l 192 826 l 104 735 l 104 181 m 519 263 l 319 263 l 246 335 l 246 406 l 336 406 l 336 372 l 365 346 l 475 346 l 503 372 l 503 419 l 475 443 l 356 443 l 356 508 l 439 565 l 439 572 l 247 572 l 247 656 l 583 656 l 583 582 l 482 514 l 482 510 l 529 510 l 593 447 l 593 335 l 519 263 z "},"④":{"ha":833,"x_min":14,"x_max":819,"o":"m 679 0 l 154 0 l 14 143 l 14 774 l 154 917 l 679 917 l 819 774 l 819 143 l 679 0 m 104 181 l 192 90 l 642 90 l 729 181 l 729 735 l 642 826 l 192 826 l 104 735 l 104 181 m 535 261 l 447 261 l 447 329 l 244 329 l 244 418 l 319 656 l 393 656 l 393 601 l 338 431 l 338 421 l 447 421 l 447 551 l 535 551 l 535 421 l 588 421 l 588 329 l 535 329 l 535 261 z "},"⑤":{"ha":833,"x_min":14,"x_max":819,"o":"m 679 0 l 154 0 l 14 143 l 14 774 l 154 917 l 679 917 l 819 774 l 819 143 l 679 0 m 104 181 l 192 90 l 642 90 l 729 181 l 729 735 l 642 826 l 192 826 l 104 735 l 104 181 m 249 493 l 249 657 l 585 657 l 585 567 l 339 567 l 339 533 l 356 518 l 518 518 l 585 461 l 585 332 l 511 261 l 325 261 l 249 332 l 249 393 l 339 393 l 339 369 l 361 351 l 474 351 l 494 369 l 494 421 l 475 436 l 311 436 l 249 493 z "},"⑥":{"ha":833,"x_min":14,"x_max":819,"o":"m 679 0 l 154 0 l 14 143 l 14 774 l 154 917 l 679 917 l 819 774 l 819 143 l 679 0 m 104 181 l 192 90 l 642 90 l 729 181 l 729 735 l 642 826 l 192 826 l 104 735 l 104 181 m 514 261 l 322 261 l 250 332 l 250 594 l 319 661 l 519 661 l 583 597 l 583 533 l 494 533 l 494 551 l 474 571 l 354 571 l 331 549 l 331 496 l 338 496 l 350 507 l 514 507 l 583 436 l 583 329 l 514 261 m 340 368 l 361 349 l 475 349 l 493 368 l 493 400 l 475 421 l 361 421 l 340 400 l 340 368 z "},"⑦":{"ha":833,"x_min":14,"x_max":819,"o":"m 679 0 l 154 0 l 14 143 l 14 774 l 154 917 l 679 917 l 819 774 l 819 143 l 679 0 m 104 181 l 192 90 l 642 90 l 729 181 l 729 735 l 642 826 l 192 826 l 104 735 l 104 181 m 440 261 l 344 261 l 347 444 l 464 556 l 464 565 l 249 565 l 249 656 l 586 656 l 586 554 l 438 413 l 440 261 z "},"⑧":{"ha":833,"x_min":14,"x_max":819,"o":"m 679 0 l 154 0 l 14 143 l 14 774 l 154 917 l 679 917 l 819 774 l 819 143 l 679 0 m 104 181 l 192 90 l 642 90 l 729 181 l 729 735 l 642 826 l 192 826 l 104 735 l 104 181 m 315 261 l 251 324 l 251 422 l 301 463 l 301 465 l 257 504 l 257 592 l 324 656 l 510 656 l 576 592 l 576 504 l 532 465 l 532 463 l 582 422 l 582 324 l 518 261 l 315 261 m 346 553 l 346 518 l 365 501 l 467 501 l 486 518 l 486 553 l 468 571 l 364 571 l 346 553 m 340 401 l 340 365 l 363 346 l 471 346 l 492 365 l 492 401 l 469 424 l 364 424 l 340 401 z "},"⑨":{"ha":861,"x_min":28,"x_max":833,"o":"m 168 917 l 693 917 l 833 774 l 833 143 l 693 0 l 168 0 l 28 143 l 28 774 l 168 917 m 743 736 l 656 826 l 206 826 l 118 736 l 118 182 l 206 90 l 656 90 l 743 182 l 743 736 m 333 656 l 525 656 l 597 585 l 597 322 l 528 256 l 328 256 l 264 319 l 264 383 l 353 383 l 353 365 l 374 346 l 493 346 l 517 368 l 517 421 l 510 421 l 497 410 l 333 410 l 264 481 l 264 588 l 333 656 m 507 549 l 486 568 l 372 568 l 354 549 l 354 517 l 372 496 l 486 496 l 507 517 l 507 549 z "},"₀":{"ha":833,"x_min":139,"x_max":574,"o":"m 472 -236 l 240 -236 l 139 -133 l 139 115 l 240 218 l 472 218 l 574 115 l 574 -133 l 472 -236 m 249 -87 l 285 -126 l 429 -126 l 465 -87 l 465 72 l 429 110 l 285 110 l 249 72 l 249 -87 z "},"₁":{"ha":833,"x_min":139,"x_max":603,"o":"m 603 -249 l 139 -249 l 139 -139 l 356 -139 l 356 94 l 347 94 l 253 -14 l 139 -14 l 139 96 l 217 96 l 322 218 l 465 218 l 465 -139 l 603 -139 l 603 -249 z "},"₂":{"ha":833,"x_min":139,"x_max":542,"o":"m 542 -250 l 139 -250 l 139 -51 l 217 22 l 408 22 l 432 42 l 432 92 l 407 115 l 274 115 l 249 92 l 249 61 l 139 61 l 139 139 l 231 225 l 450 225 l 542 140 l 542 -10 l 463 -76 l 271 -76 l 249 -99 l 249 -142 l 542 -142 l 542 -250 z "},"₃":{"ha":833,"x_min":139,"x_max":524,"o":"m 439 -242 l 224 -242 l 139 -158 l 139 -86 l 247 -86 l 247 -108 l 268 -132 l 389 -132 l 415 -110 l 415 -57 l 389 -33 l 239 -33 l 239 47 l 314 103 l 314 110 l 139 110 l 139 218 l 513 218 l 513 136 l 397 60 l 397 54 l 442 54 l 524 -22 l 524 -158 l 439 -242 z "},"₄":{"ha":833,"x_min":139,"x_max":582,"o":"m 513 -242 l 403 -242 l 403 -156 l 139 -156 l 139 -56 l 268 218 l 360 218 l 360 151 l 274 -33 l 274 -46 l 403 -46 l 403 106 l 513 106 l 513 -46 l 582 -46 l 582 -156 l 513 -156 l 513 -242 z "},"₅":{"ha":833,"x_min":139,"x_max":538,"o":"m 139 22 l 139 219 l 538 219 l 538 111 l 249 111 l 249 69 l 268 50 l 458 50 l 538 -17 l 538 -161 l 446 -246 l 231 -246 l 139 -161 l 139 -87 l 249 -87 l 249 -112 l 274 -137 l 403 -137 l 429 -114 l 429 -67 l 404 -47 l 214 -47 l 139 22 z "},"₆":{"ha":833,"x_min":139,"x_max":528,"o":"m 449 -246 l 222 -246 l 139 -164 l 139 142 l 219 218 l 454 218 l 528 144 l 528 72 l 424 72 l 424 93 l 401 115 l 260 115 l 232 89 l 232 17 l 240 17 l 256 31 l 447 31 l 528 -51 l 528 -168 l 449 -246 m 249 -126 l 272 -147 l 397 -147 l 418 -126 l 418 -90 l 397 -68 l 272 -68 l 249 -90 l 249 -126 z "},"₇":{"ha":833,"x_min":139,"x_max":539,"o":"m 364 -236 l 253 -236 l 256 -25 l 374 99 l 374 110 l 139 110 l 139 218 l 539 218 l 539 121 l 361 -71 l 364 -236 z "},"₈":{"ha":833,"x_min":139,"x_max":544,"o":"m 471 -236 l 213 -236 l 139 -162 l 139 -50 l 196 -3 l 196 0 l 144 44 l 144 144 l 222 219 l 463 219 l 539 144 l 539 44 l 486 0 l 486 -3 l 544 -50 l 544 -162 l 471 -236 m 254 60 l 276 40 l 406 40 l 429 60 l 429 103 l 408 124 l 275 124 l 254 103 l 254 60 m 249 -117 l 274 -139 l 410 -139 l 435 -117 l 435 -71 l 408 -47 l 275 -47 l 249 -71 l 249 -117 z "},"₉":{"ha":833,"x_min":139,"x_max":524,"o":"m 443 -233 l 213 -233 l 139 -160 l 139 -86 l 243 -86 l 243 -107 l 265 -129 l 403 -129 l 432 -103 l 432 -32 l 424 -32 l 408 -46 l 219 -46 l 139 36 l 139 143 l 218 221 l 440 221 l 524 139 l 524 -157 l 443 -233 m 249 76 l 269 53 l 390 53 l 415 76 l 415 101 l 390 122 l 269 122 l 249 101 l 249 76 z "},"⁰":{"ha":833,"x_min":139,"x_max":574,"o":"m 472 556 l 240 556 l 139 658 l 139 907 l 240 1010 l 472 1010 l 574 907 l 574 658 l 472 556 m 249 704 l 285 665 l 429 665 l 465 704 l 465 864 l 429 901 l 285 901 l 249 864 l 249 704 z "},"¹":{"ha":833,"x_min":139,"x_max":603,"o":"m 603 543 l 139 543 l 139 653 l 356 653 l 356 886 l 347 886 l 253 778 l 139 778 l 139 888 l 217 888 l 322 1010 l 465 1010 l 465 653 l 603 653 l 603 543 z "},"²":{"ha":833,"x_min":139,"x_max":542,"o":"m 542 542 l 139 542 l 139 740 l 217 814 l 408 814 l 432 833 l 432 883 l 407 907 l 274 907 l 249 883 l 249 853 l 139 853 l 139 931 l 231 1017 l 450 1017 l 542 932 l 542 782 l 463 715 l 271 715 l 249 693 l 249 650 l 542 650 l 542 542 z "},"³":{"ha":833,"x_min":139,"x_max":524,"o":"m 439 550 l 224 550 l 139 633 l 139 706 l 247 706 l 247 683 l 268 660 l 389 660 l 415 682 l 415 735 l 389 758 l 239 758 l 239 839 l 314 894 l 314 901 l 139 901 l 139 1010 l 513 1010 l 513 928 l 397 851 l 397 846 l 442 846 l 524 769 l 524 633 l 439 550 z "},"⁴":{"ha":833,"x_min":139,"x_max":582,"o":"m 513 550 l 403 550 l 403 636 l 139 636 l 139 736 l 268 1010 l 360 1010 l 360 943 l 274 758 l 274 746 l 403 746 l 403 897 l 513 897 l 513 746 l 582 746 l 582 636 l 513 636 l 513 550 z "},"⁵":{"ha":833,"x_min":139,"x_max":538,"o":"m 139 814 l 139 1011 l 538 1011 l 538 903 l 249 903 l 249 861 l 268 842 l 458 842 l 538 775 l 538 631 l 446 546 l 231 546 l 139 631 l 139 704 l 249 704 l 249 679 l 274 654 l 403 654 l 429 678 l 429 725 l 404 744 l 214 744 l 139 814 z "},"⁶":{"ha":833,"x_min":139,"x_max":528,"o":"m 449 546 l 222 546 l 139 628 l 139 933 l 219 1010 l 454 1010 l 528 936 l 528 864 l 424 864 l 424 885 l 401 907 l 260 907 l 232 881 l 232 808 l 240 808 l 256 822 l 447 822 l 528 740 l 528 624 l 449 546 m 249 665 l 272 644 l 397 644 l 418 665 l 418 701 l 397 724 l 272 724 l 249 701 l 249 665 z "},"⁷":{"ha":833,"x_min":139,"x_max":539,"o":"m 364 556 l 253 556 l 256 767 l 374 890 l 374 901 l 139 901 l 139 1010 l 539 1010 l 539 913 l 361 721 l 364 556 z "},"⁸":{"ha":833,"x_min":139,"x_max":544,"o":"m 471 556 l 213 556 l 139 629 l 139 742 l 196 789 l 196 792 l 144 836 l 144 936 l 222 1011 l 463 1011 l 539 936 l 539 836 l 486 792 l 486 789 l 544 742 l 544 629 l 471 556 m 254 851 l 276 832 l 406 832 l 429 851 l 429 894 l 408 915 l 275 915 l 254 894 l 254 851 m 249 675 l 274 653 l 410 653 l 435 675 l 435 721 l 408 744 l 275 744 l 249 721 l 249 675 z "},"⁹":{"ha":833,"x_min":139,"x_max":524,"o":"m 443 558 l 213 558 l 139 632 l 139 706 l 243 706 l 243 685 l 265 663 l 403 663 l 432 689 l 432 760 l 424 760 l 408 746 l 219 746 l 139 828 l 139 935 l 218 1013 l 440 1013 l 524 931 l 524 635 l 443 558 m 249 868 l 269 844 l 390 844 l 415 868 l 415 893 l 390 914 l 269 914 l 249 893 l 249 868 z "},"⁄":{"ha":833,"x_min":60,"x_max":774,"o":"m 574 543 l 490 543 l 490 626 l 690 1022 l 774 1022 l 774 939 l 574 543 m 143 -1 l 60 -1 l 60 82 l 264 471 l 346 471 l 346 388 l 143 -1 z "},"½":{"ha":833,"x_min":50,"x_max":783,"o":"m 424 488 l 50 488 l 50 593 l 229 593 l 229 792 l 221 792 l 151 685 l 50 685 l 50 789 l 103 789 l 183 917 l 336 917 l 336 593 l 424 593 l 424 488 m 568 486 l 482 486 l 482 554 l 676 917 l 761 917 l 761 849 l 568 486 m 151 0 l 67 0 l 67 68 l 260 432 l 346 432 l 346 364 l 151 0 m 783 0 l 393 0 l 393 175 l 464 246 l 656 246 l 682 268 l 682 304 l 656 328 l 521 328 l 494 304 l 494 276 l 393 276 l 393 350 l 475 429 l 701 429 l 783 350 l 783 224 l 701 153 l 529 153 l 504 128 l 504 100 l 783 100 l 783 0 z "},"¼":{"ha":833,"x_min":50,"x_max":783,"o":"m 424 488 l 50 488 l 50 593 l 229 593 l 229 792 l 221 792 l 151 685 l 50 685 l 50 789 l 103 789 l 183 917 l 336 917 l 336 593 l 424 593 l 424 488 m 568 486 l 482 486 l 482 554 l 676 917 l 761 917 l 761 849 l 568 486 m 151 0 l 67 0 l 67 68 l 260 432 l 346 432 l 346 364 l 151 0 m 714 0 l 610 0 l 610 106 l 342 106 l 342 196 l 467 432 l 547 432 l 547 364 l 478 222 l 478 210 l 610 210 l 610 360 l 714 360 l 714 210 l 783 210 l 783 106 l 714 106 l 714 0 z "},"¾":{"ha":833,"x_min":50,"x_max":783,"o":"m 350 486 l 135 486 l 50 568 l 50 635 l 156 635 l 156 614 l 179 589 l 307 589 l 332 613 l 332 651 l 307 675 l 150 675 l 150 746 l 232 803 l 232 810 l 50 810 l 50 917 l 425 917 l 425 833 l 307 757 l 307 753 l 356 753 l 435 678 l 435 574 l 350 486 m 568 486 l 482 486 l 482 554 l 676 917 l 761 917 l 761 849 l 568 486 m 151 0 l 67 0 l 67 68 l 260 432 l 346 432 l 346 364 l 151 0 m 714 0 l 610 0 l 610 106 l 342 106 l 342 196 l 467 432 l 547 432 l 547 364 l 478 222 l 478 210 l 610 210 l 610 360 l 714 360 l 714 210 l 783 210 l 783 106 l 714 106 l 714 0 z "},":":{"ha":833,"x_min":208,"x_max":394,"o":"m 394 0 l 208 0 l 208 189 l 394 189 l 394 0 m 394 578 l 208 578 l 208 767 l 394 767 l 394 578 z "},";":{"ha":833,"x_min":208,"x_max":394,"o":"m 279 0 l 208 0 l 208 189 l 394 189 l 394 0 l 318 -204 l 217 -204 l 236 -44 l 279 0 m 394 578 l 208 578 l 208 767 l 394 767 l 394 578 z "},"…":{"ha":833,"x_min":49,"x_max":785,"o":"m 235 0 l 49 0 l 49 189 l 235 189 l 235 0 m 510 0 l 324 0 l 324 189 l 510 189 l 510 0 m 785 0 l 599 0 l 599 189 l 785 189 l 785 0 z "},"!":{"ha":833,"x_min":208,"x_max":363,"o":"m 329 294 l 243 294 l 211 389 l 211 950 l 361 950 l 361 389 l 329 294 m 363 0 l 208 0 l 208 160 l 363 160 l 363 0 z "},"¡":{"ha":833,"x_min":208,"x_max":363,"o":"m 208 535 l 208 694 l 363 694 l 363 535 l 208 535 m 211 306 l 243 400 l 329 400 l 361 306 l 361 -256 l 211 -256 l 211 306 z "},"?":{"ha":833,"x_min":119,"x_max":700,"o":"m 436 294 l 350 294 l 317 389 l 317 553 l 464 553 l 550 642 l 550 717 l 468 800 l 350 800 l 267 717 l 267 625 l 119 625 l 119 778 l 288 950 l 532 950 l 700 778 l 700 582 l 546 424 l 468 424 l 468 389 l 436 294 m 472 0 l 318 0 l 318 163 l 472 163 l 472 0 z "},"¿":{"ha":833,"x_min":119,"x_max":700,"o":"m 347 667 l 501 667 l 501 504 l 347 504 l 347 667 m 383 372 l 469 372 l 503 278 l 503 114 l 356 114 l 269 25 l 269 -50 l 351 -133 l 469 -133 l 553 -50 l 553 42 l 700 42 l 700 -111 l 532 -283 l 288 -283 l 119 -111 l 119 85 l 274 243 l 351 243 l 351 278 l 383 372 z "},"·":{"ha":833,"x_min":324,"x_max":510,"o":"m 510 332 l 324 332 l 324 521 l 510 521 l 510 332 z "},"•":{"ha":833,"x_min":258,"x_max":575,"o":"m 349 304 l 258 400 l 258 525 l 349 621 l 485 621 l 575 525 l 575 400 l 485 304 l 349 304 z "},"*":{"ha":833,"x_min":139,"x_max":656,"o":"m 499 819 l 656 819 l 656 700 l 497 700 l 567 618 l 567 524 l 463 524 l 394 635 l 325 524 l 222 524 l 222 618 l 292 700 l 139 700 l 139 819 l 290 819 l 222 893 l 222 997 l 321 997 l 394 883 l 468 997 l 567 997 l 567 893 l 499 819 z "},"‖":{"ha":833,"x_min":219,"x_max":614,"o":"m 219 -232 l 219 996 l 369 996 l 369 -232 l 219 -232 m 464 -232 l 464 996 l 614 996 l 614 -232 l 464 -232 z "},"⁉":{"ha":833,"x_min":113,"x_max":721,"o":"m 229 294 l 154 294 l 121 389 l 121 950 l 260 950 l 260 389 l 229 294 m 508 294 l 433 294 l 401 389 l 401 542 l 558 542 l 592 576 l 592 782 l 558 817 l 488 817 l 453 782 l 453 674 l 325 674 l 325 833 l 433 944 l 611 944 l 721 833 l 721 525 l 613 414 l 539 414 l 539 389 l 508 294 m 268 0 l 113 0 l 113 160 l 268 160 l 268 0 m 551 0 l 397 0 l 397 160 l 551 160 l 551 0 z "},"‽":{"ha":833,"x_min":119,"x_max":704,"o":"m 442 294 l 357 294 l 324 389 l 324 801 l 314 801 l 263 738 l 263 625 l 119 625 l 119 788 l 283 950 l 538 950 l 704 778 l 704 582 l 551 424 l 474 424 l 474 389 l 442 294 m 474 801 l 474 561 l 490 561 l 557 642 l 557 717 l 490 801 l 474 801 m 479 0 l 325 0 l 325 160 l 479 160 l 479 0 z "},"⸘":{"ha":833,"x_min":119,"x_max":704,"o":"m 346 667 l 500 667 l 500 507 l 346 507 l 346 667 m 382 372 l 468 372 l 501 278 l 501 -135 l 511 -135 l 561 -71 l 561 42 l 704 42 l 704 -121 l 542 -283 l 286 -283 l 119 -111 l 119 85 l 274 243 l 351 243 l 351 278 l 382 372 m 351 -135 l 351 106 l 335 106 l 268 25 l 268 -50 l 335 -135 l 351 -135 z "},"#":{"ha":833,"x_min":43,"x_max":815,"o":"m 815 743 l 815 596 l 674 596 l 629 389 l 746 389 l 746 242 l 597 242 l 546 0 l 419 0 l 419 110 l 449 242 l 319 242 l 268 0 l 142 0 l 142 110 l 171 242 l 43 242 l 43 389 l 203 389 l 249 596 l 113 596 l 113 743 l 282 743 l 332 972 l 453 972 l 453 863 l 428 743 l 560 743 l 610 972 l 731 972 l 731 863 l 706 743 l 815 743 m 351 389 l 481 389 l 526 596 l 396 596 l 351 389 z "},"⁇":{"ha":833,"x_min":29,"x_max":804,"o":"m 201 294 l 126 294 l 94 389 l 94 542 l 236 542 l 269 576 l 269 782 l 235 817 l 193 817 l 158 782 l 158 674 l 29 674 l 29 833 l 139 944 l 289 944 l 396 833 l 396 525 l 289 414 l 232 414 l 232 389 l 201 294 m 608 294 l 533 294 l 501 389 l 501 542 l 643 542 l 676 576 l 676 782 l 642 817 l 599 817 l 565 782 l 565 674 l 436 674 l 436 833 l 544 944 l 696 944 l 804 833 l 804 525 l 696 414 l 639 414 l 639 389 l 608 294 m 238 0 l 85 0 l 85 160 l 238 160 l 238 0 m 642 0 l 489 0 l 489 160 l 642 160 l 642 0 z "},"⁈":{"ha":833,"x_min":104,"x_max":715,"o":"m 676 294 l 603 294 l 569 389 l 569 950 l 708 950 l 708 389 l 676 294 m 288 294 l 214 294 l 181 389 l 181 542 l 339 542 l 372 576 l 372 782 l 338 817 l 267 817 l 232 782 l 232 674 l 104 674 l 104 833 l 213 944 l 392 944 l 500 833 l 500 525 l 392 414 l 319 414 l 319 389 l 288 294 m 332 0 l 178 0 l 178 160 l 332 160 l 332 0 m 715 0 l 561 0 l 561 160 l 715 160 l 715 0 z "},"/":{"ha":833,"x_min":131,"x_max":703,"o":"m 226 -132 l 131 -132 l 131 -36 l 607 979 l 703 979 l 703 883 l 226 -132 z "},"\\":{"ha":839,"x_min":136,"x_max":708,"o":"m 708 -36 l 708 -132 l 613 -132 l 136 883 l 136 979 l 232 979 l 708 -36 z "},"(":{"ha":833,"x_min":226,"x_max":685,"o":"m 685 -278 l 429 -278 l 226 -31 l 226 767 l 429 1014 l 685 1014 l 685 861 l 500 861 l 378 713 l 378 24 l 500 -125 l 685 -125 l 685 -278 z "},")":{"ha":833,"x_min":149,"x_max":607,"o":"m 607 -31 l 404 -278 l 149 -278 l 149 -125 l 333 -125 l 456 24 l 456 713 l 333 861 l 149 861 l 149 1014 l 404 1014 l 607 767 l 607 -31 z "},"{":{"ha":833,"x_min":118,"x_max":690,"o":"m 690 -278 l 289 -278 l 289 161 l 118 322 l 118 399 l 289 560 l 289 1014 l 690 1014 l 690 872 l 440 872 l 440 518 l 279 369 l 279 350 l 440 203 l 440 -136 l 690 -136 l 690 -278 z "},"}":{"ha":833,"x_min":143,"x_max":715,"o":"m 544 161 l 544 -278 l 143 -278 l 143 -136 l 393 -136 l 393 203 l 554 350 l 554 369 l 393 518 l 393 872 l 143 872 l 143 1014 l 544 1014 l 544 560 l 715 399 l 715 322 l 544 161 z "},"[":{"ha":833,"x_min":226,"x_max":690,"o":"m 690 -278 l 226 -278 l 226 1014 l 690 1014 l 690 872 l 378 872 l 378 -136 l 690 -136 l 690 -278 z "},"]":{"ha":833,"x_min":143,"x_max":607,"o":"m 607 1014 l 607 -278 l 143 -278 l 143 -136 l 456 -136 l 456 872 l 143 872 l 143 1014 l 607 1014 z "},"⁽":{"ha":833,"x_min":354,"x_max":632,"o":"m 632 500 l 496 500 l 354 651 l 354 890 l 496 1042 l 632 1042 l 632 932 l 542 932 l 464 847 l 464 693 l 542 610 l 632 610 l 632 500 z "},"⁾":{"ha":833,"x_min":201,"x_max":479,"o":"m 479 651 l 338 500 l 201 500 l 201 610 l 292 610 l 369 693 l 369 847 l 292 932 l 201 932 l 201 1042 l 338 1042 l 479 890 l 479 651 z "},"⌈":{"ha":833,"x_min":268,"x_max":663,"o":"m 382 -176 l 268 -176 l 268 1121 l 663 1121 l 663 1007 l 382 1007 l 382 -176 z "},"⌉":{"ha":833,"x_min":171,"x_max":565,"o":"m 565 -176 l 451 -176 l 451 1007 l 171 1007 l 171 1121 l 565 1121 l 565 -176 z "},"⌊":{"ha":833,"x_min":268,"x_max":663,"o":"m 663 -162 l 268 -162 l 268 1135 l 382 1135 l 382 -49 l 663 -49 l 663 -162 z "},"⌋":{"ha":833,"x_min":171,"x_max":565,"o":"m 565 -162 l 171 -162 l 171 -49 l 451 -49 l 451 1135 l 565 1135 l 565 -162 z "},"❮":{"ha":833,"x_min":192,"x_max":544,"o":"m 544 0 l 431 0 l 192 457 l 431 917 l 544 917 l 544 799 l 363 460 l 544 118 l 544 0 z "},"❯":{"ha":833,"x_min":289,"x_max":642,"o":"m 642 457 l 403 0 l 289 0 l 289 118 l 471 460 l 289 799 l 289 917 l 403 917 l 642 457 z "},"❰":{"ha":833,"x_min":165,"x_max":564,"o":"m 564 0 l 410 0 l 165 456 l 410 917 l 564 917 l 564 765 l 394 458 l 564 151 l 564 0 z "},"❱":{"ha":833,"x_min":269,"x_max":668,"o":"m 668 456 l 424 0 l 269 0 l 269 151 l 439 458 l 269 765 l 269 917 l 424 917 l 668 456 z "},"­":{"ha":833,"x_min":189,"x_max":644,"o":"m 644 333 l 189 333 l 189 475 l 644 475 l 644 333 z "},"–":{"ha":833,"x_min":110,"x_max":724,"o":"m 724 304 l 110 304 l 110 444 l 724 444 l 724 304 z "},"—":{"ha":833,"x_min":54,"x_max":779,"o":"m 779 304 l 54 304 l 54 444 l 779 444 l 779 304 z "},"_":{"ha":833,"x_min":0,"x_max":833,"o":"m 833 -217 l 0 -217 l 0 -64 l 833 -64 l 833 -217 z "},"‗":{"ha":833,"x_min":0,"x_max":833,"o":"m 833 -114 l 0 -114 l 0 0 l 833 0 l 833 -114 m 833 -301 l 0 -301 l 0 -187 l 833 -187 l 833 -301 z "},"‚":{"ha":833,"x_min":208,"x_max":394,"o":"m 279 0 l 208 0 l 208 189 l 394 189 l 394 0 l 318 -204 l 217 -204 l 236 -44 l 279 0 z "},"„":{"ha":833,"x_min":139,"x_max":613,"o":"m 210 0 l 139 0 l 139 189 l 325 189 l 325 0 l 249 -204 l 147 -204 l 167 -44 l 210 0 m 497 0 l 426 0 l 426 189 l 613 189 l 613 0 l 536 -204 l 435 -204 l 454 -44 l 497 0 z "},"“":{"ha":833,"x_min":221,"x_max":694,"o":"m 335 917 l 407 917 l 407 728 l 221 728 l 221 917 l 296 1121 l 397 1121 l 379 961 l 335 917 m 624 917 l 694 917 l 694 728 l 508 728 l 508 917 l 585 1121 l 686 1121 l 667 961 l 624 917 z "},"”":{"ha":833,"x_min":139,"x_max":613,"o":"m 210 932 l 139 932 l 139 1121 l 325 1121 l 325 932 l 249 728 l 147 728 l 167 888 l 210 932 m 497 932 l 426 932 l 426 1121 l 613 1121 l 613 932 l 536 728 l 435 728 l 454 888 l 497 932 z "},"‘":{"ha":833,"x_min":508,"x_max":694,"o":"m 624 926 l 694 926 l 694 739 l 508 739 l 508 926 l 585 1131 l 686 1131 l 667 971 l 624 926 z "},"’":{"ha":833,"x_min":139,"x_max":325,"o":"m 210 936 l 139 936 l 139 1125 l 325 1125 l 325 936 l 249 732 l 147 732 l 167 892 l 210 936 z "},"«":{"ha":833,"x_min":133,"x_max":703,"o":"m 351 81 l 133 326 l 133 396 l 351 642 l 446 642 l 446 547 l 282 369 l 282 353 l 446 175 l 446 81 l 351 81 m 608 81 l 390 326 l 390 396 l 608 642 l 703 642 l 703 547 l 539 369 l 539 353 l 703 175 l 703 81 l 608 81 z "},"»":{"ha":833,"x_min":131,"x_max":700,"o":"m 443 396 l 443 326 l 225 81 l 131 81 l 131 175 l 294 353 l 294 369 l 131 547 l 131 642 l 225 642 l 443 396 m 700 396 l 700 326 l 482 81 l 388 81 l 388 175 l 551 353 l 551 369 l 388 547 l 388 642 l 482 642 l 700 396 z "},"‹":{"ha":833,"x_min":254,"x_max":607,"o":"m 513 78 l 254 322 l 254 399 l 513 642 l 607 642 l 607 547 l 414 369 l 414 350 l 607 174 l 607 78 l 513 78 z "},"›":{"ha":833,"x_min":226,"x_max":579,"o":"m 579 399 l 579 322 l 321 78 l 226 78 l 226 174 l 419 350 l 419 369 l 226 547 l 226 642 l 321 642 l 579 399 z "},"\"":{"ha":833,"x_min":214,"x_max":619,"o":"m 353 657 l 244 657 l 214 854 l 214 974 l 383 974 l 383 854 l 353 657 m 589 657 l 481 657 l 450 854 l 450 974 l 619 974 l 619 854 l 589 657 z "},"'":{"ha":833,"x_min":332,"x_max":501,"o":"m 471 657 l 363 657 l 332 854 l 332 974 l 501 974 l 501 854 l 471 657 z "}," ":{"ha":833,"x_min":0,"x_max":0,"o":""},"₿":{"ha":833,"x_min":76,"x_max":774,"o":"m 611 917 l 774 764 l 774 554 l 665 465 l 774 375 l 774 153 l 611 0 l 515 0 l 515 -187 l 267 -187 l 267 0 l 76 0 l 76 917 l 219 917 l 219 1104 l 357 1104 l 357 917 l 426 917 l 426 1104 l 564 1104 l 564 917 l 611 917 m 542 546 l 614 608 l 614 685 l 538 757 l 236 757 l 236 546 l 542 546 m 532 160 l 614 238 l 614 319 l 538 392 l 236 392 l 236 160 l 532 160 z "},"¢":{"ha":833,"x_min":76,"x_max":764,"o":"m 556 160 l 647 249 l 764 139 l 624 0 l 501 0 l 501 -151 l 361 -151 l 361 0 l 244 0 l 76 172 l 76 533 l 244 704 l 361 704 l 361 856 l 501 856 l 501 704 l 624 704 l 764 565 l 647 456 l 556 544 l 313 544 l 236 467 l 236 239 l 313 160 l 556 160 z "},"¤":{"ha":833,"x_min":136,"x_max":697,"o":"m 608 796 l 697 796 l 697 706 l 629 638 l 635 632 l 635 382 l 629 376 l 697 308 l 697 218 l 607 218 l 539 285 l 533 279 l 300 279 l 294 286 l 226 218 l 136 218 l 136 308 l 204 376 l 199 382 l 199 632 l 204 638 l 136 706 l 136 796 l 226 796 l 294 728 l 300 735 l 533 735 l 540 728 l 608 796 m 308 428 l 344 389 l 490 389 l 525 428 l 525 588 l 490 625 l 344 625 l 308 588 l 308 428 z "},"$":{"ha":833,"x_min":60,"x_max":774,"o":"m 308 539 l 585 539 l 774 396 l 774 167 l 589 0 l 478 0 l 478 -187 l 340 -187 l 340 0 l 247 0 l 60 168 l 60 308 l 222 308 l 222 236 l 307 160 l 529 160 l 614 236 l 614 319 l 526 388 l 253 388 l 64 525 l 64 750 l 249 917 l 340 917 l 340 1104 l 478 1104 l 478 917 l 582 917 l 771 749 l 771 608 l 607 608 l 607 681 l 522 757 l 310 757 l 224 681 l 224 603 l 308 539 z "},"€":{"ha":833,"x_min":18,"x_max":801,"o":"m 383 160 l 557 160 l 665 276 l 801 192 l 625 0 l 315 0 l 115 215 l 115 297 l 18 297 l 18 428 l 115 428 l 115 490 l 18 490 l 18 621 l 115 621 l 115 701 l 315 917 l 622 917 l 801 725 l 665 636 l 553 757 l 383 757 l 275 640 l 275 621 l 561 621 l 561 490 l 275 490 l 275 428 l 561 428 l 561 297 l 275 297 l 275 275 l 383 160 z "},"ƒ":{"ha":833,"x_min":33,"x_max":765,"o":"m 765 836 l 551 836 l 485 768 l 485 667 l 765 667 l 765 507 l 485 507 l 485 -124 l 325 -287 l 33 -287 l 33 -128 l 258 -128 l 325 -60 l 325 507 l 96 507 l 96 667 l 325 667 l 325 832 l 485 996 l 765 996 l 765 836 z "},"₴":{"ha":833,"x_min":43,"x_max":790,"o":"m 704 751 l 704 629 l 790 629 l 790 493 l 43 493 l 43 629 l 551 629 l 551 686 l 476 763 l 322 763 l 249 686 l 94 751 l 257 917 l 543 917 l 704 751 m 129 288 l 43 288 l 43 424 l 790 424 l 790 288 l 282 288 l 282 231 l 357 154 l 511 154 l 585 231 l 739 165 l 576 0 l 290 0 l 129 165 l 129 288 z "},"₽":{"ha":833,"x_min":28,"x_max":804,"o":"m 804 538 l 642 371 l 311 371 l 311 301 l 647 301 l 647 160 l 311 160 l 311 0 l 163 0 l 163 160 l 28 160 l 28 301 l 163 301 l 163 371 l 28 371 l 28 514 l 163 514 l 163 917 l 642 917 l 804 750 l 804 538 m 581 767 l 311 767 l 311 521 l 581 521 l 656 599 l 656 689 l 581 767 z "},"£":{"ha":833,"x_min":32,"x_max":788,"o":"m 568 354 l 290 354 l 290 147 l 772 147 l 772 0 l 32 0 l 32 147 l 129 147 l 129 354 l 32 354 l 32 501 l 129 501 l 129 701 l 329 917 l 608 917 l 788 725 l 658 633 l 540 757 l 399 757 l 290 640 l 290 501 l 568 501 l 568 354 z "},"₸":{"ha":833,"x_min":32,"x_max":801,"o":"m 801 768 l 32 768 l 32 917 l 801 917 l 801 768 m 500 0 l 335 0 l 338 550 l 32 550 l 32 700 l 801 700 l 801 550 l 497 550 l 500 0 z "},"₩":{"ha":833,"x_min":15,"x_max":818,"o":"m 818 629 l 818 493 l 725 493 l 718 424 l 818 424 l 818 288 l 707 288 l 681 0 l 504 0 l 422 381 l 411 381 l 329 0 l 153 0 l 126 288 l 15 288 l 15 424 l 115 424 l 108 493 l 15 493 l 15 629 l 97 629 l 71 917 l 246 917 l 261 318 l 269 318 l 346 638 l 488 638 l 561 317 l 569 317 l 588 917 l 763 917 l 736 629 l 818 629 z "},"¥":{"ha":833,"x_min":69,"x_max":764,"o":"m 647 917 l 764 917 l 764 800 l 658 629 l 731 629 l 731 493 l 575 493 l 532 424 l 731 424 l 731 288 l 500 288 l 503 0 l 332 0 l 336 288 l 106 288 l 106 424 l 304 424 l 261 493 l 106 493 l 106 629 l 176 629 l 69 800 l 69 917 l 186 917 l 414 531 l 422 531 l 647 917 z "},"∈":{"ha":833,"x_min":60,"x_max":758,"o":"m 758 639 l 328 639 l 199 501 l 199 454 l 758 454 l 758 324 l 199 324 l 199 275 l 328 139 l 758 139 l 758 0 l 260 0 l 60 215 l 60 563 l 260 778 l 758 778 l 758 639 z "},"₌":{"ha":833,"x_min":213,"x_max":621,"o":"m 621 115 l 213 115 l 213 240 l 621 240 l 621 115 m 621 -67 l 213 -67 l 213 58 l 621 58 l 621 -67 z "},"⁼":{"ha":833,"x_min":213,"x_max":621,"o":"m 621 942 l 213 942 l 213 1067 l 621 1067 l 621 942 m 621 760 l 213 760 l 213 885 l 621 885 l 621 760 z "},"∇":{"ha":833,"x_min":51,"x_max":789,"o":"m 51 796 l 51 917 l 789 917 l 789 796 l 503 0 l 339 0 l 51 796 m 613 767 l 228 767 l 228 750 l 414 236 l 428 236 l 613 750 l 613 767 z "},"₋":{"ha":833,"x_min":217,"x_max":617,"o":"m 217 24 l 217 149 l 617 149 l 617 24 l 217 24 z "},"⁻":{"ha":833,"x_min":217,"x_max":617,"o":"m 217 856 l 217 981 l 617 981 l 617 856 l 217 856 z "},"+":{"ha":833,"x_min":83,"x_max":750,"o":"m 490 97 l 343 97 l 343 357 l 83 357 l 83 504 l 343 504 l 343 764 l 490 764 l 490 504 l 750 504 l 750 357 l 490 357 l 490 97 z "},"−":{"ha":833,"x_min":125,"x_max":708,"o":"m 125 357 l 125 504 l 708 504 l 708 357 l 125 357 z "},"×":{"ha":833,"x_min":140,"x_max":694,"o":"m 246 167 l 140 167 l 140 274 l 322 446 l 140 618 l 140 725 l 246 725 l 414 547 l 419 547 l 588 725 l 694 725 l 694 618 l 511 446 l 694 274 l 694 167 l 588 167 l 419 344 l 414 344 l 246 167 z "},"÷":{"ha":833,"x_min":74,"x_max":760,"o":"m 504 606 l 329 606 l 329 785 l 504 785 l 504 606 m 760 357 l 74 357 l 74 504 l 760 504 l 760 357 m 504 76 l 329 76 l 329 256 l 504 256 l 504 76 z "},"=":{"ha":833,"x_min":125,"x_max":708,"o":"m 125 485 l 125 633 l 708 633 l 708 485 l 125 485 m 125 217 l 125 364 l 708 364 l 708 217 l 125 217 z "},"≠":{"ha":833,"x_min":74,"x_max":760,"o":"m 760 635 l 760 486 l 518 486 l 461 368 l 760 368 l 760 219 l 389 219 l 314 67 l 218 67 l 218 163 l 246 219 l 74 219 l 74 368 l 318 368 l 375 486 l 74 486 l 74 635 l 449 635 l 525 793 l 621 793 l 621 697 l 590 635 l 760 635 z "},">":{"ha":833,"x_min":131,"x_max":715,"o":"m 235 54 l 131 54 l 131 165 l 536 426 l 536 435 l 131 696 l 131 807 l 235 807 l 715 482 l 715 379 l 235 54 z "},"<":{"ha":833,"x_min":125,"x_max":710,"o":"m 710 165 l 710 54 l 606 54 l 125 379 l 125 482 l 606 807 l 710 807 l 710 696 l 304 435 l 304 426 l 710 165 z "},"≥":{"ha":833,"x_min":108,"x_max":728,"o":"m 231 210 l 108 210 l 108 332 l 542 471 l 542 482 l 108 621 l 108 743 l 231 743 l 713 571 l 713 382 l 231 210 m 728 0 l 108 0 l 108 153 l 728 153 l 728 0 z "},"≤":{"ha":833,"x_min":106,"x_max":725,"o":"m 725 210 l 603 210 l 121 382 l 121 571 l 603 743 l 725 743 l 725 621 l 292 482 l 292 471 l 725 332 l 725 210 m 725 0 l 106 0 l 106 153 l 725 153 l 725 0 z "},"±":{"ha":833,"x_min":83,"x_max":750,"o":"m 750 535 l 750 382 l 493 382 l 493 208 l 750 208 l 750 60 l 83 60 l 83 208 l 340 208 l 340 382 l 83 382 l 83 535 l 340 535 l 340 792 l 493 792 l 493 535 l 750 535 z "},"≈":{"ha":833,"x_min":68,"x_max":765,"o":"m 210 131 l 68 131 l 68 246 l 186 378 l 389 378 l 496 272 l 575 272 l 624 325 l 624 378 l 765 378 l 765 263 l 647 131 l 439 131 l 331 236 l 260 236 l 210 183 l 210 131 m 210 456 l 68 456 l 68 571 l 186 703 l 389 703 l 496 597 l 575 597 l 624 650 l 624 703 l 765 703 l 765 588 l 647 456 l 439 456 l 331 561 l 260 561 l 210 508 l 210 456 z "},"~":{"ha":833,"x_min":68,"x_max":765,"o":"m 210 321 l 68 321 l 68 436 l 186 568 l 389 568 l 496 463 l 575 463 l 624 515 l 624 568 l 765 568 l 765 453 l 647 321 l 439 321 l 331 426 l 260 426 l 210 374 l 210 321 z "},"¬":{"ha":833,"x_min":94,"x_max":729,"o":"m 581 188 l 581 365 l 94 365 l 94 514 l 729 514 l 729 188 l 581 188 z "},"^":{"ha":833,"x_min":144,"x_max":689,"o":"m 268 508 l 144 508 l 144 621 l 322 972 l 511 972 l 689 621 l 689 508 l 565 508 l 429 806 l 404 806 l 268 508 z "},"∅":{"ha":833,"x_min":60,"x_max":774,"o":"m 750 839 l 700 781 l 774 701 l 774 215 l 574 0 l 260 0 l 221 42 l 179 -22 l 83 -22 l 83 74 l 133 136 l 60 215 l 60 701 l 260 917 l 574 917 l 614 874 l 656 935 l 750 935 l 750 839 m 328 757 l 219 640 l 219 285 l 232 271 l 524 736 l 506 757 l 328 757 m 506 160 l 614 276 l 614 629 l 600 646 l 310 182 l 328 160 l 506 160 z "},"∞":{"ha":833,"x_min":44,"x_max":790,"o":"m 311 293 l 146 293 l 44 396 l 44 579 l 146 682 l 311 682 l 414 568 l 524 682 l 689 682 l 790 579 l 790 396 l 689 293 l 524 293 l 415 407 l 311 293 m 144 436 l 185 393 l 272 393 l 363 485 l 272 583 l 185 583 l 144 540 l 144 436 m 469 493 l 563 393 l 650 393 l 689 436 l 689 540 l 650 583 l 563 583 l 469 493 z "},"∫":{"ha":833,"x_min":79,"x_max":731,"o":"m 325 -149 l 79 -149 l 79 11 l 258 11 l 325 79 l 325 957 l 485 1121 l 731 1121 l 731 961 l 551 961 l 485 893 l 485 15 l 325 -149 z "},"Ω":{"ha":833,"x_min":71,"x_max":763,"o":"m 374 0 l 71 0 l 71 142 l 196 142 l 196 156 l 71 292 l 71 701 l 271 917 l 563 917 l 763 701 l 763 292 l 638 156 l 638 142 l 763 142 l 763 0 l 460 0 l 460 149 l 615 340 l 615 644 l 499 771 l 335 771 l 218 644 l 218 340 l 374 149 l 374 0 z "},"∆":{"ha":833,"x_min":51,"x_max":789,"o":"m 789 0 l 51 0 l 51 121 l 339 917 l 503 917 l 789 121 l 789 0 m 228 167 l 228 150 l 613 150 l 613 167 l 428 681 l 414 681 l 228 167 z "},"∏":{"ha":833,"x_min":76,"x_max":757,"o":"m 236 -149 l 76 -149 l 76 917 l 757 917 l 757 -149 l 597 -149 l 597 757 l 236 757 l 236 -149 z "},"∑":{"ha":833,"x_min":106,"x_max":728,"o":"m 728 -83 l 106 -83 l 106 58 l 386 424 l 386 438 l 106 803 l 106 944 l 728 944 l 728 797 l 301 797 l 301 788 l 532 489 l 532 372 l 301 74 l 301 64 l 728 64 l 728 -83 z "},"√":{"ha":833,"x_min":64,"x_max":776,"o":"m 186 274 l 64 274 l 64 414 l 304 414 l 399 26 l 407 26 l 649 986 l 776 986 l 776 864 l 513 -153 l 292 -153 l 186 274 z "},"µ":{"ha":833,"x_min":89,"x_max":744,"o":"m 235 -287 l 89 -287 l 89 704 l 249 704 l 249 239 l 344 160 l 457 160 l 585 258 l 585 704 l 744 704 l 744 0 l 606 0 l 601 78 l 593 78 l 494 0 l 308 0 l 247 43 l 235 43 l 235 -287 z "},"∂":{"ha":833,"x_min":76,"x_max":757,"o":"m 589 0 l 244 0 l 76 172 l 76 443 l 244 615 l 506 615 l 589 531 l 599 531 l 599 661 l 529 764 l 181 764 l 181 908 l 613 908 l 757 707 l 757 172 l 589 0 m 235 239 l 313 158 l 521 158 l 599 239 l 599 376 l 506 457 l 313 457 l 235 376 l 235 239 z "},"%":{"ha":833,"x_min":56,"x_max":786,"o":"m 350 529 l 161 529 l 60 632 l 60 814 l 161 917 l 350 917 l 451 814 l 451 632 l 350 529 m 592 486 l 506 486 l 506 554 l 700 917 l 786 917 l 786 849 l 592 486 m 168 676 l 206 638 l 304 638 l 343 676 l 343 769 l 304 808 l 206 808 l 168 769 l 168 676 m 142 0 l 56 0 l 56 68 l 250 432 l 335 432 l 335 364 l 142 0 m 679 0 l 490 0 l 389 103 l 389 285 l 490 388 l 679 388 l 781 285 l 781 103 l 679 0 m 497 147 l 535 108 l 633 108 l 672 147 l 672 240 l 633 279 l 535 279 l 497 240 l 497 147 z "},"‰":{"ha":833,"x_min":0,"x_max":832,"o":"m 268 529 l 94 529 l 3 632 l 3 814 l 94 917 l 268 917 l 360 814 l 360 632 l 268 529 m 461 485 l 375 485 l 375 553 l 538 917 l 624 917 l 624 849 l 461 485 m 111 674 l 142 638 l 221 638 l 251 674 l 251 772 l 221 808 l 142 808 l 111 772 l 111 674 m 86 0 l 0 0 l 0 68 l 163 432 l 249 432 l 249 364 l 86 0 m 506 0 l 369 0 l 281 96 l 281 292 l 369 388 l 506 388 l 556 331 l 604 388 l 743 388 l 832 292 l 832 96 l 743 0 l 604 0 l 556 57 l 506 0 m 381 140 l 411 108 l 478 108 l 507 140 l 507 247 l 478 279 l 411 279 l 381 247 l 381 140 m 603 140 l 633 108 l 701 108 l 731 140 l 731 247 l 701 279 l 633 279 l 603 247 l 603 140 z "},"₊":{"ha":833,"x_min":217,"x_max":617,"o":"m 475 -117 l 351 -117 l 351 25 l 217 25 l 217 149 l 351 149 l 351 290 l 475 290 l 475 149 l 617 149 l 617 25 l 475 25 l 475 -117 z "},"⁺":{"ha":833,"x_min":217,"x_max":617,"o":"m 475 696 l 351 696 l 351 838 l 217 838 l 217 961 l 351 961 l 351 1103 l 475 1103 l 475 961 l 617 961 l 617 838 l 475 838 l 475 696 z "},"∴":{"ha":833,"x_min":50,"x_max":783,"o":"m 353 406 l 268 496 l 268 613 l 353 701 l 481 701 l 564 613 l 564 496 l 481 406 l 353 406 m 133 7 l 50 97 l 50 213 l 133 303 l 261 303 l 346 213 l 346 97 l 261 7 l 133 7 m 571 7 l 488 97 l 488 213 l 571 303 l 699 303 l 783 213 l 783 97 l 699 7 l 571 7 z "},"∶":{"ha":833,"x_min":268,"x_max":564,"o":"m 353 406 l 268 496 l 268 613 l 353 701 l 481 701 l 564 613 l 564 496 l 481 406 l 353 406 m 353 7 l 268 97 l 268 214 l 353 303 l 481 303 l 564 214 l 564 97 l 481 7 l 353 7 z "},"∷":{"ha":833,"x_min":71,"x_max":763,"o":"m 154 406 l 71 496 l 71 613 l 154 701 l 282 701 l 367 613 l 367 496 l 282 406 l 154 406 m 550 406 l 467 496 l 467 613 l 550 701 l 678 701 l 763 613 l 763 496 l 678 406 l 550 406 m 154 7 l 71 97 l 71 214 l 154 303 l 282 303 l 367 214 l 367 97 l 282 7 l 154 7 m 550 7 l 467 97 l 467 214 l 550 303 l 678 303 l 763 214 l 763 97 l 678 7 l 550 7 z "},"⨀":{"ha":833,"x_min":29,"x_max":804,"o":"m 592 0 l 242 0 l 29 219 l 29 618 l 242 838 l 592 838 l 804 618 l 804 219 l 592 0 m 121 254 l 278 93 l 556 93 l 713 254 l 713 583 l 556 746 l 278 746 l 121 583 l 121 254 m 458 324 l 375 324 l 321 382 l 321 460 l 375 519 l 458 519 l 513 460 l 513 382 l 458 324 z "},"∀":{"ha":833,"x_min":53,"x_max":781,"o":"m 569 601 l 651 819 l 781 819 l 781 714 l 501 0 l 332 0 l 53 714 l 53 819 l 182 819 l 264 601 l 569 601 m 410 214 l 422 214 l 513 451 l 321 451 l 410 214 z "},"↑":{"ha":833,"x_min":86,"x_max":747,"o":"m 489 31 l 344 31 l 344 624 l 333 624 l 194 485 l 86 485 l 86 592 l 357 822 l 476 822 l 747 592 l 747 485 l 639 485 l 500 624 l 489 624 l 489 31 z "},"↗":{"ha":833,"x_min":97,"x_max":779,"o":"m 200 92 l 97 193 l 517 613 l 508 621 l 311 621 l 235 697 l 311 772 l 667 744 l 750 660 l 779 306 l 703 229 l 626 306 l 626 503 l 619 511 l 200 92 z "},"→":{"ha":833,"x_min":35,"x_max":826,"o":"m 35 344 l 35 489 l 628 489 l 628 500 l 489 639 l 489 747 l 596 747 l 826 476 l 826 357 l 596 86 l 489 86 l 489 194 l 628 333 l 628 344 l 35 344 z "},"↘":{"ha":833,"x_min":96,"x_max":778,"o":"m 96 638 l 199 739 l 618 319 l 625 328 l 625 525 l 701 601 l 778 525 l 749 171 l 665 86 l 310 58 l 233 133 l 310 210 l 507 210 l 515 218 l 96 638 z "},"↓":{"ha":833,"x_min":90,"x_max":751,"o":"m 349 799 l 493 799 l 493 206 l 504 206 l 644 346 l 751 346 l 751 239 l 481 8 l 363 8 l 90 239 l 90 346 l 199 346 l 338 206 l 349 206 l 349 799 z "},"↙":{"ha":833,"x_min":58,"x_max":740,"o":"m 638 738 l 740 636 l 321 217 l 329 208 l 526 208 l 603 132 l 526 57 l 171 85 l 88 169 l 58 524 l 135 600 l 211 524 l 211 326 l 218 318 l 638 738 z "},"←":{"ha":833,"x_min":13,"x_max":804,"o":"m 804 488 l 804 343 l 211 343 l 211 332 l 350 193 l 350 85 l 243 85 l 13 356 l 13 475 l 243 746 l 350 746 l 350 638 l 211 499 l 211 488 l 804 488 z "},"↖":{"ha":833,"x_min":61,"x_max":742,"o":"m 742 193 l 640 90 l 221 510 l 213 501 l 213 304 l 136 228 l 61 304 l 89 660 l 174 743 l 528 772 l 604 696 l 528 619 l 331 619 l 322 613 l 742 193 z "},"⇤":{"ha":833,"x_min":6,"x_max":833,"o":"m 144 85 l 6 85 l 6 747 l 144 747 l 144 85 m 532 85 l 425 85 l 193 357 l 193 475 l 425 747 l 532 747 l 532 639 l 390 500 l 390 488 l 833 488 l 833 344 l 390 344 l 390 332 l 532 193 l 532 85 z "},"⇥":{"ha":833,"x_min":0,"x_max":828,"o":"m 640 356 l 408 83 l 301 83 l 301 192 l 443 331 l 443 343 l 0 343 l 0 486 l 443 486 l 443 499 l 301 638 l 301 746 l 408 746 l 640 474 l 640 356 m 828 746 l 828 83 l 689 83 l 689 746 l 828 746 z "},"▁":{"ha":833,"x_min":0,"x_max":833,"o":"m 833 -257 l 833 -417 l 0 -417 l 0 -257 l 833 -257 z "},"▂":{"ha":833,"x_min":0,"x_max":833,"o":"m 833 -69 l 833 -417 l 0 -417 l 0 -69 l 833 -69 z "},"▃":{"ha":833,"x_min":0,"x_max":833,"o":"m 833 160 l 833 -417 l 0 -417 l 0 160 l 833 160 z "},"▄":{"ha":833,"x_min":0,"x_max":833,"o":"m 833 333 l 833 -417 l 0 -417 l 0 333 l 833 333 z "},"▅":{"ha":833,"x_min":0,"x_max":833,"o":"m 833 583 l 833 -417 l 0 -417 l 0 583 l 833 583 z "},"▆":{"ha":833,"x_min":0,"x_max":833,"o":"m 833 819 l 833 -417 l 0 -417 l 0 819 l 833 819 z "},"▇":{"ha":833,"x_min":0,"x_max":833,"o":"m 833 979 l 833 -417 l 0 -417 l 0 979 l 833 979 z "},"█":{"ha":833,"x_min":0,"x_max":833,"o":"m 833 1215 l 833 -417 l 0 -417 l 0 1215 l 833 1215 z "},"▀":{"ha":833,"x_min":0,"x_max":833,"o":"m 833 1215 l 833 499 l 0 499 l 0 1215 l 833 1215 z "},"▔":{"ha":833,"x_min":0,"x_max":833,"o":"m 833 1215 l 833 915 l 0 915 l 0 1215 l 833 1215 z "},"▏":{"ha":833,"x_min":0,"x_max":104,"o":"m 104 1215 l 104 -292 l 0 -292 l 0 1215 l 104 1215 z "},"▎":{"ha":833,"x_min":0,"x_max":194,"o":"m 194 1215 l 194 -292 l 0 -292 l 0 1215 l 194 1215 z "},"▍":{"ha":833,"x_min":0,"x_max":278,"o":"m 278 1215 l 278 -292 l 0 -292 l 0 1215 l 278 1215 z "},"▌":{"ha":833,"x_min":0,"x_max":417,"o":"m 417 1215 l 417 -292 l 0 -292 l 0 1215 l 417 1215 z "},"▋":{"ha":833,"x_min":0,"x_max":514,"o":"m 514 1215 l 514 -292 l 0 -292 l 0 1215 l 514 1215 z "},"▊":{"ha":833,"x_min":0,"x_max":625,"o":"m 625 1215 l 625 -292 l 0 -292 l 0 1215 l 625 1215 z "},"▉":{"ha":833,"x_min":0,"x_max":764,"o":"m 764 1215 l 764 -292 l 0 -292 l 0 1215 l 764 1215 z "},"▐":{"ha":833,"x_min":417,"x_max":833,"o":"m 833 -292 l 417 -292 l 417 1215 l 833 1215 l 833 -292 z "},"▕":{"ha":833,"x_min":729,"x_max":833,"o":"m 833 -292 l 729 -292 l 729 1215 l 833 1215 l 833 -292 z "},"▖":{"ha":833,"x_min":0,"x_max":417,"o":"m 417 463 l 417 -292 l 0 -292 l 0 463 l 417 463 z "},"▗":{"ha":833,"x_min":417,"x_max":833,"o":"m 833 463 l 833 -292 l 417 -292 l 417 463 l 833 463 z "},"▘":{"ha":833,"x_min":0,"x_max":417,"o":"m 417 1215 l 417 463 l 0 463 l 0 1215 l 417 1215 z "},"▙":{"ha":833,"x_min":0,"x_max":833,"o":"m 417 461 l 833 461 l 833 -292 l 0 -292 l 0 1215 l 417 1215 l 417 461 z "},"▚":{"ha":833,"x_min":0,"x_max":833,"o":"m 417 1215 l 417 463 l 0 463 l 0 1215 l 417 1215 m 833 463 l 833 -292 l 417 -292 l 417 463 l 833 463 z "},"▛":{"ha":833,"x_min":0,"x_max":833,"o":"m 833 1215 l 833 463 l 417 463 l 417 -292 l 0 -292 l 0 1215 l 833 1215 z "},"▜":{"ha":833,"x_min":0,"x_max":833,"o":"m 417 463 l 0 463 l 0 1215 l 833 1215 l 833 -292 l 417 -292 l 417 463 z "},"▝":{"ha":833,"x_min":417,"x_max":833,"o":"m 833 463 l 417 463 l 417 1215 l 833 1215 l 833 463 z "},"▞":{"ha":833,"x_min":0,"x_max":833,"o":"m 833 463 l 417 463 l 417 1215 l 833 1215 l 833 463 m 417 -292 l 0 -292 l 0 463 l 417 463 l 417 -292 z "},"▟":{"ha":833,"x_min":0,"x_max":833,"o":"m 0 -292 l 0 461 l 417 461 l 417 1215 l 833 1215 l 833 -292 l 0 -292 z "},"░":{"ha":833,"x_min":71,"x_max":833,"o":"m 167 1278 l 71 1278 l 71 1371 l 167 1371 l 167 1278 m 333 1278 l 238 1278 l 238 1371 l 333 1371 l 333 1278 m 500 1278 l 404 1278 l 404 1371 l 500 1371 l 500 1278 m 667 1278 l 571 1278 l 571 1371 l 667 1371 l 667 1278 m 833 1278 l 738 1278 l 738 1371 l 833 1371 l 833 1278 m 167 1113 l 71 1113 l 71 1206 l 167 1206 l 167 1113 m 333 1113 l 238 1113 l 238 1206 l 333 1206 l 333 1113 m 500 1113 l 404 1113 l 404 1206 l 500 1206 l 500 1113 m 667 1113 l 571 1113 l 571 1206 l 667 1206 l 667 1113 m 833 1113 l 738 1113 l 738 1206 l 833 1206 l 833 1113 m 167 947 l 71 947 l 71 1040 l 167 1040 l 167 947 m 333 947 l 238 947 l 238 1040 l 333 1040 l 333 947 m 500 947 l 404 947 l 404 1040 l 500 1040 l 500 947 m 667 947 l 571 947 l 571 1040 l 667 1040 l 667 947 m 833 947 l 738 947 l 738 1040 l 833 1040 l 833 947 m 167 782 l 71 782 l 71 875 l 167 875 l 167 782 m 333 782 l 238 782 l 238 875 l 333 875 l 333 782 m 500 782 l 404 782 l 404 875 l 500 875 l 500 782 m 667 782 l 571 782 l 571 875 l 667 875 l 667 782 m 833 782 l 738 782 l 738 875 l 833 875 l 833 782 m 167 617 l 71 617 l 71 710 l 167 710 l 167 617 m 333 617 l 238 617 l 238 710 l 333 710 l 333 617 m 500 617 l 404 617 l 404 710 l 500 710 l 500 617 m 667 617 l 571 617 l 571 710 l 667 710 l 667 617 m 833 617 l 738 617 l 738 710 l 833 710 l 833 617 m 167 451 l 71 451 l 71 544 l 167 544 l 167 451 m 333 451 l 238 451 l 238 544 l 333 544 l 333 451 m 500 451 l 404 451 l 404 544 l 500 544 l 500 451 m 667 451 l 571 451 l 571 544 l 667 544 l 667 451 m 833 451 l 738 451 l 738 544 l 833 544 l 833 451 m 167 286 l 71 286 l 71 379 l 167 379 l 167 286 m 333 286 l 238 286 l 238 379 l 333 379 l 333 286 m 500 286 l 404 286 l 404 379 l 500 379 l 500 286 m 667 286 l 571 286 l 571 379 l 667 379 l 667 286 m 833 286 l 738 286 l 738 379 l 833 379 l 833 286 m 167 121 l 71 121 l 71 214 l 167 214 l 167 121 m 333 121 l 238 121 l 238 214 l 333 214 l 333 121 m 500 121 l 404 121 l 404 214 l 500 214 l 500 121 m 667 121 l 571 121 l 571 214 l 667 214 l 667 121 m 833 121 l 738 121 l 738 214 l 833 214 l 833 121 m 167 -44 l 71 -44 l 71 49 l 167 49 l 167 -44 m 333 -44 l 238 -44 l 238 49 l 333 49 l 333 -44 m 500 -44 l 404 -44 l 404 49 l 500 49 l 500 -44 m 667 -44 l 571 -44 l 571 49 l 667 49 l 667 -44 m 833 -44 l 738 -44 l 738 49 l 833 49 l 833 -44 m 167 -210 l 71 -210 l 71 -117 l 167 -117 l 167 -210 m 333 -210 l 238 -210 l 238 -117 l 333 -117 l 333 -210 m 500 -210 l 404 -210 l 404 -117 l 500 -117 l 500 -210 m 667 -210 l 571 -210 l 571 -117 l 667 -117 l 667 -210 m 833 -210 l 738 -210 l 738 -117 l 833 -117 l 833 -210 m 167 -375 l 71 -375 l 71 -282 l 167 -282 l 167 -375 m 333 -375 l 238 -375 l 238 -282 l 333 -282 l 333 -375 m 500 -375 l 404 -375 l 404 -282 l 500 -282 l 500 -375 m 667 -375 l 571 -375 l 571 -282 l 667 -282 l 667 -375 m 833 -375 l 738 -375 l 738 -282 l 833 -282 l 833 -375 z "},"▒":{"ha":833,"x_min":-3,"x_max":836,"o":"m 836 1381 l 836 1293 l 756 1293 l 756 1218 l 836 1218 l 836 1129 l 756 1129 l 756 1051 l 836 1051 l 836 964 l 756 964 l 756 886 l 836 886 l 836 797 l 756 797 l 756 722 l 836 722 l 836 632 l 756 632 l 756 557 l 836 557 l 836 471 l 756 471 l 756 396 l 836 396 l 836 310 l 756 310 l 756 233 l 836 233 l 836 144 l 756 144 l 756 67 l 836 67 l 836 -19 l 756 -19 l 756 -96 l 836 -96 l 836 -185 l 756 -185 l 756 -262 l 836 -262 l 836 -349 l 756 -349 l 756 -433 l 667 -433 l 667 -349 l 588 -349 l 588 -433 l 499 -433 l 499 -349 l 421 -349 l 421 -433 l 332 -433 l 332 -349 l 254 -349 l 254 -433 l 164 -433 l 164 -349 l 86 -349 l 86 -433 l -3 -433 l -3 -343 l 81 -343 l 81 -268 l -3 -268 l -3 -179 l 81 -179 l 81 -101 l -3 -101 l -3 -14 l 81 -14 l 81 61 l -3 61 l -3 150 l 81 150 l 81 228 l -3 228 l -3 315 l 81 315 l 81 390 l -3 390 l -3 476 l 81 476 l 81 551 l -3 551 l -3 638 l 81 638 l 81 717 l -3 717 l -3 803 l 81 803 l 81 881 l -3 881 l -3 969 l 81 969 l 81 1046 l -3 1046 l -3 1135 l 81 1135 l 81 1213 l -3 1213 l -3 1299 l 81 1299 l 81 1381 l 169 1381 l 169 1299 l 249 1299 l 249 1381 l 338 1381 l 338 1299 l 415 1299 l 415 1381 l 504 1381 l 504 1299 l 582 1299 l 582 1381 l 672 1381 l 672 1299 l 750 1299 l 750 1381 l 836 1381 m 86 1218 l 164 1218 l 164 1293 l 86 1293 l 86 1218 m 254 1218 l 332 1218 l 332 1293 l 254 1293 l 254 1218 m 421 1218 l 499 1218 l 499 1293 l 421 1293 l 421 1218 m 588 1218 l 667 1218 l 667 1293 l 588 1293 l 588 1218 m 169 1135 l 249 1135 l 249 1213 l 169 1213 l 169 1135 m 338 1135 l 415 1135 l 415 1213 l 338 1213 l 338 1135 m 504 1135 l 582 1135 l 582 1213 l 504 1213 l 504 1135 m 750 1213 l 672 1213 l 672 1135 l 750 1135 l 750 1213 m 86 1051 l 164 1051 l 164 1129 l 86 1129 l 86 1051 m 332 1129 l 254 1129 l 254 1051 l 332 1051 l 332 1129 m 499 1129 l 421 1129 l 421 1051 l 499 1051 l 499 1129 m 588 1051 l 667 1051 l 667 1129 l 588 1129 l 588 1051 m 249 1046 l 169 1046 l 169 969 l 249 969 l 249 1046 m 338 969 l 415 969 l 415 1046 l 338 1046 l 338 969 m 504 969 l 582 969 l 582 1046 l 504 1046 l 504 969 m 750 1046 l 672 1046 l 672 969 l 750 969 l 750 1046 m 86 886 l 164 886 l 164 964 l 86 964 l 86 886 m 332 964 l 254 964 l 254 886 l 332 886 l 332 964 m 499 964 l 421 964 l 421 886 l 499 886 l 499 964 m 588 886 l 667 886 l 667 964 l 588 964 l 588 886 m 249 881 l 169 881 l 169 803 l 249 803 l 249 881 m 338 803 l 415 803 l 415 881 l 338 881 l 338 803 m 504 803 l 582 803 l 582 881 l 504 881 l 504 803 m 750 881 l 672 881 l 672 803 l 750 803 l 750 881 m 86 722 l 164 722 l 164 797 l 86 797 l 86 722 m 332 797 l 254 797 l 254 722 l 332 722 l 332 797 m 421 722 l 499 722 l 499 797 l 421 797 l 421 722 m 588 722 l 667 722 l 667 797 l 588 797 l 588 722 m 249 717 l 169 717 l 169 638 l 249 638 l 249 717 m 415 717 l 338 717 l 338 638 l 415 638 l 415 717 m 504 638 l 582 638 l 582 717 l 504 717 l 504 638 m 750 717 l 672 717 l 672 638 l 750 638 l 750 717 m 86 557 l 164 557 l 164 632 l 86 632 l 86 557 m 332 632 l 254 632 l 254 557 l 332 557 l 332 632 m 421 557 l 499 557 l 499 632 l 421 632 l 421 557 m 588 557 l 667 557 l 667 632 l 588 632 l 588 557 m 249 551 l 169 551 l 169 476 l 249 476 l 249 551 m 415 551 l 338 551 l 338 476 l 415 476 l 415 551 m 504 476 l 582 476 l 582 551 l 504 551 l 504 476 m 750 551 l 672 551 l 672 476 l 750 476 l 750 551 m 86 396 l 164 396 l 164 471 l 86 471 l 86 396 m 332 471 l 254 471 l 254 396 l 332 396 l 332 471 m 421 396 l 499 396 l 499 471 l 421 471 l 421 396 m 588 396 l 667 396 l 667 471 l 588 471 l 588 396 m 249 390 l 169 390 l 169 315 l 249 315 l 249 390 m 415 390 l 338 390 l 338 315 l 415 315 l 415 390 m 504 315 l 582 315 l 582 390 l 504 390 l 504 315 m 750 390 l 672 390 l 672 315 l 750 315 l 750 390 m 86 233 l 164 233 l 164 310 l 86 310 l 86 233 m 332 310 l 254 310 l 254 233 l 332 233 l 332 310 m 421 233 l 499 233 l 499 310 l 421 310 l 421 233 m 588 233 l 667 233 l 667 310 l 588 310 l 588 233 m 249 228 l 169 228 l 169 150 l 249 150 l 249 228 m 338 150 l 415 150 l 415 228 l 338 228 l 338 150 m 504 150 l 582 150 l 582 228 l 504 228 l 504 150 m 750 228 l 672 228 l 672 150 l 750 150 l 750 228 m 86 67 l 164 67 l 164 144 l 86 144 l 86 67 m 332 144 l 254 144 l 254 67 l 332 67 l 332 144 m 499 144 l 421 144 l 421 67 l 499 67 l 499 144 m 588 67 l 667 67 l 667 144 l 588 144 l 588 67 m 249 61 l 169 61 l 169 -14 l 249 -14 l 249 61 m 338 -14 l 415 -14 l 415 61 l 338 61 l 338 -14 m 504 -14 l 582 -14 l 582 61 l 504 61 l 504 -14 m 750 61 l 672 61 l 672 -14 l 750 -14 l 750 61 m 86 -96 l 164 -96 l 164 -19 l 86 -19 l 86 -96 m 332 -19 l 254 -19 l 254 -96 l 332 -96 l 332 -19 m 499 -19 l 421 -19 l 421 -96 l 499 -96 l 499 -19 m 588 -96 l 667 -96 l 667 -19 l 588 -19 l 588 -96 m 169 -179 l 249 -179 l 249 -101 l 169 -101 l 169 -179 m 338 -179 l 415 -179 l 415 -101 l 338 -101 l 338 -179 m 504 -179 l 582 -179 l 582 -101 l 504 -101 l 504 -179 m 750 -101 l 672 -101 l 672 -179 l 750 -179 l 750 -101 m 86 -262 l 164 -262 l 164 -185 l 86 -185 l 86 -262 m 332 -185 l 254 -185 l 254 -262 l 332 -262 l 332 -185 m 499 -185 l 421 -185 l 421 -262 l 499 -262 l 499 -185 m 667 -185 l 588 -185 l 588 -262 l 667 -262 l 667 -185 m 249 -268 l 169 -268 l 169 -343 l 249 -343 l 249 -268 m 415 -268 l 338 -268 l 338 -343 l 415 -343 l 415 -268 m 582 -268 l 504 -268 l 504 -343 l 582 -343 l 582 -268 m 750 -268 l 672 -268 l 672 -343 l 750 -343 l 750 -268 z "},"▓":{"ha":833,"x_min":-1,"x_max":839,"o":"m 839 1415 l 839 -403 l -1 -403 l -1 -300 l 76 -300 l 76 -233 l -1 -233 l -1 -136 l 76 -136 l 76 -69 l -1 -69 l -1 28 l 76 28 l 76 94 l -1 94 l -1 192 l 76 192 l 76 258 l -1 258 l -1 349 l 76 349 l 76 415 l -1 415 l -1 513 l 76 513 l 76 579 l -1 579 l -1 676 l 76 676 l 76 743 l -1 743 l -1 840 l 76 840 l 76 907 l -1 907 l -1 1004 l 76 1004 l 76 1071 l -1 1071 l -1 1168 l 76 1168 l 76 1235 l -1 1235 l -1 1333 l 76 1333 l 76 1415 l 174 1415 l 174 1333 l 243 1333 l 243 1415 l 340 1415 l 340 1333 l 410 1333 l 410 1415 l 507 1415 l 507 1333 l 576 1333 l 576 1415 l 674 1415 l 674 1333 l 743 1333 l 743 1415 l 839 1415 m 243 1235 l 174 1235 l 174 1168 l 243 1168 l 243 1235 m 410 1235 l 340 1235 l 340 1168 l 410 1168 l 410 1235 m 576 1235 l 507 1235 l 507 1168 l 576 1168 l 576 1235 m 743 1235 l 674 1235 l 674 1168 l 743 1168 l 743 1235 m 243 1071 l 174 1071 l 174 1004 l 243 1004 l 243 1071 m 410 1071 l 340 1071 l 340 1004 l 410 1004 l 410 1071 m 576 1071 l 507 1071 l 507 1004 l 576 1004 l 576 1071 m 743 1071 l 674 1071 l 674 1004 l 743 1004 l 743 1071 m 243 907 l 174 907 l 174 840 l 243 840 l 243 907 m 410 907 l 340 907 l 340 840 l 410 840 l 410 907 m 576 907 l 507 907 l 507 840 l 576 840 l 576 907 m 743 907 l 674 907 l 674 840 l 743 840 l 743 907 m 243 743 l 174 743 l 174 676 l 243 676 l 243 743 m 410 743 l 340 743 l 340 676 l 410 676 l 410 743 m 576 743 l 507 743 l 507 676 l 576 676 l 576 743 m 743 743 l 674 743 l 674 676 l 743 676 l 743 743 m 243 579 l 174 579 l 174 513 l 243 513 l 243 579 m 410 579 l 340 579 l 340 513 l 410 513 l 410 579 m 576 579 l 507 579 l 507 513 l 576 513 l 576 579 m 743 579 l 674 579 l 674 513 l 743 513 l 743 579 m 243 415 l 174 415 l 174 349 l 243 349 l 243 415 m 410 415 l 340 415 l 340 349 l 410 349 l 410 415 m 576 415 l 507 415 l 507 349 l 576 349 l 576 415 m 743 415 l 674 415 l 674 349 l 743 349 l 743 415 m 576 261 l 507 261 l 507 192 l 576 192 l 576 261 m 243 258 l 174 258 l 174 192 l 243 192 l 243 258 m 410 258 l 340 258 l 340 192 l 410 192 l 410 258 m 743 258 l 674 258 l 674 192 l 743 192 l 743 258 m 243 94 l 174 94 l 174 28 l 243 28 l 243 94 m 410 94 l 340 94 l 340 28 l 410 28 l 410 94 m 576 94 l 507 94 l 507 28 l 576 28 l 576 94 m 743 94 l 674 94 l 674 28 l 743 28 l 743 94 m 243 -69 l 174 -69 l 174 -136 l 243 -136 l 243 -69 m 410 -69 l 340 -69 l 340 -136 l 410 -136 l 410 -69 m 576 -69 l 507 -69 l 507 -136 l 576 -136 l 576 -69 m 743 -69 l 674 -69 l 674 -136 l 743 -136 l 743 -69 m 243 -233 l 174 -233 l 174 -300 l 243 -300 l 243 -233 m 410 -233 l 340 -233 l 340 -300 l 410 -300 l 410 -233 m 576 -233 l 507 -233 l 507 -300 l 576 -300 l 576 -233 m 743 -233 l 674 -233 l 674 -300 l 743 -300 l 743 -233 z "},"●":{"ha":833,"x_min":25,"x_max":808,"o":"m 585 21 l 249 21 l 25 250 l 25 597 l 249 826 l 585 826 l 808 597 l 808 250 l 585 21 z "},"○":{"ha":833,"x_min":25,"x_max":808,"o":"m 585 21 l 249 21 l 25 250 l 25 597 l 249 826 l 585 826 l 808 597 l 808 250 l 585 21 m 139 297 l 297 135 l 536 135 l 694 297 l 694 551 l 536 713 l 297 713 l 139 551 l 139 297 z "},"◔":{"ha":833,"x_min":25,"x_max":808,"o":"m 585 21 l 249 21 l 25 250 l 25 597 l 249 826 l 585 826 l 808 597 l 808 250 l 585 21 m 139 297 l 297 135 l 536 135 l 694 297 l 694 425 l 417 425 l 417 713 l 297 713 l 139 551 l 139 297 z "},"◕":{"ha":833,"x_min":25,"x_max":808,"o":"m 585 21 l 249 21 l 25 250 l 25 597 l 249 826 l 585 826 l 808 597 l 808 250 l 585 21 m 417 713 l 417 424 l 694 424 l 694 551 l 536 713 l 417 713 z "},"◎":{"ha":833,"x_min":25,"x_max":808,"o":"m 585 21 l 249 21 l 25 250 l 25 597 l 249 826 l 585 826 l 808 597 l 808 250 l 585 21 m 139 297 l 297 135 l 536 135 l 694 297 l 694 551 l 536 713 l 297 713 l 139 551 l 139 297 m 492 260 l 342 260 l 250 351 l 250 496 l 342 588 l 492 588 l 583 496 l 583 351 l 492 260 m 343 393 l 382 354 l 453 354 l 490 392 l 490 454 l 451 493 l 381 493 l 343 456 l 343 393 z "},"◦":{"ha":833,"x_min":251,"x_max":585,"o":"m 493 299 l 343 299 l 251 390 l 251 535 l 343 626 l 493 626 l 585 535 l 585 390 l 493 299 m 344 432 l 383 393 l 454 393 l 490 431 l 490 493 l 453 532 l 382 532 l 344 494 l 344 432 z "},"◆":{"ha":833,"x_min":63,"x_max":771,"o":"m 444 69 l 389 69 l 63 385 l 63 460 l 389 775 l 444 775 l 771 460 l 771 385 l 444 69 z "},"◇":{"ha":833,"x_min":63,"x_max":771,"o":"m 444 69 l 389 69 l 63 385 l 63 460 l 389 775 l 444 775 l 771 460 l 771 385 l 444 69 m 193 417 l 411 207 l 422 207 l 640 417 l 640 428 l 422 638 l 411 638 l 193 428 l 193 417 z "},"◊":{"ha":833,"x_min":50,"x_max":783,"o":"m 504 0 l 331 0 l 50 458 l 331 917 l 504 917 l 783 458 l 504 0 m 229 458 l 406 167 l 429 167 l 604 458 l 429 750 l 404 750 l 229 458 z "},"■":{"ha":833,"x_min":25,"x_max":808,"o":"m 808 21 l 25 21 l 25 826 l 808 826 l 808 21 z "},"□":{"ha":833,"x_min":25,"x_max":808,"o":"m 808 21 l 25 21 l 25 826 l 808 826 l 808 21 m 139 713 l 139 135 l 694 135 l 694 713 l 139 713 z "},"▪":{"ha":833,"x_min":174,"x_max":660,"o":"m 660 257 l 174 257 l 174 743 l 660 743 l 660 257 z "},"▫":{"ha":833,"x_min":174,"x_max":660,"o":"m 660 257 l 174 257 l 174 743 l 660 743 l 660 257 m 288 629 l 288 371 l 546 371 l 546 629 l 288 629 z "},"▲":{"ha":833,"x_min":64,"x_max":769,"o":"m 769 267 l 769 139 l 64 139 l 64 267 l 379 607 l 454 607 l 769 267 z "},"▶":{"ha":833,"x_min":199,"x_max":667,"o":"m 326 69 l 199 69 l 199 775 l 326 775 l 667 460 l 667 385 l 326 69 z "},"▼":{"ha":833,"x_min":64,"x_max":769,"o":"m 64 631 l 769 631 l 769 503 l 454 163 l 379 163 l 64 503 l 64 631 z "},"◀":{"ha":833,"x_min":160,"x_max":628,"o":"m 500 775 l 628 775 l 628 69 l 500 69 l 160 385 l 160 460 l 500 775 z "},"△":{"ha":833,"x_min":64,"x_max":769,"o":"m 769 267 l 769 139 l 64 139 l 64 267 l 379 607 l 454 607 l 769 267 m 215 253 l 618 253 l 618 261 l 422 475 l 411 475 l 215 261 l 215 253 z "},"▷":{"ha":833,"x_min":206,"x_max":674,"o":"m 206 69 l 206 775 l 333 775 l 674 460 l 674 385 l 333 69 l 206 69 m 328 624 l 319 624 l 319 221 l 328 221 l 542 417 l 542 428 l 328 624 z "},"▽":{"ha":833,"x_min":64,"x_max":769,"o":"m 64 631 l 769 631 l 769 503 l 454 163 l 379 163 l 64 503 l 64 631 m 618 508 l 618 517 l 215 517 l 215 508 l 411 294 l 422 294 l 618 508 z "},"◁":{"ha":833,"x_min":160,"x_max":628,"o":"m 500 775 l 628 775 l 628 69 l 500 69 l 160 385 l 160 460 l 500 775 m 514 221 l 514 624 l 506 624 l 292 428 l 292 417 l 506 221 l 514 221 z "},"►":{"ha":833,"x_min":76,"x_max":764,"o":"m 168 100 l 76 100 l 76 628 l 167 628 l 764 375 l 764 356 l 168 100 z "},"◄":{"ha":833,"x_min":76,"x_max":764,"o":"m 764 628 l 764 100 l 672 100 l 76 356 l 76 375 l 674 628 l 764 628 z "},"▻":{"ha":833,"x_min":76,"x_max":764,"o":"m 168 100 l 76 100 l 76 628 l 167 628 l 764 375 l 764 356 l 168 100 m 190 494 l 190 235 l 201 235 l 515 360 l 515 369 l 201 494 l 190 494 z "},"◅":{"ha":833,"x_min":69,"x_max":757,"o":"m 757 628 l 757 100 l 665 100 l 69 356 l 69 375 l 667 628 l 757 628 m 632 235 l 643 235 l 643 494 l 632 494 l 318 369 l 318 360 l 632 235 z "},"┘":{"ha":833,"x_min":-28,"x_max":474,"o":"m 360 583 l 360 1618 l 474 1618 l 474 469 l -28 469 l -28 583 l 360 583 z "},"└":{"ha":833,"x_min":360,"x_max":861,"o":"m 360 1618 l 474 1618 l 474 583 l 861 583 l 861 469 l 360 469 l 360 1618 z "},"─":{"ha":833,"x_min":-28,"x_max":861,"o":"m 861 618 l 861 403 l -28 403 l -28 618 l 861 618 z "},"━":{"ha":833,"x_min":-56,"x_max":889,"o":"m -56 572 l 889 572 l 889 458 l -56 458 l -56 572 z "},"│":{"ha":833,"x_min":360,"x_max":474,"o":"m 474 1278 l 474 -417 l 360 -417 l 360 1278 l 474 1278 z "},"┃":{"ha":833,"x_min":310,"x_max":524,"o":"m 524 1278 l 524 -417 l 310 -417 l 310 1278 l 524 1278 z "},"┄":{"ha":833,"x_min":51,"x_max":782,"o":"m 226 572 l 226 458 l 51 458 l 51 572 l 226 572 m 504 572 l 504 458 l 329 458 l 329 572 l 504 572 m 782 572 l 782 458 l 607 458 l 607 572 l 782 572 z "},"┅":{"ha":833,"x_min":51,"x_max":782,"o":"m 226 618 l 226 403 l 51 403 l 51 618 l 226 618 m 504 618 l 504 403 l 329 403 l 329 618 l 504 618 m 782 618 l 782 403 l 607 403 l 607 618 l 782 618 z "},"┆":{"ha":833,"x_min":360,"x_max":474,"o":"m 474 788 l 360 788 l 360 1146 l 474 1146 l 474 788 m 474 290 l 360 290 l 360 647 l 474 647 l 474 290 m 474 -208 l 360 -208 l 360 150 l 474 150 l 474 -208 z "},"┇":{"ha":833,"x_min":340,"x_max":493,"o":"m 493 788 l 340 788 l 340 1139 l 493 1139 l 493 788 m 493 290 l 340 290 l 340 647 l 493 647 l 493 290 m 493 -201 l 340 -201 l 340 150 l 493 150 l 493 -201 z "},"┊":{"ha":833,"x_min":360,"x_max":474,"o":"m 474 874 l 360 874 l 360 1181 l 474 1181 l 474 874 m 474 501 l 360 501 l 360 806 l 474 806 l 474 501 m 474 129 l 360 129 l 360 432 l 474 432 l 474 129 m 474 -242 l 360 -242 l 360 60 l 474 60 l 474 -242 z "},"┌":{"ha":833,"x_min":360,"x_max":861,"o":"m 474 469 l 474 -556 l 360 -556 l 360 583 l 861 583 l 861 469 l 474 469 z "},"┏":{"ha":833,"x_min":310,"x_max":861,"o":"m 524 403 l 524 -556 l 310 -556 l 310 618 l 861 618 l 861 403 l 524 403 z "},"┐":{"ha":833,"x_min":-28,"x_max":474,"o":"m 474 -556 l 360 -556 l 360 469 l -28 469 l -28 583 l 474 583 l 474 -556 z "},"┓":{"ha":833,"x_min":-28,"x_max":524,"o":"m 524 618 l 524 -556 l 310 -556 l 310 403 l -28 403 l -28 618 l 524 618 z "},"┗":{"ha":833,"x_min":310,"x_max":861,"o":"m 861 403 l 310 403 l 310 1576 l 524 1576 l 524 618 l 861 618 l 861 403 z "},"┛":{"ha":833,"x_min":-28,"x_max":524,"o":"m 524 403 l -28 403 l -28 618 l 310 618 l 310 1576 l 524 1576 l 524 403 z "},"├":{"ha":833,"x_min":360,"x_max":861,"o":"m 474 469 l 474 -556 l 360 -556 l 360 1556 l 474 1556 l 474 583 l 861 583 l 861 469 l 474 469 z "},"┣":{"ha":833,"x_min":310,"x_max":840,"o":"m 524 -556 l 310 -556 l 310 1556 l 524 1556 l 524 618 l 840 618 l 840 403 l 524 403 l 524 -556 z "},"┤":{"ha":833,"x_min":-28,"x_max":474,"o":"m 474 -556 l 360 -556 l 360 469 l -28 469 l -28 583 l 360 583 l 360 1556 l 474 1556 l 474 -556 z "},"┫":{"ha":833,"x_min":-28,"x_max":524,"o":"m 524 1556 l 524 -556 l 310 -556 l 310 403 l -28 403 l -28 618 l 310 618 l 310 1556 l 524 1556 z "},"┬":{"ha":833,"x_min":-28,"x_max":861,"o":"m 474 -556 l 360 -556 l 360 469 l -28 469 l -28 583 l 861 583 l 861 469 l 474 469 l 474 -556 z "},"┳":{"ha":833,"x_min":-29,"x_max":860,"o":"m 524 -561 l 310 -561 l 310 404 l -29 404 l -29 619 l 860 619 l 860 404 l 524 404 l 524 -561 z "},"┻":{"ha":833,"x_min":-31,"x_max":860,"o":"m 860 403 l -31 403 l -31 618 l 310 618 l 310 1764 l 524 1764 l 524 618 l 860 618 l 860 403 z "},"┼":{"ha":833,"x_min":-28,"x_max":861,"o":"m 360 469 l -28 469 l -28 583 l 360 583 l 360 1608 l 474 1608 l 474 583 l 861 583 l 861 469 l 474 469 l 474 -556 l 360 -556 l 360 469 z "},"╋":{"ha":833,"x_min":-31,"x_max":860,"o":"m 524 -560 l 310 -560 l 310 403 l -31 403 l -31 618 l 310 618 l 310 1764 l 524 1764 l 524 618 l 860 618 l 860 403 l 524 403 l 524 -560 z "},"╎":{"ha":833,"x_min":360,"x_max":474,"o":"m 474 572 l 360 572 l 360 1188 l 474 1188 l 474 572 m 474 -181 l 360 -181 l 360 435 l 474 435 l 474 -181 z "},"╏":{"ha":833,"x_min":311,"x_max":526,"o":"m 526 1164 l 526 600 l 311 600 l 311 1164 l 526 1164 m 526 414 l 526 -143 l 311 -143 l 311 414 l 526 414 z "},"═":{"ha":833,"x_min":-28,"x_max":861,"o":"m 861 697 l 861 583 l -28 583 l -28 697 l 861 697 m 861 444 l 861 331 l -28 331 l -28 444 l 861 444 z "},"║":{"ha":833,"x_min":233,"x_max":600,"o":"m 347 1556 l 347 -556 l 233 -556 l 233 1556 l 347 1556 m 600 1556 l 600 -556 l 486 -556 l 486 1556 l 600 1556 z "},"╔":{"ha":833,"x_min":136,"x_max":861,"o":"m 250 583 l 250 -556 l 136 -556 l 136 697 l 861 697 l 861 583 l 250 583 m 503 331 l 503 -556 l 389 -556 l 389 444 l 861 444 l 861 331 l 503 331 z "},"╗":{"ha":833,"x_min":-28,"x_max":697,"o":"m 697 -556 l 583 -556 l 583 583 l -28 583 l -28 697 l 697 697 l 697 -556 m 444 -556 l 331 -556 l 331 331 l -28 331 l -28 444 l 444 444 l 444 -556 z "},"╚":{"ha":833,"x_min":208,"x_max":933,"o":"m 933 403 l 208 403 l 208 1656 l 322 1656 l 322 517 l 933 517 l 933 403 m 933 656 l 461 656 l 461 1656 l 576 1656 l 576 771 l 933 771 l 933 656 z "},"╝":{"ha":833,"x_min":-28,"x_max":697,"o":"m 697 403 l -28 403 l -28 517 l 583 517 l 583 1656 l 697 1656 l 697 403 m 444 656 l -28 656 l -28 771 l 331 771 l 331 1656 l 444 1656 l 444 656 z "},"╠":{"ha":833,"x_min":218,"x_max":958,"o":"m 333 -556 l 218 -556 l 218 1556 l 333 1556 l 333 -556 m 958 583 l 472 583 l 472 1556 l 586 1556 l 586 697 l 958 697 l 958 583 m 586 -556 l 472 -556 l 472 444 l 958 444 l 958 331 l 586 331 l 586 -556 z "},"╣":{"ha":833,"x_min":-136,"x_max":604,"o":"m 351 583 l -136 583 l -136 697 l 236 697 l 236 1556 l 351 1556 l 351 583 m 604 -556 l 490 -556 l 490 1556 l 604 1556 l 604 -556 m 351 -556 l 236 -556 l 236 331 l -136 331 l -136 444 l 351 444 l 351 -556 z "},"╬":{"ha":833,"x_min":-28,"x_max":861,"o":"m 347 1556 l 347 583 l -28 583 l -28 697 l 233 697 l 233 1556 l 347 1556 m 861 697 l 861 583 l 486 583 l 486 1556 l 600 1556 l 600 697 l 861 697 m 347 444 l 347 -556 l 233 -556 l 233 331 l -28 331 l -28 444 l 347 444 m 600 331 l 600 -556 l 486 -556 l 486 444 l 861 444 l 861 331 l 600 331 z "},"╱":{"ha":833,"x_min":-36,"x_max":854,"o":"m 50 -469 l -36 -469 l -36 -383 l 768 1396 l 854 1396 l 854 1310 l 50 -469 z "},"╲":{"ha":833,"x_min":-21,"x_max":869,"o":"m 869 -383 l 869 -469 l 783 -469 l -21 1310 l -21 1396 l 65 1396 l 869 -383 z "},"╳":{"ha":833,"x_min":-36,"x_max":869,"o":"m 854 1310 l 479 481 l 869 -383 l 869 -469 l 783 -469 l 417 342 l 50 -469 l -36 -469 l -36 -383 l 354 481 l -21 1310 l -21 1396 l 65 1396 l 417 618 l 768 1396 l 854 1396 l 854 1310 z "},"╴":{"ha":833,"x_min":-28,"x_max":486,"o":"m 486 583 l 486 469 l -28 469 l -28 583 l 486 583 z "},"╶":{"ha":833,"x_min":347,"x_max":861,"o":"m 861 583 l 861 469 l 347 469 l 347 583 l 861 583 z "},"☑":{"ha":833,"x_min":53,"x_max":781,"o":"m 781 53 l 53 53 l 53 788 l 781 788 l 781 53 m 157 683 l 157 157 l 676 157 l 676 683 l 157 683 m 444 217 l 388 217 l 219 540 l 219 621 l 297 621 l 411 378 l 421 378 l 536 621 l 614 621 l 614 540 l 444 217 z "},"☒":{"ha":833,"x_min":53,"x_max":781,"o":"m 781 53 l 53 53 l 53 788 l 781 788 l 781 53 m 167 674 l 167 167 l 667 167 l 667 674 l 167 674 m 307 229 l 231 229 l 231 300 l 353 421 l 231 540 l 231 611 l 307 611 l 415 483 l 524 611 l 600 611 l 600 540 l 479 421 l 600 300 l 600 229 l 524 229 l 415 358 l 307 229 z "},"☺":{"ha":833,"x_min":29,"x_max":804,"o":"m 592 0 l 242 0 l 29 219 l 29 618 l 242 838 l 592 838 l 804 618 l 804 219 l 592 0 m 121 254 l 278 93 l 556 93 l 713 254 l 713 583 l 556 746 l 278 746 l 121 583 l 121 254 m 361 511 l 253 511 l 253 624 l 361 624 l 361 511 m 581 511 l 472 511 l 472 624 l 581 624 l 581 511 m 535 183 l 299 183 l 197 286 l 197 433 l 288 433 l 288 324 l 338 274 l 497 274 l 546 324 l 546 433 l 636 433 l 636 286 l 535 183 z "},"☻":{"ha":833,"x_min":29,"x_max":804,"o":"m 592 0 l 242 0 l 29 219 l 29 618 l 242 838 l 592 838 l 804 618 l 804 219 l 592 0 m 253 624 l 253 511 l 361 511 l 361 624 l 253 624 m 472 624 l 472 511 l 581 511 l 581 624 l 472 624 m 197 286 l 299 183 l 535 183 l 636 286 l 636 433 l 546 433 l 546 324 l 497 274 l 338 274 l 288 324 l 288 433 l 197 433 l 197 286 z "},"♢":{"ha":833,"x_min":71,"x_max":763,"o":"m 456 0 l 379 0 l 71 458 l 379 917 l 456 917 l 763 458 l 456 0 m 208 458 l 408 158 l 426 158 l 625 458 l 426 758 l 408 758 l 208 458 z "},"♦":{"ha":833,"x_min":71,"x_max":763,"o":"m 456 0 l 379 0 l 71 458 l 379 917 l 456 917 l 763 458 l 456 0 z "},"⚠":{"ha":833,"x_min":19,"x_max":814,"o":"m 814 0 l 19 0 l 19 114 l 340 917 l 503 917 l 814 117 l 814 0 m 372 424 l 389 301 l 444 301 l 461 424 l 461 653 l 372 653 l 372 424 m 374 211 l 374 121 l 460 121 l 460 211 l 374 211 z "},"@":{"ha":833,"x_min":54,"x_max":779,"o":"m 194 -165 l 54 -22 l 54 757 l 194 900 l 639 900 l 779 757 l 779 72 l 681 72 l 672 128 l 665 128 l 593 72 l 400 72 l 267 207 l 267 489 l 400 624 l 590 624 l 644 579 l 653 579 l 653 703 l 586 768 l 250 768 l 186 703 l 186 35 l 250 -35 l 779 -35 l 779 -165 l 194 -165 m 399 435 l 399 261 l 454 204 l 553 204 l 647 274 l 647 421 l 563 492 l 454 492 l 399 435 z "},"&":{"ha":833,"x_min":54,"x_max":804,"o":"m 689 401 l 804 401 l 804 286 l 733 210 l 804 113 l 804 0 l 689 0 l 624 90 l 542 0 l 222 0 l 54 172 l 54 388 l 222 560 l 283 560 l 101 810 l 101 917 l 711 917 l 711 764 l 346 764 l 346 744 l 639 342 l 689 401 m 285 160 l 486 160 l 533 215 l 399 400 l 285 400 l 214 325 l 214 235 l 285 160 z "},"¶":{"ha":833,"x_min":88,"x_max":686,"o":"m 421 0 l 279 0 l 279 674 l 153 674 l 88 735 l 88 858 l 153 917 l 421 917 l 421 0 m 686 0 l 546 0 l 546 917 l 686 917 l 686 0 z "},"§":{"ha":833,"x_min":76,"x_max":757,"o":"m 606 -211 l 228 -211 l 76 -57 l 76 29 l 210 29 l 210 -3 l 285 -79 l 550 -79 l 625 -3 l 625 56 l 571 110 l 226 110 l 76 264 l 76 429 l 156 510 l 76 590 l 76 763 l 228 917 l 606 917 l 757 763 l 757 678 l 624 678 l 624 708 l 549 785 l 283 785 l 208 708 l 208 644 l 269 583 l 607 583 l 757 429 l 757 264 l 681 186 l 757 108 l 757 -57 l 606 -211 m 208 318 l 282 242 l 551 242 l 625 318 l 625 375 l 551 451 l 282 451 l 208 375 l 208 318 z "},"©":{"ha":833,"x_min":14,"x_max":819,"o":"m 679 0 l 154 0 l 14 143 l 14 774 l 154 917 l 679 917 l 819 774 l 819 143 l 679 0 m 104 181 l 192 90 l 642 90 l 729 181 l 729 735 l 642 826 l 192 826 l 104 735 l 104 181 m 514 281 l 336 281 l 253 365 l 253 550 l 336 635 l 514 635 l 582 565 l 582 506 l 518 506 l 479 550 l 374 550 l 338 513 l 338 403 l 374 365 l 479 365 l 518 410 l 582 410 l 582 350 l 514 281 z "},"®":{"ha":833,"x_min":14,"x_max":819,"o":"m 679 0 l 154 0 l 14 143 l 14 774 l 154 917 l 679 917 l 819 774 l 819 143 l 679 0 m 104 181 l 192 90 l 642 90 l 729 181 l 729 735 l 642 826 l 192 826 l 104 735 l 104 181 m 344 282 l 260 282 l 260 633 l 508 633 l 574 575 l 574 478 l 508 417 l 468 417 l 468 413 l 553 336 l 553 282 l 481 282 l 367 417 l 344 417 l 344 282 m 346 556 l 346 490 l 465 490 l 489 510 l 489 536 l 465 556 l 346 556 z "},"℗":{"ha":833,"x_min":14,"x_max":819,"o":"m 679 0 l 154 0 l 14 143 l 14 774 l 154 917 l 679 917 l 819 774 l 819 143 l 679 0 m 104 181 l 192 90 l 642 90 l 729 181 l 729 736 l 642 826 l 192 826 l 104 736 l 104 181 m 343 282 l 260 282 l 260 633 l 508 633 l 574 575 l 574 467 l 508 404 l 343 404 l 343 282 m 344 554 l 344 485 l 469 485 l 489 501 l 489 536 l 469 554 l 344 554 z "},"™":{"ha":833,"x_min":150,"x_max":689,"o":"m 328 632 l 239 632 l 240 815 l 150 815 l 150 900 l 417 900 l 417 815 l 326 815 l 328 632 m 521 632 l 443 632 l 443 900 l 535 900 l 564 810 l 568 810 l 597 900 l 689 900 l 689 632 l 613 632 l 614 756 l 608 756 l 590 700 l 542 700 l 524 756 l 518 756 l 521 632 z "},"°":{"ha":833,"x_min":199,"x_max":635,"o":"m 517 521 l 314 521 l 199 639 l 199 831 l 314 949 l 517 949 l 635 831 l 635 639 l 517 521 m 322 690 l 368 646 l 464 646 l 511 690 l 511 779 l 464 824 l 368 824 l 322 779 l 322 690 z "},"′":{"ha":833,"x_min":329,"x_max":501,"o":"m 464 653 l 329 653 l 329 960 l 501 960 l 464 653 z "},"″":{"ha":833,"x_min":222,"x_max":624,"o":"m 586 653 l 451 653 l 451 960 l 624 960 l 586 653 m 357 653 l 222 653 l 222 960 l 394 960 l 357 653 z "},"|":{"ha":833,"x_min":342,"x_max":492,"o":"m 342 -232 l 342 1107 l 492 1107 l 492 -232 l 342 -232 z "},"¦":{"ha":833,"x_min":342,"x_max":492,"o":"m 492 486 l 342 486 l 342 996 l 492 996 l 492 486 m 492 -232 l 342 -232 l 342 278 l 492 278 l 492 -232 z "},"ℓ":{"ha":833,"x_min":133,"x_max":640,"o":"m 533 0 l 342 0 l 235 142 l 235 328 l 133 328 l 133 458 l 235 458 l 235 775 l 342 917 l 533 917 l 640 775 l 640 468 l 533 328 l 365 328 l 365 186 l 407 132 l 468 132 l 518 200 l 613 200 l 613 106 l 533 0 m 365 731 l 365 458 l 468 458 l 510 514 l 510 731 l 468 785 l 407 785 l 365 731 z "},"†":{"ha":833,"x_min":125,"x_max":708,"o":"m 493 0 l 340 0 l 340 465 l 125 465 l 125 618 l 340 618 l 340 917 l 493 917 l 493 618 l 708 618 l 708 465 l 493 465 l 493 0 z "},"‡":{"ha":833,"x_min":125,"x_max":708,"o":"m 340 247 l 125 247 l 125 399 l 340 399 l 340 518 l 125 518 l 125 669 l 340 669 l 340 917 l 493 917 l 493 669 l 708 669 l 708 518 l 493 518 l 493 399 l 708 399 l 708 247 l 493 247 l 493 0 l 340 0 l 340 247 z "},"№":{"ha":833,"x_min":76,"x_max":769,"o":"m 694 629 l 525 629 l 450 706 l 450 858 l 525 935 l 694 935 l 769 858 l 769 706 l 694 629 m 229 0 l 76 0 l 76 917 l 222 917 l 532 300 l 542 300 l 542 447 l 693 447 l 693 0 l 511 0 l 235 557 l 224 557 l 229 0 m 549 749 l 569 728 l 650 728 l 671 749 l 671 817 l 650 836 l 569 836 l 549 817 l 549 749 m 756 482 l 485 482 l 485 594 l 756 594 l 756 482 z "},"℮":{"ha":833,"x_min":60,"x_max":774,"o":"m 219 415 l 219 218 l 328 100 l 506 100 l 614 218 l 614 308 l 774 308 l 774 215 l 574 0 l 260 0 l 60 215 l 60 701 l 260 917 l 574 917 l 774 701 l 774 415 l 219 415 m 506 817 l 328 817 l 219 699 l 219 515 l 614 515 l 614 699 l 506 817 z "},"⌂":{"ha":833,"x_min":74,"x_max":760,"o":"m 760 0 l 74 0 l 74 447 l 379 788 l 454 788 l 760 447 l 760 0 m 188 403 l 188 114 l 646 114 l 646 403 l 422 653 l 411 653 l 188 403 z "},"⇪":{"ha":833,"x_min":56,"x_max":761,"o":"m 593 306 l 224 306 l 224 525 l 56 525 l 56 643 l 371 951 l 446 951 l 761 643 l 761 525 l 593 525 l 593 306 m 338 642 l 338 419 l 479 419 l 479 642 l 590 642 l 590 650 l 414 821 l 403 821 l 226 650 l 226 642 l 338 642 m 593 0 l 224 0 l 224 253 l 593 253 l 593 0 m 318 151 l 318 101 l 499 101 l 499 151 l 318 151 z "},"⌥":{"ha":833,"x_min":46,"x_max":771,"o":"m 225 799 l 46 799 l 46 917 l 313 917 l 583 118 l 771 118 l 771 0 l 496 0 l 225 799 m 771 799 l 461 799 l 461 917 l 771 917 l 771 799 z "},"⌘":{"ha":833,"x_min":8,"x_max":825,"o":"m 288 0 l 103 0 l 8 115 l 8 289 l 110 393 l 263 393 l 263 522 l 110 522 l 8 626 l 8 801 l 103 917 l 288 917 l 367 808 l 367 626 l 467 626 l 467 808 l 546 917 l 731 917 l 825 801 l 825 626 l 724 522 l 572 522 l 572 393 l 724 393 l 825 289 l 825 115 l 731 0 l 546 0 l 467 108 l 467 289 l 367 289 l 367 108 l 288 0 m 158 629 l 263 629 l 263 769 l 233 808 l 156 808 l 117 764 l 117 671 l 158 629 m 572 769 l 572 629 l 675 629 l 717 671 l 717 764 l 678 808 l 601 808 l 572 769 m 367 522 l 367 393 l 467 393 l 467 522 l 367 522 m 263 147 l 263 286 l 158 286 l 117 244 l 117 153 l 156 108 l 233 108 l 263 147 m 675 286 l 572 286 l 572 147 l 601 108 l 678 108 l 717 153 l 717 244 l 675 286 z "},"⏎":{"ha":833,"x_min":11,"x_max":828,"o":"m 243 7 l 11 279 l 11 397 l 243 669 l 350 669 l 350 561 l 210 422 l 210 410 l 686 410 l 686 767 l 369 767 l 369 908 l 828 908 l 828 267 l 210 267 l 210 254 l 350 115 l 350 7 l 243 7 z "},"ʼ":{"ha":833,"x_min":325,"x_max":533,"o":"m 439 726 l 325 726 l 326 894 l 356 972 l 533 972 l 439 726 z "},"ʺ":{"ha":833,"x_min":215,"x_max":692,"o":"m 328 653 l 215 653 l 215 889 l 250 972 l 440 972 l 328 653 m 578 653 l 465 653 l 467 889 l 500 972 l 692 972 l 578 653 z "},"ʹ":{"ha":833,"x_min":319,"x_max":544,"o":"m 432 653 l 319 653 l 319 889 l 354 972 l 544 972 l 432 653 z "},"̈":{"ha":0,"x_min":-626,"x_max":-207,"o":"m -471 832 l -626 832 l -626 983 l -471 983 l -471 832 m -207 832 l -362 832 l -362 983 l -207 983 l -207 832 z "},"̇":{"ha":0,"x_min":-504,"x_max":-329,"o":"m -329 825 l -504 825 l -504 1000 l -329 1000 l -329 825 z "},"̀":{"ha":0,"x_min":-522,"x_max":-312,"o":"m -312 874 l -312 792 l -401 792 l -522 949 l -522 1051 l -421 1051 l -312 874 z "},"́":{"ha":0,"x_min":-526,"x_max":-317,"o":"m -437 792 l -526 792 l -526 874 l -418 1051 l -317 1051 l -317 949 l -437 792 z "},"̋":{"ha":0,"x_min":-647,"x_max":-192,"o":"m -558 792 l -647 792 l -647 874 l -539 1051 l -437 1051 l -437 949 l -558 792 m -312 792 l -401 792 l -401 874 l -293 1051 l -192 1051 l -192 949 l -312 792 z "},"̂":{"ha":0,"x_min":-643,"x_max":-189,"o":"m -539 789 l -643 789 l -643 893 l -460 1026 l -374 1026 l -189 888 l -189 789 l -304 789 l -410 892 l -424 892 l -539 789 z "},"̌":{"ha":0,"x_min":-643,"x_max":-189,"o":"m -643 915 l -643 1029 l -539 1029 l -426 932 l -406 932 l -304 1029 l -189 1029 l -189 931 l -368 792 l -464 792 l -643 915 z "},"̆":{"ha":0,"x_min":-647,"x_max":-185,"o":"m -276 792 l -556 792 l -647 885 l -647 1019 l -506 1019 l -506 947 l -479 922 l -353 922 l -326 949 l -326 1019 l -185 1019 l -185 885 l -276 792 z "},"̊":{"ha":0,"x_min":-564,"x_max":-269,"o":"m -344 764 l -487 764 l -564 840 l -564 965 l -487 1042 l -344 1042 l -269 965 l -269 840 l -344 764 m -464 883 l -444 863 l -387 863 l -368 883 l -368 922 l -387 942 l -444 942 l -464 922 l -464 883 z "},"̃":{"ha":0,"x_min":-636,"x_max":-197,"o":"m -533 801 l -636 801 l -636 914 l -565 988 l -431 988 l -367 935 l -332 935 l -300 982 l -197 982 l -197 871 l -268 801 l -403 801 l -465 854 l -500 854 l -533 801 z "},"̄":{"ha":0,"x_min":-635,"x_max":-199,"o":"m -635 826 l -635 968 l -199 968 l -199 826 l -635 826 z "},"̒":{"ha":0,"x_min":-447,"x_max":-285,"o":"m -336 910 l -285 910 l -285 765 l -447 765 l -447 910 l -381 1097 l -296 1097 l -310 950 l -336 910 z "},"̦":{"ha":0,"x_min":-486,"x_max":-324,"o":"m -435 -144 l -486 -144 l -486 0 l -324 0 l -324 -144 l -390 -332 l -475 -332 l -461 -185 l -435 -144 z "},"̧":{"ha":0,"x_min":-561,"x_max":-261,"o":"m -343 -310 l -492 -310 l -561 -233 l -468 -167 l -442 -190 l -397 -190 l -379 -175 l -379 -149 l -397 -131 l -447 -131 l -510 -47 l -467 50 l -340 38 l -379 -25 l -375 -32 l -331 -32 l -261 -103 l -261 -226 l -343 -310 z "},"̨":{"ha":0,"x_min":-551,"x_max":-244,"o":"m -328 -290 l -471 -290 l -551 -206 l -551 -75 l -407 42 l -303 0 l -432 -114 l -432 -153 l -411 -172 l -376 -172 l -354 -147 l -244 -197 l -328 -290 z "},"̵":{"ha":0,"x_min":-619,"x_max":-214,"o":"m -214 279 l -619 279 l -619 413 l -214 413 l -214 279 z "},"¨":{"ha":833,"x_min":207,"x_max":626,"o":"m 363 832 l 207 832 l 207 983 l 363 983 l 363 832 m 626 832 l 471 832 l 471 983 l 626 983 l 626 832 z "},"˙":{"ha":833,"x_min":329,"x_max":504,"o":"m 504 825 l 329 825 l 329 1000 l 504 1000 l 504 825 z "},"`":{"ha":833,"x_min":311,"x_max":521,"o":"m 521 874 l 521 792 l 432 792 l 311 949 l 311 1051 l 413 1051 l 521 874 z "},"´":{"ha":833,"x_min":307,"x_max":517,"o":"m 396 792 l 307 792 l 307 874 l 415 1051 l 517 1051 l 517 949 l 396 792 z "},"˝":{"ha":833,"x_min":186,"x_max":642,"o":"m 275 792 l 186 792 l 186 874 l 294 1051 l 396 1051 l 396 949 l 275 792 m 521 792 l 432 792 l 432 874 l 540 1051 l 642 1051 l 642 949 l 521 792 z "},"ˆ":{"ha":833,"x_min":190,"x_max":644,"o":"m 294 789 l 190 789 l 190 893 l 374 1026 l 460 1026 l 644 888 l 644 789 l 529 789 l 424 892 l 410 892 l 294 789 z "},"ˇ":{"ha":833,"x_min":190,"x_max":644,"o":"m 190 915 l 190 1029 l 294 1029 l 407 932 l 428 932 l 529 1029 l 644 1029 l 644 931 l 465 792 l 369 792 l 190 915 z "},"˘":{"ha":833,"x_min":186,"x_max":649,"o":"m 557 792 l 278 792 l 186 885 l 186 1019 l 328 1019 l 328 947 l 354 922 l 481 922 l 507 949 l 507 1019 l 649 1019 l 649 885 l 557 792 z "},"˚":{"ha":833,"x_min":269,"x_max":564,"o":"m 489 764 l 346 764 l 269 840 l 269 965 l 346 1042 l 489 1042 l 564 965 l 564 840 l 489 764 m 369 883 l 389 863 l 446 863 l 465 883 l 465 922 l 446 942 l 389 942 l 369 922 l 369 883 z "},"˜":{"ha":833,"x_min":197,"x_max":636,"o":"m 300 801 l 197 801 l 197 914 l 268 988 l 403 988 l 467 935 l 501 935 l 533 982 l 636 982 l 636 871 l 565 801 l 431 801 l 368 854 l 333 854 l 300 801 z "},"¯":{"ha":833,"x_min":199,"x_max":635,"o":"m 199 826 l 199 968 l 635 968 l 635 826 l 199 826 z "},"¸":{"ha":833,"x_min":272,"x_max":572,"o":"m 490 -310 l 342 -310 l 272 -233 l 365 -167 l 392 -190 l 436 -190 l 454 -175 l 454 -149 l 436 -131 l 386 -131 l 324 -47 l 367 50 l 493 38 l 454 -25 l 458 -32 l 503 -32 l 572 -103 l 572 -226 l 490 -310 z "},"˛":{"ha":833,"x_min":282,"x_max":589,"o":"m 506 -290 l 363 -290 l 282 -206 l 282 -75 l 426 42 l 531 0 l 401 -114 l 401 -153 l 422 -172 l 457 -172 l 479 -147 l 589 -197 l 506 -290 z "},"":{"ha":833,"x_min":115,"x_max":774,"o":"m 115 425 l 115 1021 l 218 1021 l 218 479 l 115 425 m 218 0 l 115 0 l 115 294 l 501 499 l 501 846 l 489 846 l 413 700 l 333 700 l 333 783 l 497 1021 l 613 1021 l 774 783 l 774 700 l 694 700 l 621 846 l 606 846 l 606 436 l 218 232 l 218 0 z "},"":{"ha":833,"x_min":208,"x_max":625,"o":"m 625 486 l 208 486 l 208 1056 l 313 1056 l 313 590 l 625 590 l 625 486 m 313 -139 l 208 -139 l 208 431 l 314 431 l 510 93 l 521 93 l 521 431 l 625 431 l 625 -139 l 528 -139 l 324 213 l 313 213 l 313 -139 z "},"":{"ha":833,"x_min":106,"x_max":728,"o":"m 608 510 l 672 510 l 728 454 l 728 56 l 672 0 l 161 0 l 106 56 l 106 454 l 161 510 l 225 510 l 225 778 l 332 917 l 501 917 l 608 778 l 608 510 m 379 824 l 318 746 l 318 510 l 515 510 l 515 746 l 456 824 l 379 824 m 369 167 l 464 167 l 464 343 l 369 343 l 369 167 z "},"":{"ha":833,"x_min":132,"x_max":722,"o":"m 253 -219 l 132 -219 l 132 1136 l 253 1136 l 722 458 l 253 -219 z "},"":{"ha":833,"x_min":125,"x_max":694,"o":"m 235 -219 l 125 -219 l 125 -108 l 507 450 l 507 467 l 125 1025 l 125 1136 l 235 1136 l 694 458 l 235 -219 z "},"":{"ha":833,"x_min":111,"x_max":701,"o":"m 701 1136 l 701 -219 l 581 -219 l 111 458 l 581 1136 l 701 1136 z "},"":{"ha":833,"x_min":139,"x_max":708,"o":"m 708 -108 l 708 -219 l 599 -219 l 139 458 l 599 1136 l 708 1136 l 708 1025 l 326 467 l 326 450 l 708 -108 z "}}}
